<?xml version="1.0" encoding="utf-8" standalone="no"?>
<!DOCTYPE svg PUBLIC "-//W3C//DTD SVG 1.1//EN"
  "http://www.w3.org/Graphics/SVG/1.1/DTD/svg11.dtd">
<!-- Created with matplotlib (https://matplotlib.org/) -->
<svg height="315.36pt" version="1.1" viewBox="0 0 460.8 315.36" width="460.8pt" xmlns="http://www.w3.org/2000/svg" xmlns:xlink="http://www.w3.org/1999/xlink">
 <defs>
  <style type="text/css">
*{stroke-linecap:butt;stroke-linejoin:round;}
  </style>
 </defs>
 <g id="figure_1">
  <g id="patch_1">
   <path d="M 0 315.36 
L 460.8 315.36 
L 460.8 0 
L 0 0 
z
" style="fill:#ffffff;"/>
  </g>
  <g id="axes_1">
   <g id="patch_2">
    <path d="M 57.6 280.6704 
L 414.72 280.6704 
L 414.72 37.8432 
L 57.6 37.8432 
z
" style="fill:#ffffff;"/>
   </g>
   <g id="matplotlib.axis_1">
    <g id="xtick_1">
     <g id="line2d_1">
      <path clip-path="url(#p1888e2474a)" d="M 73.832727 280.6704 
L 73.832727 37.8432 
" style="fill:none;stroke:#b0b0b0;stroke-linecap:square;stroke-width:0.8;"/>
     </g>
     <g id="line2d_2">
      <defs>
       <path d="M 0 0 
L 0 3.5 
" id="m99cf74d2ba" style="stroke:#000000;stroke-width:0.8;"/>
      </defs>
      <g>
       <use style="stroke:#000000;stroke-width:0.8;" x="73.832727" xlink:href="#m99cf74d2ba" y="280.6704"/>
      </g>
     </g>
     <g id="text_1">
      <!-- 0 -->
      <defs>
       <path d="M 31.78125 66.40625 
Q 24.171875 66.40625 20.328125 58.90625 
Q 16.5 51.421875 16.5 36.375 
Q 16.5 21.390625 20.328125 13.890625 
Q 24.171875 6.390625 31.78125 6.390625 
Q 39.453125 6.390625 43.28125 13.890625 
Q 47.125 21.390625 47.125 36.375 
Q 47.125 51.421875 43.28125 58.90625 
Q 39.453125 66.40625 31.78125 66.40625 
z
M 31.78125 74.21875 
Q 44.046875 74.21875 50.515625 64.515625 
Q 56.984375 54.828125 56.984375 36.375 
Q 56.984375 17.96875 50.515625 8.265625 
Q 44.046875 -1.421875 31.78125 -1.421875 
Q 19.53125 -1.421875 13.0625 8.265625 
Q 6.59375 17.96875 6.59375 36.375 
Q 6.59375 54.828125 13.0625 64.515625 
Q 19.53125 74.21875 31.78125 74.21875 
z
" id="DejaVuSans-48"/>
      </defs>
      <g transform="translate(70.651477 295.268838)scale(0.1 -0.1)">
       <use xlink:href="#DejaVuSans-48"/>
      </g>
     </g>
    </g>
    <g id="xtick_2">
     <g id="line2d_3">
      <path clip-path="url(#p1888e2474a)" d="M 145.978182 280.6704 
L 145.978182 37.8432 
" style="fill:none;stroke:#b0b0b0;stroke-linecap:square;stroke-width:0.8;"/>
     </g>
     <g id="line2d_4">
      <g>
       <use style="stroke:#000000;stroke-width:0.8;" x="145.978182" xlink:href="#m99cf74d2ba" y="280.6704"/>
      </g>
     </g>
     <g id="text_2">
      <!-- 20 -->
      <defs>
       <path d="M 19.1875 8.296875 
L 53.609375 8.296875 
L 53.609375 0 
L 7.328125 0 
L 7.328125 8.296875 
Q 12.9375 14.109375 22.625 23.890625 
Q 32.328125 33.6875 34.8125 36.53125 
Q 39.546875 41.84375 41.421875 45.53125 
Q 43.3125 49.21875 43.3125 52.78125 
Q 43.3125 58.59375 39.234375 62.25 
Q 35.15625 65.921875 28.609375 65.921875 
Q 23.96875 65.921875 18.8125 64.3125 
Q 13.671875 62.703125 7.8125 59.421875 
L 7.8125 69.390625 
Q 13.765625 71.78125 18.9375 73 
Q 24.125 74.21875 28.421875 74.21875 
Q 39.75 74.21875 46.484375 68.546875 
Q 53.21875 62.890625 53.21875 53.421875 
Q 53.21875 48.921875 51.53125 44.890625 
Q 49.859375 40.875 45.40625 35.40625 
Q 44.1875 33.984375 37.640625 27.21875 
Q 31.109375 20.453125 19.1875 8.296875 
z
" id="DejaVuSans-50"/>
      </defs>
      <g transform="translate(139.615682 295.268838)scale(0.1 -0.1)">
       <use xlink:href="#DejaVuSans-50"/>
       <use x="63.623047" xlink:href="#DejaVuSans-48"/>
      </g>
     </g>
    </g>
    <g id="xtick_3">
     <g id="line2d_5">
      <path clip-path="url(#p1888e2474a)" d="M 218.123636 280.6704 
L 218.123636 37.8432 
" style="fill:none;stroke:#b0b0b0;stroke-linecap:square;stroke-width:0.8;"/>
     </g>
     <g id="line2d_6">
      <g>
       <use style="stroke:#000000;stroke-width:0.8;" x="218.123636" xlink:href="#m99cf74d2ba" y="280.6704"/>
      </g>
     </g>
     <g id="text_3">
      <!-- 40 -->
      <defs>
       <path d="M 37.796875 64.3125 
L 12.890625 25.390625 
L 37.796875 25.390625 
z
M 35.203125 72.90625 
L 47.609375 72.90625 
L 47.609375 25.390625 
L 58.015625 25.390625 
L 58.015625 17.1875 
L 47.609375 17.1875 
L 47.609375 0 
L 37.796875 0 
L 37.796875 17.1875 
L 4.890625 17.1875 
L 4.890625 26.703125 
z
" id="DejaVuSans-52"/>
      </defs>
      <g transform="translate(211.761136 295.268838)scale(0.1 -0.1)">
       <use xlink:href="#DejaVuSans-52"/>
       <use x="63.623047" xlink:href="#DejaVuSans-48"/>
      </g>
     </g>
    </g>
    <g id="xtick_4">
     <g id="line2d_7">
      <path clip-path="url(#p1888e2474a)" d="M 290.269091 280.6704 
L 290.269091 37.8432 
" style="fill:none;stroke:#b0b0b0;stroke-linecap:square;stroke-width:0.8;"/>
     </g>
     <g id="line2d_8">
      <g>
       <use style="stroke:#000000;stroke-width:0.8;" x="290.269091" xlink:href="#m99cf74d2ba" y="280.6704"/>
      </g>
     </g>
     <g id="text_4">
      <!-- 60 -->
      <defs>
       <path d="M 33.015625 40.375 
Q 26.375 40.375 22.484375 35.828125 
Q 18.609375 31.296875 18.609375 23.390625 
Q 18.609375 15.53125 22.484375 10.953125 
Q 26.375 6.390625 33.015625 6.390625 
Q 39.65625 6.390625 43.53125 10.953125 
Q 47.40625 15.53125 47.40625 23.390625 
Q 47.40625 31.296875 43.53125 35.828125 
Q 39.65625 40.375 33.015625 40.375 
z
M 52.59375 71.296875 
L 52.59375 62.3125 
Q 48.875 64.0625 45.09375 64.984375 
Q 41.3125 65.921875 37.59375 65.921875 
Q 27.828125 65.921875 22.671875 59.328125 
Q 17.53125 52.734375 16.796875 39.40625 
Q 19.671875 43.65625 24.015625 45.921875 
Q 28.375 48.1875 33.59375 48.1875 
Q 44.578125 48.1875 50.953125 41.515625 
Q 57.328125 34.859375 57.328125 23.390625 
Q 57.328125 12.15625 50.6875 5.359375 
Q 44.046875 -1.421875 33.015625 -1.421875 
Q 20.359375 -1.421875 13.671875 8.265625 
Q 6.984375 17.96875 6.984375 36.375 
Q 6.984375 53.65625 15.1875 63.9375 
Q 23.390625 74.21875 37.203125 74.21875 
Q 40.921875 74.21875 44.703125 73.484375 
Q 48.484375 72.75 52.59375 71.296875 
z
" id="DejaVuSans-54"/>
      </defs>
      <g transform="translate(283.906591 295.268838)scale(0.1 -0.1)">
       <use xlink:href="#DejaVuSans-54"/>
       <use x="63.623047" xlink:href="#DejaVuSans-48"/>
      </g>
     </g>
    </g>
    <g id="xtick_5">
     <g id="line2d_9">
      <path clip-path="url(#p1888e2474a)" d="M 362.414545 280.6704 
L 362.414545 37.8432 
" style="fill:none;stroke:#b0b0b0;stroke-linecap:square;stroke-width:0.8;"/>
     </g>
     <g id="line2d_10">
      <g>
       <use style="stroke:#000000;stroke-width:0.8;" x="362.414545" xlink:href="#m99cf74d2ba" y="280.6704"/>
      </g>
     </g>
     <g id="text_5">
      <!-- 80 -->
      <defs>
       <path d="M 31.78125 34.625 
Q 24.75 34.625 20.71875 30.859375 
Q 16.703125 27.09375 16.703125 20.515625 
Q 16.703125 13.921875 20.71875 10.15625 
Q 24.75 6.390625 31.78125 6.390625 
Q 38.8125 6.390625 42.859375 10.171875 
Q 46.921875 13.96875 46.921875 20.515625 
Q 46.921875 27.09375 42.890625 30.859375 
Q 38.875 34.625 31.78125 34.625 
z
M 21.921875 38.8125 
Q 15.578125 40.375 12.03125 44.71875 
Q 8.5 49.078125 8.5 55.328125 
Q 8.5 64.0625 14.71875 69.140625 
Q 20.953125 74.21875 31.78125 74.21875 
Q 42.671875 74.21875 48.875 69.140625 
Q 55.078125 64.0625 55.078125 55.328125 
Q 55.078125 49.078125 51.53125 44.71875 
Q 48 40.375 41.703125 38.8125 
Q 48.828125 37.15625 52.796875 32.3125 
Q 56.78125 27.484375 56.78125 20.515625 
Q 56.78125 9.90625 50.3125 4.234375 
Q 43.84375 -1.421875 31.78125 -1.421875 
Q 19.734375 -1.421875 13.25 4.234375 
Q 6.78125 9.90625 6.78125 20.515625 
Q 6.78125 27.484375 10.78125 32.3125 
Q 14.796875 37.15625 21.921875 38.8125 
z
M 18.3125 54.390625 
Q 18.3125 48.734375 21.84375 45.5625 
Q 25.390625 42.390625 31.78125 42.390625 
Q 38.140625 42.390625 41.71875 45.5625 
Q 45.3125 48.734375 45.3125 54.390625 
Q 45.3125 60.0625 41.71875 63.234375 
Q 38.140625 66.40625 31.78125 66.40625 
Q 25.390625 66.40625 21.84375 63.234375 
Q 18.3125 60.0625 18.3125 54.390625 
z
" id="DejaVuSans-56"/>
      </defs>
      <g transform="translate(356.052045 295.268838)scale(0.1 -0.1)">
       <use xlink:href="#DejaVuSans-56"/>
       <use x="63.623047" xlink:href="#DejaVuSans-48"/>
      </g>
     </g>
    </g>
    <g id="text_6">
     <!-- Angolo incidente [°] -->
     <defs>
      <path d="M 34.1875 63.1875 
L 20.796875 26.90625 
L 47.609375 26.90625 
z
M 28.609375 72.90625 
L 39.796875 72.90625 
L 67.578125 0 
L 57.328125 0 
L 50.6875 18.703125 
L 17.828125 18.703125 
L 11.1875 0 
L 0.78125 0 
z
" id="DejaVuSans-65"/>
      <path d="M 54.890625 33.015625 
L 54.890625 0 
L 45.90625 0 
L 45.90625 32.71875 
Q 45.90625 40.484375 42.875 44.328125 
Q 39.84375 48.1875 33.796875 48.1875 
Q 26.515625 48.1875 22.3125 43.546875 
Q 18.109375 38.921875 18.109375 30.90625 
L 18.109375 0 
L 9.078125 0 
L 9.078125 54.6875 
L 18.109375 54.6875 
L 18.109375 46.1875 
Q 21.34375 51.125 25.703125 53.5625 
Q 30.078125 56 35.796875 56 
Q 45.21875 56 50.046875 50.171875 
Q 54.890625 44.34375 54.890625 33.015625 
z
" id="DejaVuSans-110"/>
      <path d="M 45.40625 27.984375 
Q 45.40625 37.75 41.375 43.109375 
Q 37.359375 48.484375 30.078125 48.484375 
Q 22.859375 48.484375 18.828125 43.109375 
Q 14.796875 37.75 14.796875 27.984375 
Q 14.796875 18.265625 18.828125 12.890625 
Q 22.859375 7.515625 30.078125 7.515625 
Q 37.359375 7.515625 41.375 12.890625 
Q 45.40625 18.265625 45.40625 27.984375 
z
M 54.390625 6.78125 
Q 54.390625 -7.171875 48.1875 -13.984375 
Q 42 -20.796875 29.203125 -20.796875 
Q 24.46875 -20.796875 20.265625 -20.09375 
Q 16.0625 -19.390625 12.109375 -17.921875 
L 12.109375 -9.1875 
Q 16.0625 -11.328125 19.921875 -12.34375 
Q 23.78125 -13.375 27.78125 -13.375 
Q 36.625 -13.375 41.015625 -8.765625 
Q 45.40625 -4.15625 45.40625 5.171875 
L 45.40625 9.625 
Q 42.625 4.78125 38.28125 2.390625 
Q 33.9375 0 27.875 0 
Q 17.828125 0 11.671875 7.65625 
Q 5.515625 15.328125 5.515625 27.984375 
Q 5.515625 40.671875 11.671875 48.328125 
Q 17.828125 56 27.875 56 
Q 33.9375 56 38.28125 53.609375 
Q 42.625 51.21875 45.40625 46.390625 
L 45.40625 54.6875 
L 54.390625 54.6875 
z
" id="DejaVuSans-103"/>
      <path d="M 30.609375 48.390625 
Q 23.390625 48.390625 19.1875 42.75 
Q 14.984375 37.109375 14.984375 27.296875 
Q 14.984375 17.484375 19.15625 11.84375 
Q 23.34375 6.203125 30.609375 6.203125 
Q 37.796875 6.203125 41.984375 11.859375 
Q 46.1875 17.53125 46.1875 27.296875 
Q 46.1875 37.015625 41.984375 42.703125 
Q 37.796875 48.390625 30.609375 48.390625 
z
M 30.609375 56 
Q 42.328125 56 49.015625 48.375 
Q 55.71875 40.765625 55.71875 27.296875 
Q 55.71875 13.875 49.015625 6.21875 
Q 42.328125 -1.421875 30.609375 -1.421875 
Q 18.84375 -1.421875 12.171875 6.21875 
Q 5.515625 13.875 5.515625 27.296875 
Q 5.515625 40.765625 12.171875 48.375 
Q 18.84375 56 30.609375 56 
z
" id="DejaVuSans-111"/>
      <path d="M 9.421875 75.984375 
L 18.40625 75.984375 
L 18.40625 0 
L 9.421875 0 
z
" id="DejaVuSans-108"/>
      <path id="DejaVuSans-32"/>
      <path d="M 9.421875 54.6875 
L 18.40625 54.6875 
L 18.40625 0 
L 9.421875 0 
z
M 9.421875 75.984375 
L 18.40625 75.984375 
L 18.40625 64.59375 
L 9.421875 64.59375 
z
" id="DejaVuSans-105"/>
      <path d="M 48.78125 52.59375 
L 48.78125 44.1875 
Q 44.96875 46.296875 41.140625 47.34375 
Q 37.3125 48.390625 33.40625 48.390625 
Q 24.65625 48.390625 19.8125 42.84375 
Q 14.984375 37.3125 14.984375 27.296875 
Q 14.984375 17.28125 19.8125 11.734375 
Q 24.65625 6.203125 33.40625 6.203125 
Q 37.3125 6.203125 41.140625 7.25 
Q 44.96875 8.296875 48.78125 10.40625 
L 48.78125 2.09375 
Q 45.015625 0.34375 40.984375 -0.53125 
Q 36.96875 -1.421875 32.421875 -1.421875 
Q 20.0625 -1.421875 12.78125 6.34375 
Q 5.515625 14.109375 5.515625 27.296875 
Q 5.515625 40.671875 12.859375 48.328125 
Q 20.21875 56 33.015625 56 
Q 37.15625 56 41.109375 55.140625 
Q 45.0625 54.296875 48.78125 52.59375 
z
" id="DejaVuSans-99"/>
      <path d="M 45.40625 46.390625 
L 45.40625 75.984375 
L 54.390625 75.984375 
L 54.390625 0 
L 45.40625 0 
L 45.40625 8.203125 
Q 42.578125 3.328125 38.25 0.953125 
Q 33.9375 -1.421875 27.875 -1.421875 
Q 17.96875 -1.421875 11.734375 6.484375 
Q 5.515625 14.40625 5.515625 27.296875 
Q 5.515625 40.1875 11.734375 48.09375 
Q 17.96875 56 27.875 56 
Q 33.9375 56 38.25 53.625 
Q 42.578125 51.265625 45.40625 46.390625 
z
M 14.796875 27.296875 
Q 14.796875 17.390625 18.875 11.75 
Q 22.953125 6.109375 30.078125 6.109375 
Q 37.203125 6.109375 41.296875 11.75 
Q 45.40625 17.390625 45.40625 27.296875 
Q 45.40625 37.203125 41.296875 42.84375 
Q 37.203125 48.484375 30.078125 48.484375 
Q 22.953125 48.484375 18.875 42.84375 
Q 14.796875 37.203125 14.796875 27.296875 
z
" id="DejaVuSans-100"/>
      <path d="M 56.203125 29.59375 
L 56.203125 25.203125 
L 14.890625 25.203125 
Q 15.484375 15.921875 20.484375 11.0625 
Q 25.484375 6.203125 34.421875 6.203125 
Q 39.59375 6.203125 44.453125 7.46875 
Q 49.3125 8.734375 54.109375 11.28125 
L 54.109375 2.78125 
Q 49.265625 0.734375 44.1875 -0.34375 
Q 39.109375 -1.421875 33.890625 -1.421875 
Q 20.796875 -1.421875 13.15625 6.1875 
Q 5.515625 13.8125 5.515625 26.8125 
Q 5.515625 40.234375 12.765625 48.109375 
Q 20.015625 56 32.328125 56 
Q 43.359375 56 49.78125 48.890625 
Q 56.203125 41.796875 56.203125 29.59375 
z
M 47.21875 32.234375 
Q 47.125 39.59375 43.09375 43.984375 
Q 39.0625 48.390625 32.421875 48.390625 
Q 24.90625 48.390625 20.390625 44.140625 
Q 15.875 39.890625 15.1875 32.171875 
z
" id="DejaVuSans-101"/>
      <path d="M 18.3125 70.21875 
L 18.3125 54.6875 
L 36.8125 54.6875 
L 36.8125 47.703125 
L 18.3125 47.703125 
L 18.3125 18.015625 
Q 18.3125 11.328125 20.140625 9.421875 
Q 21.96875 7.515625 27.59375 7.515625 
L 36.8125 7.515625 
L 36.8125 0 
L 27.59375 0 
Q 17.1875 0 13.234375 3.875 
Q 9.28125 7.765625 9.28125 18.015625 
L 9.28125 47.703125 
L 2.6875 47.703125 
L 2.6875 54.6875 
L 9.28125 54.6875 
L 9.28125 70.21875 
z
" id="DejaVuSans-116"/>
      <path d="M 8.59375 75.984375 
L 29.296875 75.984375 
L 29.296875 69 
L 17.578125 69 
L 17.578125 -6.203125 
L 29.296875 -6.203125 
L 29.296875 -13.1875 
L 8.59375 -13.1875 
z
" id="DejaVuSans-91"/>
      <path d="M 25 67.921875 
Q 21.09375 67.921875 18.40625 65.203125 
Q 15.71875 62.5 15.71875 58.59375 
Q 15.71875 54.734375 18.40625 52.078125 
Q 21.09375 49.421875 25 49.421875 
Q 28.90625 49.421875 31.59375 52.078125 
Q 34.28125 54.734375 34.28125 58.59375 
Q 34.28125 62.453125 31.5625 65.1875 
Q 28.859375 67.921875 25 67.921875 
z
M 25 74.21875 
Q 28.125 74.21875 31 73.015625 
Q 33.890625 71.828125 35.984375 69.578125 
Q 38.234375 67.390625 39.359375 64.59375 
Q 40.484375 61.8125 40.484375 58.59375 
Q 40.484375 52.15625 35.96875 47.6875 
Q 31.453125 43.21875 24.90625 43.21875 
Q 18.3125 43.21875 13.90625 47.609375 
Q 9.515625 52 9.515625 58.59375 
Q 9.515625 65.140625 14 69.671875 
Q 18.5 74.21875 25 74.21875 
z
" id="DejaVuSans-176"/>
      <path d="M 30.421875 75.984375 
L 30.421875 -13.1875 
L 9.71875 -13.1875 
L 9.71875 -6.203125 
L 21.390625 -6.203125 
L 21.390625 69 
L 9.71875 69 
L 9.71875 75.984375 
z
" id="DejaVuSans-93"/>
     </defs>
     <g transform="translate(186.156875 308.946963)scale(0.1 -0.1)">
      <use xlink:href="#DejaVuSans-65"/>
      <use x="68.408203" xlink:href="#DejaVuSans-110"/>
      <use x="131.787109" xlink:href="#DejaVuSans-103"/>
      <use x="195.263672" xlink:href="#DejaVuSans-111"/>
      <use x="256.445312" xlink:href="#DejaVuSans-108"/>
      <use x="284.228516" xlink:href="#DejaVuSans-111"/>
      <use x="345.410156" xlink:href="#DejaVuSans-32"/>
      <use x="377.197266" xlink:href="#DejaVuSans-105"/>
      <use x="404.980469" xlink:href="#DejaVuSans-110"/>
      <use x="468.359375" xlink:href="#DejaVuSans-99"/>
      <use x="523.339844" xlink:href="#DejaVuSans-105"/>
      <use x="551.123047" xlink:href="#DejaVuSans-100"/>
      <use x="614.599609" xlink:href="#DejaVuSans-101"/>
      <use x="676.123047" xlink:href="#DejaVuSans-110"/>
      <use x="739.501953" xlink:href="#DejaVuSans-116"/>
      <use x="778.710938" xlink:href="#DejaVuSans-101"/>
      <use x="840.234375" xlink:href="#DejaVuSans-32"/>
      <use x="872.021484" xlink:href="#DejaVuSans-91"/>
      <use x="911.035156" xlink:href="#DejaVuSans-176"/>
      <use x="961.035156" xlink:href="#DejaVuSans-93"/>
     </g>
    </g>
   </g>
   <g id="matplotlib.axis_2">
    <g id="ytick_1">
     <g id="line2d_11">
      <path clip-path="url(#p1888e2474a)" d="M 57.6 269.6328 
L 414.72 269.6328 
" style="fill:none;stroke:#b0b0b0;stroke-linecap:square;stroke-width:0.8;"/>
     </g>
     <g id="line2d_12">
      <defs>
       <path d="M 0 0 
L -3.5 0 
" id="mfcf888ea00" style="stroke:#000000;stroke-width:0.8;"/>
      </defs>
      <g>
       <use style="stroke:#000000;stroke-width:0.8;" x="57.6" xlink:href="#mfcf888ea00" y="269.6328"/>
      </g>
     </g>
     <g id="text_7">
      <!-- 0 -->
      <g transform="translate(44.2375 273.432019)scale(0.1 -0.1)">
       <use xlink:href="#DejaVuSans-48"/>
      </g>
     </g>
    </g>
    <g id="ytick_2">
     <g id="line2d_13">
      <path clip-path="url(#p1888e2474a)" d="M 57.6 238.970544 
L 414.72 238.970544 
" style="fill:none;stroke:#b0b0b0;stroke-linecap:square;stroke-width:0.8;"/>
     </g>
     <g id="line2d_14">
      <g>
       <use style="stroke:#000000;stroke-width:0.8;" x="57.6" xlink:href="#mfcf888ea00" y="238.970544"/>
      </g>
     </g>
     <g id="text_8">
      <!-- 50 -->
      <defs>
       <path d="M 10.796875 72.90625 
L 49.515625 72.90625 
L 49.515625 64.59375 
L 19.828125 64.59375 
L 19.828125 46.734375 
Q 21.96875 47.46875 24.109375 47.828125 
Q 26.265625 48.1875 28.421875 48.1875 
Q 40.625 48.1875 47.75 41.5 
Q 54.890625 34.8125 54.890625 23.390625 
Q 54.890625 11.625 47.5625 5.09375 
Q 40.234375 -1.421875 26.90625 -1.421875 
Q 22.3125 -1.421875 17.546875 -0.640625 
Q 12.796875 0.140625 7.71875 1.703125 
L 7.71875 11.625 
Q 12.109375 9.234375 16.796875 8.0625 
Q 21.484375 6.890625 26.703125 6.890625 
Q 35.15625 6.890625 40.078125 11.328125 
Q 45.015625 15.765625 45.015625 23.390625 
Q 45.015625 31 40.078125 35.4375 
Q 35.15625 39.890625 26.703125 39.890625 
Q 22.75 39.890625 18.8125 39.015625 
Q 14.890625 38.140625 10.796875 36.28125 
z
" id="DejaVuSans-53"/>
      </defs>
      <g transform="translate(37.875 242.769763)scale(0.1 -0.1)">
       <use xlink:href="#DejaVuSans-53"/>
       <use x="63.623047" xlink:href="#DejaVuSans-48"/>
      </g>
     </g>
    </g>
    <g id="ytick_3">
     <g id="line2d_15">
      <path clip-path="url(#p1888e2474a)" d="M 57.6 208.308288 
L 414.72 208.308288 
" style="fill:none;stroke:#b0b0b0;stroke-linecap:square;stroke-width:0.8;"/>
     </g>
     <g id="line2d_16">
      <g>
       <use style="stroke:#000000;stroke-width:0.8;" x="57.6" xlink:href="#mfcf888ea00" y="208.308288"/>
      </g>
     </g>
     <g id="text_9">
      <!-- 100 -->
      <defs>
       <path d="M 12.40625 8.296875 
L 28.515625 8.296875 
L 28.515625 63.921875 
L 10.984375 60.40625 
L 10.984375 69.390625 
L 28.421875 72.90625 
L 38.28125 72.90625 
L 38.28125 8.296875 
L 54.390625 8.296875 
L 54.390625 0 
L 12.40625 0 
z
" id="DejaVuSans-49"/>
      </defs>
      <g transform="translate(31.5125 212.107507)scale(0.1 -0.1)">
       <use xlink:href="#DejaVuSans-49"/>
       <use x="63.623047" xlink:href="#DejaVuSans-48"/>
       <use x="127.246094" xlink:href="#DejaVuSans-48"/>
      </g>
     </g>
    </g>
    <g id="ytick_4">
     <g id="line2d_17">
      <path clip-path="url(#p1888e2474a)" d="M 57.6 177.646033 
L 414.72 177.646033 
" style="fill:none;stroke:#b0b0b0;stroke-linecap:square;stroke-width:0.8;"/>
     </g>
     <g id="line2d_18">
      <g>
       <use style="stroke:#000000;stroke-width:0.8;" x="57.6" xlink:href="#mfcf888ea00" y="177.646033"/>
      </g>
     </g>
     <g id="text_10">
      <!-- 150 -->
      <g transform="translate(31.5125 181.445251)scale(0.1 -0.1)">
       <use xlink:href="#DejaVuSans-49"/>
       <use x="63.623047" xlink:href="#DejaVuSans-53"/>
       <use x="127.246094" xlink:href="#DejaVuSans-48"/>
      </g>
     </g>
    </g>
    <g id="ytick_5">
     <g id="line2d_19">
      <path clip-path="url(#p1888e2474a)" d="M 57.6 146.983777 
L 414.72 146.983777 
" style="fill:none;stroke:#b0b0b0;stroke-linecap:square;stroke-width:0.8;"/>
     </g>
     <g id="line2d_20">
      <g>
       <use style="stroke:#000000;stroke-width:0.8;" x="57.6" xlink:href="#mfcf888ea00" y="146.983777"/>
      </g>
     </g>
     <g id="text_11">
      <!-- 200 -->
      <g transform="translate(31.5125 150.782996)scale(0.1 -0.1)">
       <use xlink:href="#DejaVuSans-50"/>
       <use x="63.623047" xlink:href="#DejaVuSans-48"/>
       <use x="127.246094" xlink:href="#DejaVuSans-48"/>
      </g>
     </g>
    </g>
    <g id="ytick_6">
     <g id="line2d_21">
      <path clip-path="url(#p1888e2474a)" d="M 57.6 116.321521 
L 414.72 116.321521 
" style="fill:none;stroke:#b0b0b0;stroke-linecap:square;stroke-width:0.8;"/>
     </g>
     <g id="line2d_22">
      <g>
       <use style="stroke:#000000;stroke-width:0.8;" x="57.6" xlink:href="#mfcf888ea00" y="116.321521"/>
      </g>
     </g>
     <g id="text_12">
      <!-- 250 -->
      <g transform="translate(31.5125 120.12074)scale(0.1 -0.1)">
       <use xlink:href="#DejaVuSans-50"/>
       <use x="63.623047" xlink:href="#DejaVuSans-53"/>
       <use x="127.246094" xlink:href="#DejaVuSans-48"/>
      </g>
     </g>
    </g>
    <g id="ytick_7">
     <g id="line2d_23">
      <path clip-path="url(#p1888e2474a)" d="M 57.6 85.659265 
L 414.72 85.659265 
" style="fill:none;stroke:#b0b0b0;stroke-linecap:square;stroke-width:0.8;"/>
     </g>
     <g id="line2d_24">
      <g>
       <use style="stroke:#000000;stroke-width:0.8;" x="57.6" xlink:href="#mfcf888ea00" y="85.659265"/>
      </g>
     </g>
     <g id="text_13">
      <!-- 300 -->
      <defs>
       <path d="M 40.578125 39.3125 
Q 47.65625 37.796875 51.625 33 
Q 55.609375 28.21875 55.609375 21.1875 
Q 55.609375 10.40625 48.1875 4.484375 
Q 40.765625 -1.421875 27.09375 -1.421875 
Q 22.515625 -1.421875 17.65625 -0.515625 
Q 12.796875 0.390625 7.625 2.203125 
L 7.625 11.71875 
Q 11.71875 9.328125 16.59375 8.109375 
Q 21.484375 6.890625 26.8125 6.890625 
Q 36.078125 6.890625 40.9375 10.546875 
Q 45.796875 14.203125 45.796875 21.1875 
Q 45.796875 27.640625 41.28125 31.265625 
Q 36.765625 34.90625 28.71875 34.90625 
L 20.21875 34.90625 
L 20.21875 43.015625 
L 29.109375 43.015625 
Q 36.375 43.015625 40.234375 45.921875 
Q 44.09375 48.828125 44.09375 54.296875 
Q 44.09375 59.90625 40.109375 62.90625 
Q 36.140625 65.921875 28.71875 65.921875 
Q 24.65625 65.921875 20.015625 65.03125 
Q 15.375 64.15625 9.8125 62.3125 
L 9.8125 71.09375 
Q 15.4375 72.65625 20.34375 73.4375 
Q 25.25 74.21875 29.59375 74.21875 
Q 40.828125 74.21875 47.359375 69.109375 
Q 53.90625 64.015625 53.90625 55.328125 
Q 53.90625 49.265625 50.4375 45.09375 
Q 46.96875 40.921875 40.578125 39.3125 
z
" id="DejaVuSans-51"/>
      </defs>
      <g transform="translate(31.5125 89.458484)scale(0.1 -0.1)">
       <use xlink:href="#DejaVuSans-51"/>
       <use x="63.623047" xlink:href="#DejaVuSans-48"/>
       <use x="127.246094" xlink:href="#DejaVuSans-48"/>
      </g>
     </g>
    </g>
    <g id="ytick_8">
     <g id="line2d_25">
      <path clip-path="url(#p1888e2474a)" d="M 57.6 54.99701 
L 414.72 54.99701 
" style="fill:none;stroke:#b0b0b0;stroke-linecap:square;stroke-width:0.8;"/>
     </g>
     <g id="line2d_26">
      <g>
       <use style="stroke:#000000;stroke-width:0.8;" x="57.6" xlink:href="#mfcf888ea00" y="54.99701"/>
      </g>
     </g>
     <g id="text_14">
      <!-- 350 -->
      <g transform="translate(31.5125 58.796228)scale(0.1 -0.1)">
       <use xlink:href="#DejaVuSans-51"/>
       <use x="63.623047" xlink:href="#DejaVuSans-53"/>
       <use x="127.246094" xlink:href="#DejaVuSans-48"/>
      </g>
     </g>
    </g>
   </g>
   <g id="line2d_27">
    <path clip-path="url(#p1888e2474a)" d="M 73.832727 242.03677 
L 88.131826 242.146389 
L 91.706601 242.27168 
L 92.031581 242.362843 
L 92.35656 242.57103 
L 94.306437 242.273171 
L 101.780966 242.45111 
L 115.755086 242.976369 
L 121.604717 243.313247 
L 121.929697 243.395145 
L 122.254676 243.730178 
L 122.579656 245.956973 
L 122.904636 243.699169 
L 123.229615 243.456491 
L 124.204554 243.420275 
L 130.379165 243.767658 
L 139.153612 244.412127 
L 139.478591 244.486308 
L 139.803571 244.722534 
L 140.12855 247.88189 
L 140.45353 245.11915 
L 140.778509 244.633801 
L 141.428468 244.57203 
L 144.678264 244.798335 
L 153.127731 245.588337 
L 153.452711 245.695822 
L 153.77769 246.174132 
L 154.10267 251.260911 
L 154.427649 246.016593 
L 154.752629 245.790122 
L 155.727568 245.795595 
L 161.577199 246.369057 
L 165.151974 246.845156 
L 165.476953 247.082269 
L 165.801933 250.624321 
L 166.126912 247.695038 
L 166.451892 247.058652 
L 167.101851 247.004833 
L 170.351646 247.348659 
L 175.551319 248.05509 
L 175.876298 248.215216 
L 176.526257 250.452354 
L 176.851237 248.397797 
L 177.176216 248.276546 
L 178.476134 248.371365 
L 184.650745 249.231614 
L 185.300704 249.414708 
L 185.625684 249.798378 
L 185.950663 260.453889 
L 186.275643 249.949199 
L 186.600622 249.610398 
L 187.575561 249.642728 
L 192.450254 250.365882 
L 194.075152 250.707981 
L 194.400131 250.967198 
L 194.725111 254.820666 
L 195.05009 251.67607 
L 195.37507 250.98917 
L 196.025029 250.95848 
L 198.949844 251.404869 
L 202.19964 252.014544 
L 202.524619 252.160283 
L 202.849599 252.781476 
L 203.174578 258.73796 
L 203.499558 252.539474 
L 203.824537 252.341518 
L 204.799476 252.423405 
L 209.349189 253.24821 
L 210.324128 253.53871 
L 210.649107 253.974489 
L 210.974087 265.761258 
L 211.299066 254.086603 
L 211.624046 253.782792 
L 212.598984 253.860135 
L 216.823718 254.683558 
L 217.798657 254.981396 
L 218.123636 255.380035 
L 218.448616 265.974031 
L 218.773595 255.600455 
L 219.098575 255.256628 
L 219.748534 255.286561 
L 222.998329 255.935314 
L 224.948206 256.449047 
L 225.273186 256.772719 
L 225.598165 262.579435 
L 225.923145 257.254778 
L 226.248124 256.774057 
L 226.898084 256.796388 
L 229.822899 257.412678 
L 231.772776 257.921105 
L 232.097756 258.128014 
L 232.422735 259.45509 
L 232.747715 259.88352 
L 233.072695 258.369711 
L 233.722654 258.328991 
L 236.32249 258.897143 
L 238.597346 259.523238 
L 238.922326 259.806591 
L 239.247305 263.290875 
L 239.572285 260.451577 
L 239.897265 259.896965 
L 240.547224 259.929304 
L 243.472039 260.616921 
L 245.096937 261.087617 
L 245.421916 261.308021 
L 245.746896 262.853759 
L 246.071876 262.47011 
L 246.396855 261.522922 
L 247.046814 261.534653 
L 249.97163 262.250993 
L 251.596527 262.748016 
L 251.921507 263.024416 
L 252.246486 266.20214 
L 252.571466 263.510278 
L 252.896446 263.127495 
L 253.546405 263.197159 
L 256.7962 264.038678 
L 258.096118 264.511192 
L 258.746077 266.069868 
L 259.071057 264.819253 
L 259.721016 264.841901 
L 262.970811 265.70489 
L 264.270729 266.14298 
L 264.595708 266.544381 
L 264.920688 268.011772 
L 265.245667 266.495571 
L 265.895627 266.527682 
L 269.470401 267.509873 
L 270.44534 267.831892 
L 270.770319 268.114413 
L 271.095299 268.799 
L 271.420278 268.142364 
L 272.395217 268.335067 
L 277.26991 269.575882 
L 279.219787 268.981956 
L 282.794562 268.042194 
L 283.119541 268.487813 
L 283.444521 268.258204 
L 283.7695 267.760362 
L 284.744439 267.386735 
L 288.319214 266.368777 
L 288.644193 266.323683 
L 288.969173 266.417011 
L 289.294152 267.859328 
L 289.944111 266.052174 
L 290.59407 265.701207 
L 293.193907 264.902177 
L 294.493825 264.585314 
L 294.818804 264.578127 
L 295.143784 264.799764 
L 295.468763 266.933362 
L 296.118722 264.405881 
L 296.768681 263.915406 
L 298.393579 263.368126 
L 300.668436 262.791606 
L 300.993415 262.804446 
L 301.318395 263.042505 
L 301.968354 266.472494 
L 302.293333 263.065881 
L 302.618313 262.423543 
L 303.268272 262.005058 
L 304.89317 261.454611 
L 306.843047 260.978599 
L 307.168026 260.978097 
L 307.493006 261.115773 
L 307.817985 261.809406 
L 308.142965 265.962599 
L 308.792924 261.211547 
L 309.117903 260.580191 
L 309.767862 260.12276 
L 311.067781 259.650467 
L 313.017658 259.150034 
L 313.667617 259.147015 
L 313.992596 259.336089 
L 314.317576 260.085844 
L 314.642555 263.647381 
L 314.967535 264.901852 
L 315.292514 260.156347 
L 315.617494 259.001307 
L 315.942473 258.559353 
L 316.592432 258.141825 
L 317.892351 257.670237 
L 319.517248 257.264764 
L 320.167207 257.232553 
L 320.492187 257.331762 
L 320.817166 257.672018 
L 321.142146 258.809469 
L 321.467125 263.298479 
L 321.792105 264.553888 
L 322.117084 258.982796 
L 322.442064 257.398751 
L 322.767043 256.787035 
L 323.417002 256.249712 
L 324.391941 255.833545 
L 326.016839 255.378592 
L 326.991777 255.275767 
L 327.316757 255.337444 
L 327.641736 255.537213 
L 327.966716 256.077139 
L 328.291695 257.640276 
L 328.616675 262.666204 
L 328.941654 264.774641 
L 329.266634 258.267004 
L 329.591613 256.007327 
L 329.916593 255.107144 
L 330.566552 254.360244 
L 331.541491 253.858376 
L 333.166388 253.37512 
L 334.141327 253.2477 
L 334.791286 253.368195 
L 335.116265 253.608723 
L 335.441245 254.159497 
L 335.766224 255.481083 
L 336.091204 258.920109 
L 336.416183 265.909521 
L 337.066143 256.106751 
L 337.391122 254.131596 
L 337.716102 253.200097 
L 338.366061 252.345401 
L 339.01602 251.920164 
L 340.315938 251.42255 
L 341.615856 251.147102 
L 342.265815 251.131876 
L 342.915774 251.330755 
L 343.240753 251.614317 
L 343.565733 252.169683 
L 343.890713 253.286088 
L 344.215692 255.633855 
L 344.865651 264.610837 
L 345.51561 254.926092 
L 345.84059 252.734184 
L 346.165569 251.561995 
L 346.815528 250.414957 
L 347.465487 249.850701 
L 348.440426 249.360004 
L 349.740344 248.975653 
L 350.715283 248.849856 
L 351.365242 248.898238 
L 352.015201 249.173368 
L 352.34018 249.47755 
L 352.66516 249.987622 
L 352.990139 250.847997 
L 353.315119 252.320679 
L 353.640098 254.832095 
L 354.290057 262.171624 
L 354.615037 260.160847 
L 355.264996 252.990308 
L 355.589975 251.073756 
L 356.239934 249.042285 
L 356.889894 248.054525 
L 357.539853 247.47674 
L 358.514791 246.940135 
L 359.814709 246.519459 
L 361.114627 246.346157 
L 362.089566 246.454651 
L 362.739525 246.743229 
L 363.389484 247.361895 
L 363.714464 247.877326 
L 364.039443 248.602753 
L 364.364423 249.616914 
L 365.014382 252.859985 
L 365.664341 257.242689 
L 365.98932 258.314216 
L 366.3143 257.557629 
L 367.614218 249.925582 
L 368.264177 247.800155 
L 368.914136 246.490106 
L 369.564095 245.632323 
L 370.539034 244.79788 
L 371.513972 244.257068 
L 372.81389 243.790541 
L 374.113808 243.526409 
L 375.413726 243.453242 
L 376.713645 243.61604 
L 377.688583 243.948242 
L 378.663522 244.52103 
L 379.63846 245.387943 
L 380.613399 246.558152 
L 382.563276 249.1516 
L 383.213235 249.697722 
L 383.863194 249.913797 
L 384.513153 249.791117 
L 385.163112 249.393871 
L 386.138051 248.497148 
L 388.737887 245.970806 
L 389.712826 245.225559 
L 390.037805 243.644937 
L 398.487273 242.03677 
L 398.487273 242.03677 
" style="fill:none;stroke:#1f77b4;stroke-linecap:square;stroke-width:1.5;"/>
   </g>
   <g id="line2d_28">
    <path clip-path="url(#p1888e2474a)" d="M 73.832727 159.248679 
L 90.406683 159.356782 
L 91.706601 159.527193 
L 92.031581 159.61391 
L 92.35656 159.460769 
L 92.68154 158.890956 
L 93.331499 158.955694 
L 94.631417 159.103258 
L 98.531171 159.18391 
L 119.329861 159.437198 
L 120.954758 159.671019 
L 121.604717 159.972459 
L 121.929697 160.332336 
L 122.254676 161.224618 
L 122.579656 158.567577 
L 122.904636 157.372864 
L 123.229615 158.172126 
L 123.879574 158.681373 
L 124.854513 158.920324 
L 126.80439 159.082186 
L 138.178673 159.702516 
L 138.828632 159.948959 
L 139.153612 160.181505 
L 139.478591 160.612574 
L 139.803571 161.668868 
L 140.12855 163.972594 
L 140.45353 155.801694 
L 140.778509 157.535683 
L 141.103489 158.128669 
L 141.753448 158.596178 
L 142.728387 158.862759 
L 144.678264 159.077579 
L 151.502834 159.653109 
L 152.477772 159.977654 
L 152.802752 160.188746 
L 153.127731 160.538867 
L 153.452711 161.240169 
L 153.77769 163.305106 
L 154.10267 153.038209 
L 154.427649 155.967541 
L 154.752629 157.446228 
L 155.077609 158.019354 
L 155.727568 158.514769 
L 156.702506 158.822763 
L 158.652383 159.099619 
L 163.202097 159.669418 
L 164.177035 160.018002 
L 164.826994 160.565398 
L 165.151974 161.177654 
L 165.476953 162.677946 
L 165.801933 169.199957 
L 166.126912 153.56939 
L 166.451892 156.664112 
L 166.776871 157.60513 
L 167.42683 158.327383 
L 168.401769 158.744642 
L 170.026667 159.068711 
L 173.601441 159.671426 
L 174.57638 160.047095 
L 175.226339 160.593354 
L 175.551319 161.157698 
L 175.876298 162.3831 
L 176.201278 166.948784 
L 176.526257 149.059378 
L 176.851237 155.633124 
L 177.176216 157.124224 
L 177.501196 157.766658 
L 178.151155 158.366539 
L 179.126093 158.775238 
L 181.075971 159.209739 
L 183.350827 159.751398 
L 184.000786 160.039241 
L 184.650745 160.561886 
L 184.975725 161.056222 
L 185.300704 162.005293 
L 185.625684 164.635433 
L 185.950663 164.662869 
L 186.275643 153.500013 
L 186.600622 156.350458 
L 186.925602 157.346436 
L 187.575561 158.178843 
L 188.22552 158.570166 
L 189.525438 159.009537 
L 192.450254 159.878254 
L 193.100213 160.274109 
L 193.425192 160.587504 
L 193.750172 161.071866 
L 194.075152 161.948688 
L 194.400131 164.094249 
L 194.725111 175.372801 
L 195.05009 150.898613 
L 195.37507 155.581647 
L 195.700049 156.952217 
L 196.025029 157.612763 
L 196.674988 158.282824 
L 197.649926 158.786981 
L 201.224701 160.207297 
L 201.87466 160.9143 
L 202.19964 161.599258 
L 202.524619 162.979791 
L 202.849599 167.359577 
L 203.174578 138.33452 
L 203.499558 153.419878 
L 203.824537 156.08499 
L 204.149517 157.12769 
L 204.799476 158.063322 
L 205.449435 158.534746 
L 206.749353 159.116562 
L 208.374251 159.80196 
L 209.02421 160.222304 
L 209.674169 160.95584 
L 209.999148 161.639383 
L 210.324128 162.951209 
L 210.649107 166.661915 
L 210.974087 156.48672 
L 211.299066 151.858033 
L 211.624046 155.503179 
L 211.949025 156.804474 
L 212.598984 157.921126 
L 213.248943 158.471 
L 214.548862 159.152469 
L 216.173759 160.007747 
L 216.823718 160.592777 
L 217.148698 161.055502 
L 217.473677 161.782346 
L 217.798657 163.154679 
L 218.123636 166.911016 
L 218.448616 179.425848 
L 218.773595 150.807798 
L 219.098575 155.077339 
L 219.423554 156.556211 
L 220.073514 157.810919 
L 220.723473 158.429017 
L 222.023391 159.210945 
L 223.323309 160.002499 
L 223.973268 160.627677 
L 224.298247 161.110379 
L 224.623227 161.852255 
L 224.948206 163.206958 
L 225.273186 166.661083 
L 225.598165 187.697496 
L 225.923145 148.812071 
L 226.248124 154.417144 
L 226.573104 156.201556 
L 226.898084 157.099626 
L 227.548043 158.056002 
L 228.522981 158.846918 
L 230.472858 160.212988 
L 231.122817 161.029038 
L 231.447797 161.710541 
L 231.772776 162.863304 
L 232.097756 165.380234 
L 232.422735 175.570307 
L 232.747715 141.006561 
L 233.072695 152.747005 
L 233.397674 155.444185 
L 233.722654 156.652703 
L 234.372613 157.847746 
L 235.022572 158.517287 
L 237.297428 160.354834 
L 237.947387 161.325278 
L 238.272367 162.167171 
L 238.597346 163.667414 
L 238.922326 167.323533 
L 239.247305 187.66455 
L 239.572285 145.961711 
L 239.897265 153.369904 
L 240.222244 155.607614 
L 240.547224 156.714231 
L 241.197183 157.886626 
L 242.172121 158.870858 
L 243.797019 160.33629 
L 244.446978 161.335401 
L 244.771957 162.170597 
L 245.096937 163.59707 
L 245.421916 166.792387 
L 245.746896 180.723568 
L 246.071876 140.902973 
L 246.396855 152.127117 
L 246.721835 155.00724 
L 247.046814 156.348517 
L 247.696773 157.716427 
L 248.671712 158.833472 
L 250.296609 160.494813 
L 250.946568 161.66373 
L 251.271548 162.675216 
L 251.596527 164.485191 
L 251.921507 168.957084 
L 252.246486 194.08656 
L 252.571466 144.747494 
L 252.896446 152.61736 
L 253.221425 155.117581 
L 253.546405 156.379772 
L 254.196364 157.743663 
L 255.171302 158.928741 
L 256.47122 160.375944 
L 257.121179 161.505316 
L 257.446159 162.414897 
L 257.771138 163.909897 
L 258.096118 167.032165 
L 258.421097 178.163379 
L 258.746077 131.886782 
L 259.071057 149.946529 
L 259.396036 153.934494 
L 259.721016 155.685027 
L 260.370975 157.40909 
L 261.020934 158.392277 
L 262.970811 160.889508 
L 263.29579 161.551972 
L 263.62077 162.479138 
L 263.945749 163.96034 
L 264.270729 166.900065 
L 264.595708 176.082645 
L 264.920688 121.997789 
L 265.245667 148.024431 
L 265.570647 153.092895 
L 265.895627 155.187444 
L 266.545586 157.175253 
L 267.195545 158.279247 
L 269.145422 161.030387 
L 269.470401 161.757326 
L 269.795381 162.776183 
L 270.12036 164.408816 
L 270.44534 167.667652 
L 270.770319 177.927635 
L 271.095299 122.519084 
L 271.420278 147.450129 
L 271.745258 152.697253 
L 272.070238 154.911553 
L 272.720197 157.038844 
L 273.370156 158.233039 
L 275.320033 161.272013 
L 275.645012 162.095467 
L 275.969992 163.266116 
L 276.294971 165.183192 
L 276.619951 169.159963 
L 276.94493 182.725457 
L 277.26991 238.623429 
L 277.594889 258.116426 
L 277.919869 262.977494 
L 278.244848 265.163769 
L 278.894808 267.34856 
L 279.544767 268.613831 
L 280.194726 269.623175 
L 280.519705 49.351206 
L 281.169664 50.478258 
L 281.819623 52.143479 
L 282.144603 53.50988 
L 282.469582 55.811936 
L 282.794562 60.83203 
L 283.119541 79.474205 
L 283.444521 243.372092 
L 283.7695 258.458874 
L 284.09448 262.910908 
L 284.419459 265.049387 
L 285.069419 267.279595 
L 285.719378 268.615008 
L 286.044357 269.169656 
L 286.369337 48.934304 
L 287.344275 50.720067 
L 287.994234 52.592167 
L 288.319214 54.155335 
L 288.644193 56.83872 
L 288.969173 62.869249 
L 289.294152 85.445831 
L 289.619132 245.04391 
L 289.944111 258.276273 
L 290.269091 262.628108 
L 290.59407 264.806986 
L 291.244029 267.140645 
L 291.893989 268.565042 
L 292.218968 269.161301 
L 292.543948 48.967762 
L 293.518886 50.899531 
L 294.168845 52.920776 
L 294.493825 54.597707 
L 294.818804 57.444905 
L 295.143784 63.669028 
L 295.468763 84.705899 
L 295.793743 242.565286 
L 296.118722 256.968972 
L 296.443702 261.822673 
L 296.768681 264.247351 
L 297.41864 266.827328 
L 298.0686 268.385201 
L 298.393579 269.031107 
L 298.718559 48.8808 
L 299.693497 50.914715 
L 300.343456 52.955765 
L 300.668436 54.576132 
L 300.993415 57.180349 
L 301.318395 62.314458 
L 301.643374 76.561111 
L 301.968354 232.316017 
L 302.293333 253.068529 
L 302.618313 259.864926 
L 302.943292 263.017778 
L 303.593251 266.166973 
L 304.24321 267.956666 
L 304.89317 269.339789 
L 305.218149 49.229598 
L 306.193088 51.511898 
L 306.843047 53.954827 
L 307.168026 55.988871 
L 307.493006 59.415668 
L 307.817985 66.624527 
L 308.142965 85.795586 
L 308.467944 240.419001 
L 308.792924 254.605924 
L 309.117903 260.136039 
L 309.442883 262.996431 
L 310.092842 266.070885 
L 310.742801 267.911223 
L 311.39276 269.366993 
L 311.71774 49.296659 
L 312.692678 51.710987 
L 313.342637 54.236042 
L 313.667617 56.269131 
L 313.992596 59.540241 
L 314.317576 65.836365 
L 314.642555 80.469044 
L 314.967535 234.972047 
L 315.292514 250.928405 
L 315.617494 257.986642 
L 315.942473 261.547134 
L 316.592432 265.230333 
L 317.242391 267.33383 
L 317.892351 268.924263 
L 318.21733 48.890545 
L 319.192269 51.270179 
L 319.842228 53.480799 
L 320.167207 55.069893 
L 320.492187 57.327975 
L 320.817166 60.918186 
L 321.142146 67.552629 
L 321.467125 80.482476 
L 321.792105 236.470263 
L 322.117084 249.356042 
L 322.442064 256.594905 
L 322.767043 260.444226 
L 323.417002 264.500045 
L 324.066962 266.809928 
L 325.0419 269.29628 
L 325.36688 49.292305 
L 326.341818 51.855763 
L 326.991777 54.289924 
L 327.316757 56.03901 
L 327.641736 58.49792 
L 327.966716 62.29969 
L 328.291695 68.839219 
L 328.616675 78.841706 
L 328.941654 239.857637 
L 329.591613 254.668523 
L 329.916593 258.89119 
L 330.566552 263.448409 
L 331.216511 266.029134 
L 332.19145 268.712254 
L 332.516429 269.501575 
L 332.841409 49.521999 
L 333.816347 52.176515 
L 334.466306 54.6288 
L 335.116265 58.57575 
L 335.441245 61.801913 
L 335.766224 66.722009 
L 336.091204 73.886022 
L 336.416183 62.95089 
L 336.741163 242.818879 
L 337.391122 255.027488 
L 338.041081 261.076537 
L 338.69104 264.328721 
L 339.340999 266.524404 
L 340.315938 269.083217 
L 340.640917 49.108117 
L 341.615856 51.641315 
L 342.265815 53.745182 
L 342.915774 56.654421 
L 343.565733 61.337482 
L 344.540672 72.659814 
L 344.865651 264.392111 
L 345.190631 245.964387 
L 346.165569 257.285769 
L 346.815528 261.586823 
L 347.465487 264.34319 
L 348.440426 267.263608 
L 349.090385 268.878696 
L 349.415364 48.887041 
L 350.715283 52.181906 
L 351.365242 54.218413 
L 352.015201 56.845459 
L 352.66516 60.532146 
L 353.640098 68.563166 
L 353.965078 68.203964 
L 354.290057 53.552608 
L 354.615037 253.366552 
L 354.940016 249.769726 
L 355.264996 251.674082 
L 356.239934 258.673122 
L 356.889894 261.759736 
L 357.864832 265.016009 
L 359.16475 268.224175 
L 359.48973 268.944411 
L 359.814709 48.886601 
L 361.439607 52.609757 
L 362.414545 55.330416 
L 363.389484 58.810963 
L 364.689402 64.349569 
L 365.014382 64.893243 
L 365.339361 63.712773 
L 365.664341 59.130301 
L 365.98932 50.376233 
L 366.3143 261.939859 
L 366.639279 256.529711 
L 366.964259 254.606531 
L 367.289238 254.548659 
L 367.614218 255.313269 
L 369.889075 262.488071 
L 371.188993 265.375962 
L 372.81389 268.297118 
L 373.463849 269.361663 
L 373.788829 49.114769 
L 378.988501 57.196387 
L 379.96344 58.222046 
L 380.613399 58.515507 
L 380.938378 58.491803 
L 381.263358 58.329959 
L 381.588337 58.014172 
L 382.238296 56.884195 
L 382.888256 55.116539 
L 384.513153 49.414036 
L 384.838133 269.138261 
L 385.488092 267.367901 
L 386.138051 266.060957 
L 386.78801 265.182577 
L 387.437969 264.654862 
L 388.087928 264.394631 
L 388.737887 264.330237 
L 389.712826 264.482741 
L 390.037805 269.6328 
L 398.487273 269.6328 
L 398.487273 269.6328 
" style="fill:none;stroke:#ff7f0e;stroke-linecap:square;stroke-width:1.5;"/>
   </g>
   <g id="patch_3">
    <path d="M 57.6 280.6704 
L 57.6 37.8432 
" style="fill:none;stroke:#000000;stroke-linecap:square;stroke-linejoin:miter;stroke-width:0.8;"/>
   </g>
   <g id="patch_4">
    <path d="M 414.72 280.6704 
L 414.72 37.8432 
" style="fill:none;stroke:#000000;stroke-linecap:square;stroke-linejoin:miter;stroke-width:0.8;"/>
   </g>
   <g id="patch_5">
    <path d="M 57.6 280.6704 
L 414.72 280.6704 
" style="fill:none;stroke:#000000;stroke-linecap:square;stroke-linejoin:miter;stroke-width:0.8;"/>
   </g>
   <g id="patch_6">
    <path d="M 57.6 37.8432 
L 414.72 37.8432 
" style="fill:none;stroke:#000000;stroke-linecap:square;stroke-linejoin:miter;stroke-width:0.8;"/>
   </g>
   <g id="text_15">
    <!-- Grandezze ellissometriche -->
    <defs>
     <path d="M 59.515625 10.40625 
L 59.515625 29.984375 
L 43.40625 29.984375 
L 43.40625 38.09375 
L 69.28125 38.09375 
L 69.28125 6.78125 
Q 63.578125 2.734375 56.6875 0.65625 
Q 49.8125 -1.421875 42 -1.421875 
Q 24.90625 -1.421875 15.25 8.5625 
Q 5.609375 18.5625 5.609375 36.375 
Q 5.609375 54.25 15.25 64.234375 
Q 24.90625 74.21875 42 74.21875 
Q 49.125 74.21875 55.546875 72.453125 
Q 61.96875 70.703125 67.390625 67.28125 
L 67.390625 56.78125 
Q 61.921875 61.421875 55.765625 63.765625 
Q 49.609375 66.109375 42.828125 66.109375 
Q 29.4375 66.109375 22.71875 58.640625 
Q 16.015625 51.171875 16.015625 36.375 
Q 16.015625 21.625 22.71875 14.15625 
Q 29.4375 6.6875 42.828125 6.6875 
Q 48.046875 6.6875 52.140625 7.59375 
Q 56.25 8.5 59.515625 10.40625 
z
" id="DejaVuSans-71"/>
     <path d="M 41.109375 46.296875 
Q 39.59375 47.171875 37.8125 47.578125 
Q 36.03125 48 33.890625 48 
Q 26.265625 48 22.1875 43.046875 
Q 18.109375 38.09375 18.109375 28.8125 
L 18.109375 0 
L 9.078125 0 
L 9.078125 54.6875 
L 18.109375 54.6875 
L 18.109375 46.1875 
Q 20.953125 51.171875 25.484375 53.578125 
Q 30.03125 56 36.53125 56 
Q 37.453125 56 38.578125 55.875 
Q 39.703125 55.765625 41.0625 55.515625 
z
" id="DejaVuSans-114"/>
     <path d="M 34.28125 27.484375 
Q 23.390625 27.484375 19.1875 25 
Q 14.984375 22.515625 14.984375 16.5 
Q 14.984375 11.71875 18.140625 8.90625 
Q 21.296875 6.109375 26.703125 6.109375 
Q 34.1875 6.109375 38.703125 11.40625 
Q 43.21875 16.703125 43.21875 25.484375 
L 43.21875 27.484375 
z
M 52.203125 31.203125 
L 52.203125 0 
L 43.21875 0 
L 43.21875 8.296875 
Q 40.140625 3.328125 35.546875 0.953125 
Q 30.953125 -1.421875 24.3125 -1.421875 
Q 15.921875 -1.421875 10.953125 3.296875 
Q 6 8.015625 6 15.921875 
Q 6 25.140625 12.171875 29.828125 
Q 18.359375 34.515625 30.609375 34.515625 
L 43.21875 34.515625 
L 43.21875 35.40625 
Q 43.21875 41.609375 39.140625 45 
Q 35.0625 48.390625 27.6875 48.390625 
Q 23 48.390625 18.546875 47.265625 
Q 14.109375 46.140625 10.015625 43.890625 
L 10.015625 52.203125 
Q 14.9375 54.109375 19.578125 55.046875 
Q 24.21875 56 28.609375 56 
Q 40.484375 56 46.34375 49.84375 
Q 52.203125 43.703125 52.203125 31.203125 
z
" id="DejaVuSans-97"/>
     <path d="M 5.515625 54.6875 
L 48.1875 54.6875 
L 48.1875 46.484375 
L 14.40625 7.171875 
L 48.1875 7.171875 
L 48.1875 0 
L 4.296875 0 
L 4.296875 8.203125 
L 38.09375 47.515625 
L 5.515625 47.515625 
z
" id="DejaVuSans-122"/>
     <path d="M 44.28125 53.078125 
L 44.28125 44.578125 
Q 40.484375 46.53125 36.375 47.5 
Q 32.28125 48.484375 27.875 48.484375 
Q 21.1875 48.484375 17.84375 46.4375 
Q 14.5 44.390625 14.5 40.28125 
Q 14.5 37.15625 16.890625 35.375 
Q 19.28125 33.59375 26.515625 31.984375 
L 29.59375 31.296875 
Q 39.15625 29.25 43.1875 25.515625 
Q 47.21875 21.78125 47.21875 15.09375 
Q 47.21875 7.46875 41.1875 3.015625 
Q 35.15625 -1.421875 24.609375 -1.421875 
Q 20.21875 -1.421875 15.453125 -0.5625 
Q 10.6875 0.296875 5.421875 2 
L 5.421875 11.28125 
Q 10.40625 8.6875 15.234375 7.390625 
Q 20.0625 6.109375 24.8125 6.109375 
Q 31.15625 6.109375 34.5625 8.28125 
Q 37.984375 10.453125 37.984375 14.40625 
Q 37.984375 18.0625 35.515625 20.015625 
Q 33.0625 21.96875 24.703125 23.78125 
L 21.578125 24.515625 
Q 13.234375 26.265625 9.515625 29.90625 
Q 5.8125 33.546875 5.8125 39.890625 
Q 5.8125 47.609375 11.28125 51.796875 
Q 16.75 56 26.8125 56 
Q 31.78125 56 36.171875 55.265625 
Q 40.578125 54.546875 44.28125 53.078125 
z
" id="DejaVuSans-115"/>
     <path d="M 52 44.1875 
Q 55.375 50.25 60.0625 53.125 
Q 64.75 56 71.09375 56 
Q 79.640625 56 84.28125 50.015625 
Q 88.921875 44.046875 88.921875 33.015625 
L 88.921875 0 
L 79.890625 0 
L 79.890625 32.71875 
Q 79.890625 40.578125 77.09375 44.375 
Q 74.3125 48.1875 68.609375 48.1875 
Q 61.625 48.1875 57.5625 43.546875 
Q 53.515625 38.921875 53.515625 30.90625 
L 53.515625 0 
L 44.484375 0 
L 44.484375 32.71875 
Q 44.484375 40.625 41.703125 44.40625 
Q 38.921875 48.1875 33.109375 48.1875 
Q 26.21875 48.1875 22.15625 43.53125 
Q 18.109375 38.875 18.109375 30.90625 
L 18.109375 0 
L 9.078125 0 
L 9.078125 54.6875 
L 18.109375 54.6875 
L 18.109375 46.1875 
Q 21.1875 51.21875 25.484375 53.609375 
Q 29.78125 56 35.6875 56 
Q 41.65625 56 45.828125 52.96875 
Q 50 49.953125 52 44.1875 
z
" id="DejaVuSans-109"/>
     <path d="M 54.890625 33.015625 
L 54.890625 0 
L 45.90625 0 
L 45.90625 32.71875 
Q 45.90625 40.484375 42.875 44.328125 
Q 39.84375 48.1875 33.796875 48.1875 
Q 26.515625 48.1875 22.3125 43.546875 
Q 18.109375 38.921875 18.109375 30.90625 
L 18.109375 0 
L 9.078125 0 
L 9.078125 75.984375 
L 18.109375 75.984375 
L 18.109375 46.1875 
Q 21.34375 51.125 25.703125 53.5625 
Q 30.078125 56 35.796875 56 
Q 45.21875 56 50.046875 50.171875 
Q 54.890625 44.34375 54.890625 33.015625 
z
" id="DejaVuSans-104"/>
    </defs>
    <g transform="translate(156.736875 31.8432)scale(0.12 -0.12)">
     <use xlink:href="#DejaVuSans-71"/>
     <use x="77.490234" xlink:href="#DejaVuSans-114"/>
     <use x="118.603516" xlink:href="#DejaVuSans-97"/>
     <use x="179.882812" xlink:href="#DejaVuSans-110"/>
     <use x="243.261719" xlink:href="#DejaVuSans-100"/>
     <use x="306.738281" xlink:href="#DejaVuSans-101"/>
     <use x="368.261719" xlink:href="#DejaVuSans-122"/>
     <use x="420.751953" xlink:href="#DejaVuSans-122"/>
     <use x="473.242188" xlink:href="#DejaVuSans-101"/>
     <use x="534.765625" xlink:href="#DejaVuSans-32"/>
     <use x="566.552734" xlink:href="#DejaVuSans-101"/>
     <use x="628.076172" xlink:href="#DejaVuSans-108"/>
     <use x="655.859375" xlink:href="#DejaVuSans-108"/>
     <use x="683.642578" xlink:href="#DejaVuSans-105"/>
     <use x="711.425781" xlink:href="#DejaVuSans-115"/>
     <use x="763.525391" xlink:href="#DejaVuSans-115"/>
     <use x="815.625" xlink:href="#DejaVuSans-111"/>
     <use x="876.806641" xlink:href="#DejaVuSans-109"/>
     <use x="974.21875" xlink:href="#DejaVuSans-101"/>
     <use x="1035.742188" xlink:href="#DejaVuSans-116"/>
     <use x="1074.951172" xlink:href="#DejaVuSans-114"/>
     <use x="1116.064453" xlink:href="#DejaVuSans-105"/>
     <use x="1143.847656" xlink:href="#DejaVuSans-99"/>
     <use x="1198.828125" xlink:href="#DejaVuSans-104"/>
     <use x="1262.207031" xlink:href="#DejaVuSans-101"/>
    </g>
   </g>
   <g id="legend_1">
    <g id="patch_7">
     <path d="M 64.6 75.19945 
L 104.5 75.19945 
Q 106.5 75.19945 106.5 73.19945 
L 106.5 44.8432 
Q 106.5 42.8432 104.5 42.8432 
L 64.6 42.8432 
Q 62.6 42.8432 62.6 44.8432 
L 62.6 73.19945 
Q 62.6 75.19945 64.6 75.19945 
z
" style="fill:#ffffff;opacity:0.8;stroke:#cccccc;stroke-linejoin:miter;"/>
    </g>
    <g id="line2d_29">
     <path d="M 66.6 50.941638 
L 86.6 50.941638 
" style="fill:none;stroke:#1f77b4;stroke-linecap:square;stroke-width:1.5;"/>
    </g>
    <g id="line2d_30"/>
    <g id="text_16">
     <!-- $\Psi$ -->
     <defs>
      <path d="M 34.46875 0 
Q 34.515625 6.546875 34.46875 15.140625 
Q 24.03125 15.140625 14.84375 25.390625 
Q 5.859375 35.359375 5.609375 52.9375 
L 5.609375 72.90625 
L 16.015625 72.90625 
L 16.015625 52.9375 
Q 16.015625 39.15625 22.359375 31.15625 
Q 27.734375 24.3125 34.46875 23.640625 
L 34.46875 72.90625 
L 44.34375 72.90625 
L 44.34375 23.640625 
Q 51.078125 24.3125 56.453125 31.15625 
Q 62.796875 39.15625 62.796875 52.9375 
L 62.796875 72.90625 
L 73.1875 72.90625 
L 73.1875 52.9375 
Q 72.953125 35.359375 63.96875 25.390625 
Q 54.78125 15.140625 44.34375 15.140625 
Q 44.28125 11.625 44.34375 0 
z
" id="DejaVuSans-936"/>
     </defs>
     <g transform="translate(94.6 54.441638)scale(0.1 -0.1)">
      <use transform="translate(0 0.09375)" xlink:href="#DejaVuSans-936"/>
     </g>
    </g>
    <g id="line2d_31">
     <path d="M 66.6 65.619763 
L 86.6 65.619763 
" style="fill:none;stroke:#ff7f0e;stroke-linecap:square;stroke-width:1.5;"/>
    </g>
    <g id="line2d_32"/>
    <g id="text_17">
     <!-- $\Delta$ -->
     <defs>
      <path d="M 34.1875 63.1875 
L 14.15625 8.203125 
L 54.25 8.203125 
z
M 0.78125 0 
L 28.609375 72.90625 
L 39.796875 72.90625 
L 67.578125 0 
z
" id="DejaVuSans-916"/>
     </defs>
     <g transform="translate(94.6 69.119763)scale(0.1 -0.1)">
      <use transform="translate(0 0.09375)" xlink:href="#DejaVuSans-916"/>
     </g>
    </g>
   </g>
  </g>
 </g>
 <defs>
  <clipPath id="p1888e2474a">
   <rect height="242.8272" width="357.12" x="57.6" y="37.8432"/>
  </clipPath>
 </defs>
</svg>
