<?xml version="1.0" encoding="utf-8" standalone="no"?>
<!DOCTYPE svg PUBLIC "-//W3C//DTD SVG 1.1//EN"
  "http://www.w3.org/Graphics/SVG/1.1/DTD/svg11.dtd">
<!-- Created with matplotlib (https://matplotlib.org/) -->
<svg height="315.36pt" version="1.1" viewBox="0 0 460.8 315.36" width="460.8pt" xmlns="http://www.w3.org/2000/svg" xmlns:xlink="http://www.w3.org/1999/xlink">
 <defs>
  <style type="text/css">
*{stroke-linecap:butt;stroke-linejoin:round;}
  </style>
 </defs>
 <g id="figure_1">
  <g id="patch_1">
   <path d="M 0 315.36 
L 460.8 315.36 
L 460.8 0 
L 0 0 
z
" style="fill:#ffffff;"/>
  </g>
  <g id="axes_1">
   <g id="patch_2">
    <path d="M 57.6 280.6704 
L 414.72 280.6704 
L 414.72 37.8432 
L 57.6 37.8432 
z
" style="fill:#ffffff;"/>
   </g>
   <g id="matplotlib.axis_1">
    <g id="xtick_1">
     <g id="line2d_1">
      <path clip-path="url(#p2c60a63e44)" d="M 73.832727 280.6704 
L 73.832727 37.8432 
" style="fill:none;stroke:#b0b0b0;stroke-linecap:square;stroke-width:0.8;"/>
     </g>
     <g id="line2d_2">
      <defs>
       <path d="M 0 0 
L 0 3.5 
" id="m8e5df3253d" style="stroke:#000000;stroke-width:0.8;"/>
      </defs>
      <g>
       <use style="stroke:#000000;stroke-width:0.8;" x="73.832727" xlink:href="#m8e5df3253d" y="280.6704"/>
      </g>
     </g>
     <g id="text_1">
      <!-- 0 -->
      <defs>
       <path d="M 31.78125 66.40625 
Q 24.171875 66.40625 20.328125 58.90625 
Q 16.5 51.421875 16.5 36.375 
Q 16.5 21.390625 20.328125 13.890625 
Q 24.171875 6.390625 31.78125 6.390625 
Q 39.453125 6.390625 43.28125 13.890625 
Q 47.125 21.390625 47.125 36.375 
Q 47.125 51.421875 43.28125 58.90625 
Q 39.453125 66.40625 31.78125 66.40625 
z
M 31.78125 74.21875 
Q 44.046875 74.21875 50.515625 64.515625 
Q 56.984375 54.828125 56.984375 36.375 
Q 56.984375 17.96875 50.515625 8.265625 
Q 44.046875 -1.421875 31.78125 -1.421875 
Q 19.53125 -1.421875 13.0625 8.265625 
Q 6.59375 17.96875 6.59375 36.375 
Q 6.59375 54.828125 13.0625 64.515625 
Q 19.53125 74.21875 31.78125 74.21875 
z
" id="DejaVuSans-48"/>
      </defs>
      <g transform="translate(70.651477 295.268838)scale(0.1 -0.1)">
       <use xlink:href="#DejaVuSans-48"/>
      </g>
     </g>
    </g>
    <g id="xtick_2">
     <g id="line2d_3">
      <path clip-path="url(#p2c60a63e44)" d="M 145.978182 280.6704 
L 145.978182 37.8432 
" style="fill:none;stroke:#b0b0b0;stroke-linecap:square;stroke-width:0.8;"/>
     </g>
     <g id="line2d_4">
      <g>
       <use style="stroke:#000000;stroke-width:0.8;" x="145.978182" xlink:href="#m8e5df3253d" y="280.6704"/>
      </g>
     </g>
     <g id="text_2">
      <!-- 20 -->
      <defs>
       <path d="M 19.1875 8.296875 
L 53.609375 8.296875 
L 53.609375 0 
L 7.328125 0 
L 7.328125 8.296875 
Q 12.9375 14.109375 22.625 23.890625 
Q 32.328125 33.6875 34.8125 36.53125 
Q 39.546875 41.84375 41.421875 45.53125 
Q 43.3125 49.21875 43.3125 52.78125 
Q 43.3125 58.59375 39.234375 62.25 
Q 35.15625 65.921875 28.609375 65.921875 
Q 23.96875 65.921875 18.8125 64.3125 
Q 13.671875 62.703125 7.8125 59.421875 
L 7.8125 69.390625 
Q 13.765625 71.78125 18.9375 73 
Q 24.125 74.21875 28.421875 74.21875 
Q 39.75 74.21875 46.484375 68.546875 
Q 53.21875 62.890625 53.21875 53.421875 
Q 53.21875 48.921875 51.53125 44.890625 
Q 49.859375 40.875 45.40625 35.40625 
Q 44.1875 33.984375 37.640625 27.21875 
Q 31.109375 20.453125 19.1875 8.296875 
z
" id="DejaVuSans-50"/>
      </defs>
      <g transform="translate(139.615682 295.268838)scale(0.1 -0.1)">
       <use xlink:href="#DejaVuSans-50"/>
       <use x="63.623047" xlink:href="#DejaVuSans-48"/>
      </g>
     </g>
    </g>
    <g id="xtick_3">
     <g id="line2d_5">
      <path clip-path="url(#p2c60a63e44)" d="M 218.123636 280.6704 
L 218.123636 37.8432 
" style="fill:none;stroke:#b0b0b0;stroke-linecap:square;stroke-width:0.8;"/>
     </g>
     <g id="line2d_6">
      <g>
       <use style="stroke:#000000;stroke-width:0.8;" x="218.123636" xlink:href="#m8e5df3253d" y="280.6704"/>
      </g>
     </g>
     <g id="text_3">
      <!-- 40 -->
      <defs>
       <path d="M 37.796875 64.3125 
L 12.890625 25.390625 
L 37.796875 25.390625 
z
M 35.203125 72.90625 
L 47.609375 72.90625 
L 47.609375 25.390625 
L 58.015625 25.390625 
L 58.015625 17.1875 
L 47.609375 17.1875 
L 47.609375 0 
L 37.796875 0 
L 37.796875 17.1875 
L 4.890625 17.1875 
L 4.890625 26.703125 
z
" id="DejaVuSans-52"/>
      </defs>
      <g transform="translate(211.761136 295.268838)scale(0.1 -0.1)">
       <use xlink:href="#DejaVuSans-52"/>
       <use x="63.623047" xlink:href="#DejaVuSans-48"/>
      </g>
     </g>
    </g>
    <g id="xtick_4">
     <g id="line2d_7">
      <path clip-path="url(#p2c60a63e44)" d="M 290.269091 280.6704 
L 290.269091 37.8432 
" style="fill:none;stroke:#b0b0b0;stroke-linecap:square;stroke-width:0.8;"/>
     </g>
     <g id="line2d_8">
      <g>
       <use style="stroke:#000000;stroke-width:0.8;" x="290.269091" xlink:href="#m8e5df3253d" y="280.6704"/>
      </g>
     </g>
     <g id="text_4">
      <!-- 60 -->
      <defs>
       <path d="M 33.015625 40.375 
Q 26.375 40.375 22.484375 35.828125 
Q 18.609375 31.296875 18.609375 23.390625 
Q 18.609375 15.53125 22.484375 10.953125 
Q 26.375 6.390625 33.015625 6.390625 
Q 39.65625 6.390625 43.53125 10.953125 
Q 47.40625 15.53125 47.40625 23.390625 
Q 47.40625 31.296875 43.53125 35.828125 
Q 39.65625 40.375 33.015625 40.375 
z
M 52.59375 71.296875 
L 52.59375 62.3125 
Q 48.875 64.0625 45.09375 64.984375 
Q 41.3125 65.921875 37.59375 65.921875 
Q 27.828125 65.921875 22.671875 59.328125 
Q 17.53125 52.734375 16.796875 39.40625 
Q 19.671875 43.65625 24.015625 45.921875 
Q 28.375 48.1875 33.59375 48.1875 
Q 44.578125 48.1875 50.953125 41.515625 
Q 57.328125 34.859375 57.328125 23.390625 
Q 57.328125 12.15625 50.6875 5.359375 
Q 44.046875 -1.421875 33.015625 -1.421875 
Q 20.359375 -1.421875 13.671875 8.265625 
Q 6.984375 17.96875 6.984375 36.375 
Q 6.984375 53.65625 15.1875 63.9375 
Q 23.390625 74.21875 37.203125 74.21875 
Q 40.921875 74.21875 44.703125 73.484375 
Q 48.484375 72.75 52.59375 71.296875 
z
" id="DejaVuSans-54"/>
      </defs>
      <g transform="translate(283.906591 295.268838)scale(0.1 -0.1)">
       <use xlink:href="#DejaVuSans-54"/>
       <use x="63.623047" xlink:href="#DejaVuSans-48"/>
      </g>
     </g>
    </g>
    <g id="xtick_5">
     <g id="line2d_9">
      <path clip-path="url(#p2c60a63e44)" d="M 362.414545 280.6704 
L 362.414545 37.8432 
" style="fill:none;stroke:#b0b0b0;stroke-linecap:square;stroke-width:0.8;"/>
     </g>
     <g id="line2d_10">
      <g>
       <use style="stroke:#000000;stroke-width:0.8;" x="362.414545" xlink:href="#m8e5df3253d" y="280.6704"/>
      </g>
     </g>
     <g id="text_5">
      <!-- 80 -->
      <defs>
       <path d="M 31.78125 34.625 
Q 24.75 34.625 20.71875 30.859375 
Q 16.703125 27.09375 16.703125 20.515625 
Q 16.703125 13.921875 20.71875 10.15625 
Q 24.75 6.390625 31.78125 6.390625 
Q 38.8125 6.390625 42.859375 10.171875 
Q 46.921875 13.96875 46.921875 20.515625 
Q 46.921875 27.09375 42.890625 30.859375 
Q 38.875 34.625 31.78125 34.625 
z
M 21.921875 38.8125 
Q 15.578125 40.375 12.03125 44.71875 
Q 8.5 49.078125 8.5 55.328125 
Q 8.5 64.0625 14.71875 69.140625 
Q 20.953125 74.21875 31.78125 74.21875 
Q 42.671875 74.21875 48.875 69.140625 
Q 55.078125 64.0625 55.078125 55.328125 
Q 55.078125 49.078125 51.53125 44.71875 
Q 48 40.375 41.703125 38.8125 
Q 48.828125 37.15625 52.796875 32.3125 
Q 56.78125 27.484375 56.78125 20.515625 
Q 56.78125 9.90625 50.3125 4.234375 
Q 43.84375 -1.421875 31.78125 -1.421875 
Q 19.734375 -1.421875 13.25 4.234375 
Q 6.78125 9.90625 6.78125 20.515625 
Q 6.78125 27.484375 10.78125 32.3125 
Q 14.796875 37.15625 21.921875 38.8125 
z
M 18.3125 54.390625 
Q 18.3125 48.734375 21.84375 45.5625 
Q 25.390625 42.390625 31.78125 42.390625 
Q 38.140625 42.390625 41.71875 45.5625 
Q 45.3125 48.734375 45.3125 54.390625 
Q 45.3125 60.0625 41.71875 63.234375 
Q 38.140625 66.40625 31.78125 66.40625 
Q 25.390625 66.40625 21.84375 63.234375 
Q 18.3125 60.0625 18.3125 54.390625 
z
" id="DejaVuSans-56"/>
      </defs>
      <g transform="translate(356.052045 295.268838)scale(0.1 -0.1)">
       <use xlink:href="#DejaVuSans-56"/>
       <use x="63.623047" xlink:href="#DejaVuSans-48"/>
      </g>
     </g>
    </g>
    <g id="text_6">
     <!-- Angolo incidente [°] -->
     <defs>
      <path d="M 34.1875 63.1875 
L 20.796875 26.90625 
L 47.609375 26.90625 
z
M 28.609375 72.90625 
L 39.796875 72.90625 
L 67.578125 0 
L 57.328125 0 
L 50.6875 18.703125 
L 17.828125 18.703125 
L 11.1875 0 
L 0.78125 0 
z
" id="DejaVuSans-65"/>
      <path d="M 54.890625 33.015625 
L 54.890625 0 
L 45.90625 0 
L 45.90625 32.71875 
Q 45.90625 40.484375 42.875 44.328125 
Q 39.84375 48.1875 33.796875 48.1875 
Q 26.515625 48.1875 22.3125 43.546875 
Q 18.109375 38.921875 18.109375 30.90625 
L 18.109375 0 
L 9.078125 0 
L 9.078125 54.6875 
L 18.109375 54.6875 
L 18.109375 46.1875 
Q 21.34375 51.125 25.703125 53.5625 
Q 30.078125 56 35.796875 56 
Q 45.21875 56 50.046875 50.171875 
Q 54.890625 44.34375 54.890625 33.015625 
z
" id="DejaVuSans-110"/>
      <path d="M 45.40625 27.984375 
Q 45.40625 37.75 41.375 43.109375 
Q 37.359375 48.484375 30.078125 48.484375 
Q 22.859375 48.484375 18.828125 43.109375 
Q 14.796875 37.75 14.796875 27.984375 
Q 14.796875 18.265625 18.828125 12.890625 
Q 22.859375 7.515625 30.078125 7.515625 
Q 37.359375 7.515625 41.375 12.890625 
Q 45.40625 18.265625 45.40625 27.984375 
z
M 54.390625 6.78125 
Q 54.390625 -7.171875 48.1875 -13.984375 
Q 42 -20.796875 29.203125 -20.796875 
Q 24.46875 -20.796875 20.265625 -20.09375 
Q 16.0625 -19.390625 12.109375 -17.921875 
L 12.109375 -9.1875 
Q 16.0625 -11.328125 19.921875 -12.34375 
Q 23.78125 -13.375 27.78125 -13.375 
Q 36.625 -13.375 41.015625 -8.765625 
Q 45.40625 -4.15625 45.40625 5.171875 
L 45.40625 9.625 
Q 42.625 4.78125 38.28125 2.390625 
Q 33.9375 0 27.875 0 
Q 17.828125 0 11.671875 7.65625 
Q 5.515625 15.328125 5.515625 27.984375 
Q 5.515625 40.671875 11.671875 48.328125 
Q 17.828125 56 27.875 56 
Q 33.9375 56 38.28125 53.609375 
Q 42.625 51.21875 45.40625 46.390625 
L 45.40625 54.6875 
L 54.390625 54.6875 
z
" id="DejaVuSans-103"/>
      <path d="M 30.609375 48.390625 
Q 23.390625 48.390625 19.1875 42.75 
Q 14.984375 37.109375 14.984375 27.296875 
Q 14.984375 17.484375 19.15625 11.84375 
Q 23.34375 6.203125 30.609375 6.203125 
Q 37.796875 6.203125 41.984375 11.859375 
Q 46.1875 17.53125 46.1875 27.296875 
Q 46.1875 37.015625 41.984375 42.703125 
Q 37.796875 48.390625 30.609375 48.390625 
z
M 30.609375 56 
Q 42.328125 56 49.015625 48.375 
Q 55.71875 40.765625 55.71875 27.296875 
Q 55.71875 13.875 49.015625 6.21875 
Q 42.328125 -1.421875 30.609375 -1.421875 
Q 18.84375 -1.421875 12.171875 6.21875 
Q 5.515625 13.875 5.515625 27.296875 
Q 5.515625 40.765625 12.171875 48.375 
Q 18.84375 56 30.609375 56 
z
" id="DejaVuSans-111"/>
      <path d="M 9.421875 75.984375 
L 18.40625 75.984375 
L 18.40625 0 
L 9.421875 0 
z
" id="DejaVuSans-108"/>
      <path id="DejaVuSans-32"/>
      <path d="M 9.421875 54.6875 
L 18.40625 54.6875 
L 18.40625 0 
L 9.421875 0 
z
M 9.421875 75.984375 
L 18.40625 75.984375 
L 18.40625 64.59375 
L 9.421875 64.59375 
z
" id="DejaVuSans-105"/>
      <path d="M 48.78125 52.59375 
L 48.78125 44.1875 
Q 44.96875 46.296875 41.140625 47.34375 
Q 37.3125 48.390625 33.40625 48.390625 
Q 24.65625 48.390625 19.8125 42.84375 
Q 14.984375 37.3125 14.984375 27.296875 
Q 14.984375 17.28125 19.8125 11.734375 
Q 24.65625 6.203125 33.40625 6.203125 
Q 37.3125 6.203125 41.140625 7.25 
Q 44.96875 8.296875 48.78125 10.40625 
L 48.78125 2.09375 
Q 45.015625 0.34375 40.984375 -0.53125 
Q 36.96875 -1.421875 32.421875 -1.421875 
Q 20.0625 -1.421875 12.78125 6.34375 
Q 5.515625 14.109375 5.515625 27.296875 
Q 5.515625 40.671875 12.859375 48.328125 
Q 20.21875 56 33.015625 56 
Q 37.15625 56 41.109375 55.140625 
Q 45.0625 54.296875 48.78125 52.59375 
z
" id="DejaVuSans-99"/>
      <path d="M 45.40625 46.390625 
L 45.40625 75.984375 
L 54.390625 75.984375 
L 54.390625 0 
L 45.40625 0 
L 45.40625 8.203125 
Q 42.578125 3.328125 38.25 0.953125 
Q 33.9375 -1.421875 27.875 -1.421875 
Q 17.96875 -1.421875 11.734375 6.484375 
Q 5.515625 14.40625 5.515625 27.296875 
Q 5.515625 40.1875 11.734375 48.09375 
Q 17.96875 56 27.875 56 
Q 33.9375 56 38.25 53.625 
Q 42.578125 51.265625 45.40625 46.390625 
z
M 14.796875 27.296875 
Q 14.796875 17.390625 18.875 11.75 
Q 22.953125 6.109375 30.078125 6.109375 
Q 37.203125 6.109375 41.296875 11.75 
Q 45.40625 17.390625 45.40625 27.296875 
Q 45.40625 37.203125 41.296875 42.84375 
Q 37.203125 48.484375 30.078125 48.484375 
Q 22.953125 48.484375 18.875 42.84375 
Q 14.796875 37.203125 14.796875 27.296875 
z
" id="DejaVuSans-100"/>
      <path d="M 56.203125 29.59375 
L 56.203125 25.203125 
L 14.890625 25.203125 
Q 15.484375 15.921875 20.484375 11.0625 
Q 25.484375 6.203125 34.421875 6.203125 
Q 39.59375 6.203125 44.453125 7.46875 
Q 49.3125 8.734375 54.109375 11.28125 
L 54.109375 2.78125 
Q 49.265625 0.734375 44.1875 -0.34375 
Q 39.109375 -1.421875 33.890625 -1.421875 
Q 20.796875 -1.421875 13.15625 6.1875 
Q 5.515625 13.8125 5.515625 26.8125 
Q 5.515625 40.234375 12.765625 48.109375 
Q 20.015625 56 32.328125 56 
Q 43.359375 56 49.78125 48.890625 
Q 56.203125 41.796875 56.203125 29.59375 
z
M 47.21875 32.234375 
Q 47.125 39.59375 43.09375 43.984375 
Q 39.0625 48.390625 32.421875 48.390625 
Q 24.90625 48.390625 20.390625 44.140625 
Q 15.875 39.890625 15.1875 32.171875 
z
" id="DejaVuSans-101"/>
      <path d="M 18.3125 70.21875 
L 18.3125 54.6875 
L 36.8125 54.6875 
L 36.8125 47.703125 
L 18.3125 47.703125 
L 18.3125 18.015625 
Q 18.3125 11.328125 20.140625 9.421875 
Q 21.96875 7.515625 27.59375 7.515625 
L 36.8125 7.515625 
L 36.8125 0 
L 27.59375 0 
Q 17.1875 0 13.234375 3.875 
Q 9.28125 7.765625 9.28125 18.015625 
L 9.28125 47.703125 
L 2.6875 47.703125 
L 2.6875 54.6875 
L 9.28125 54.6875 
L 9.28125 70.21875 
z
" id="DejaVuSans-116"/>
      <path d="M 8.59375 75.984375 
L 29.296875 75.984375 
L 29.296875 69 
L 17.578125 69 
L 17.578125 -6.203125 
L 29.296875 -6.203125 
L 29.296875 -13.1875 
L 8.59375 -13.1875 
z
" id="DejaVuSans-91"/>
      <path d="M 25 67.921875 
Q 21.09375 67.921875 18.40625 65.203125 
Q 15.71875 62.5 15.71875 58.59375 
Q 15.71875 54.734375 18.40625 52.078125 
Q 21.09375 49.421875 25 49.421875 
Q 28.90625 49.421875 31.59375 52.078125 
Q 34.28125 54.734375 34.28125 58.59375 
Q 34.28125 62.453125 31.5625 65.1875 
Q 28.859375 67.921875 25 67.921875 
z
M 25 74.21875 
Q 28.125 74.21875 31 73.015625 
Q 33.890625 71.828125 35.984375 69.578125 
Q 38.234375 67.390625 39.359375 64.59375 
Q 40.484375 61.8125 40.484375 58.59375 
Q 40.484375 52.15625 35.96875 47.6875 
Q 31.453125 43.21875 24.90625 43.21875 
Q 18.3125 43.21875 13.90625 47.609375 
Q 9.515625 52 9.515625 58.59375 
Q 9.515625 65.140625 14 69.671875 
Q 18.5 74.21875 25 74.21875 
z
" id="DejaVuSans-176"/>
      <path d="M 30.421875 75.984375 
L 30.421875 -13.1875 
L 9.71875 -13.1875 
L 9.71875 -6.203125 
L 21.390625 -6.203125 
L 21.390625 69 
L 9.71875 69 
L 9.71875 75.984375 
z
" id="DejaVuSans-93"/>
     </defs>
     <g transform="translate(186.156875 308.946963)scale(0.1 -0.1)">
      <use xlink:href="#DejaVuSans-65"/>
      <use x="68.408203" xlink:href="#DejaVuSans-110"/>
      <use x="131.787109" xlink:href="#DejaVuSans-103"/>
      <use x="195.263672" xlink:href="#DejaVuSans-111"/>
      <use x="256.445312" xlink:href="#DejaVuSans-108"/>
      <use x="284.228516" xlink:href="#DejaVuSans-111"/>
      <use x="345.410156" xlink:href="#DejaVuSans-32"/>
      <use x="377.197266" xlink:href="#DejaVuSans-105"/>
      <use x="404.980469" xlink:href="#DejaVuSans-110"/>
      <use x="468.359375" xlink:href="#DejaVuSans-99"/>
      <use x="523.339844" xlink:href="#DejaVuSans-105"/>
      <use x="551.123047" xlink:href="#DejaVuSans-100"/>
      <use x="614.599609" xlink:href="#DejaVuSans-101"/>
      <use x="676.123047" xlink:href="#DejaVuSans-110"/>
      <use x="739.501953" xlink:href="#DejaVuSans-116"/>
      <use x="778.710938" xlink:href="#DejaVuSans-101"/>
      <use x="840.234375" xlink:href="#DejaVuSans-32"/>
      <use x="872.021484" xlink:href="#DejaVuSans-91"/>
      <use x="911.035156" xlink:href="#DejaVuSans-176"/>
      <use x="961.035156" xlink:href="#DejaVuSans-93"/>
     </g>
    </g>
   </g>
   <g id="matplotlib.axis_2">
    <g id="ytick_1">
     <g id="line2d_11">
      <path clip-path="url(#p2c60a63e44)" d="M 57.6 242.353341 
L 414.72 242.353341 
" style="fill:none;stroke:#b0b0b0;stroke-linecap:square;stroke-width:0.8;"/>
     </g>
     <g id="line2d_12">
      <defs>
       <path d="M 0 0 
L -3.5 0 
" id="m964490822c" style="stroke:#000000;stroke-width:0.8;"/>
      </defs>
      <g>
       <use style="stroke:#000000;stroke-width:0.8;" x="57.6" xlink:href="#m964490822c" y="242.353341"/>
      </g>
     </g>
     <g id="text_7">
      <!-- 0.0 -->
      <defs>
       <path d="M 10.6875 12.40625 
L 21 12.40625 
L 21 0 
L 10.6875 0 
z
" id="DejaVuSans-46"/>
      </defs>
      <g transform="translate(34.696875 246.15256)scale(0.1 -0.1)">
       <use xlink:href="#DejaVuSans-48"/>
       <use x="63.623047" xlink:href="#DejaVuSans-46"/>
       <use x="95.410156" xlink:href="#DejaVuSans-48"/>
      </g>
     </g>
    </g>
    <g id="ytick_2">
     <g id="line2d_13">
      <path clip-path="url(#p2c60a63e44)" d="M 57.6 197.932991 
L 414.72 197.932991 
" style="fill:none;stroke:#b0b0b0;stroke-linecap:square;stroke-width:0.8;"/>
     </g>
     <g id="line2d_14">
      <g>
       <use style="stroke:#000000;stroke-width:0.8;" x="57.6" xlink:href="#m964490822c" y="197.932991"/>
      </g>
     </g>
     <g id="text_8">
      <!-- 0.5 -->
      <defs>
       <path d="M 10.796875 72.90625 
L 49.515625 72.90625 
L 49.515625 64.59375 
L 19.828125 64.59375 
L 19.828125 46.734375 
Q 21.96875 47.46875 24.109375 47.828125 
Q 26.265625 48.1875 28.421875 48.1875 
Q 40.625 48.1875 47.75 41.5 
Q 54.890625 34.8125 54.890625 23.390625 
Q 54.890625 11.625 47.5625 5.09375 
Q 40.234375 -1.421875 26.90625 -1.421875 
Q 22.3125 -1.421875 17.546875 -0.640625 
Q 12.796875 0.140625 7.71875 1.703125 
L 7.71875 11.625 
Q 12.109375 9.234375 16.796875 8.0625 
Q 21.484375 6.890625 26.703125 6.890625 
Q 35.15625 6.890625 40.078125 11.328125 
Q 45.015625 15.765625 45.015625 23.390625 
Q 45.015625 31 40.078125 35.4375 
Q 35.15625 39.890625 26.703125 39.890625 
Q 22.75 39.890625 18.8125 39.015625 
Q 14.890625 38.140625 10.796875 36.28125 
z
" id="DejaVuSans-53"/>
      </defs>
      <g transform="translate(34.696875 201.732209)scale(0.1 -0.1)">
       <use xlink:href="#DejaVuSans-48"/>
       <use x="63.623047" xlink:href="#DejaVuSans-46"/>
       <use x="95.410156" xlink:href="#DejaVuSans-53"/>
      </g>
     </g>
    </g>
    <g id="ytick_3">
     <g id="line2d_15">
      <path clip-path="url(#p2c60a63e44)" d="M 57.6 153.51264 
L 414.72 153.51264 
" style="fill:none;stroke:#b0b0b0;stroke-linecap:square;stroke-width:0.8;"/>
     </g>
     <g id="line2d_16">
      <g>
       <use style="stroke:#000000;stroke-width:0.8;" x="57.6" xlink:href="#m964490822c" y="153.51264"/>
      </g>
     </g>
     <g id="text_9">
      <!-- 1.0 -->
      <defs>
       <path d="M 12.40625 8.296875 
L 28.515625 8.296875 
L 28.515625 63.921875 
L 10.984375 60.40625 
L 10.984375 69.390625 
L 28.421875 72.90625 
L 38.28125 72.90625 
L 38.28125 8.296875 
L 54.390625 8.296875 
L 54.390625 0 
L 12.40625 0 
z
" id="DejaVuSans-49"/>
      </defs>
      <g transform="translate(34.696875 157.311859)scale(0.1 -0.1)">
       <use xlink:href="#DejaVuSans-49"/>
       <use x="63.623047" xlink:href="#DejaVuSans-46"/>
       <use x="95.410156" xlink:href="#DejaVuSans-48"/>
      </g>
     </g>
    </g>
    <g id="ytick_4">
     <g id="line2d_17">
      <path clip-path="url(#p2c60a63e44)" d="M 57.6 109.09229 
L 414.72 109.09229 
" style="fill:none;stroke:#b0b0b0;stroke-linecap:square;stroke-width:0.8;"/>
     </g>
     <g id="line2d_18">
      <g>
       <use style="stroke:#000000;stroke-width:0.8;" x="57.6" xlink:href="#m964490822c" y="109.09229"/>
      </g>
     </g>
     <g id="text_10">
      <!-- 1.5 -->
      <g transform="translate(34.696875 112.891509)scale(0.1 -0.1)">
       <use xlink:href="#DejaVuSans-49"/>
       <use x="63.623047" xlink:href="#DejaVuSans-46"/>
       <use x="95.410156" xlink:href="#DejaVuSans-53"/>
      </g>
     </g>
    </g>
    <g id="ytick_5">
     <g id="line2d_19">
      <path clip-path="url(#p2c60a63e44)" d="M 57.6 64.67194 
L 414.72 64.67194 
" style="fill:none;stroke:#b0b0b0;stroke-linecap:square;stroke-width:0.8;"/>
     </g>
     <g id="line2d_20">
      <g>
       <use style="stroke:#000000;stroke-width:0.8;" x="57.6" xlink:href="#m964490822c" y="64.67194"/>
      </g>
     </g>
     <g id="text_11">
      <!-- 2.0 -->
      <g transform="translate(34.696875 68.471159)scale(0.1 -0.1)">
       <use xlink:href="#DejaVuSans-50"/>
       <use x="63.623047" xlink:href="#DejaVuSans-46"/>
       <use x="95.410156" xlink:href="#DejaVuSans-48"/>
      </g>
     </g>
    </g>
   </g>
   <g id="line2d_21">
    <path clip-path="url(#p2c60a63e44)" d="M 73.832727 235.178066 
L 75.457625 235.276119 
L 77.082523 235.567609 
L 79.0324 236.160442 
L 80.982277 236.991466 
L 83.257133 238.198226 
L 89.431744 241.64235 
L 91.056642 242.175644 
L 92.35656 242.340936 
L 93.331499 242.270132 
L 94.306437 242.002732 
L 95.281376 241.514048 
L 96.256314 240.782802 
L 97.231253 239.792805 
L 98.206192 238.534815 
L 99.50611 236.441541 
L 100.806028 233.902453 
L 102.430925 230.215008 
L 107.305618 218.656755 
L 108.280557 216.981611 
L 109.255495 215.771696 
L 109.905455 215.273208 
L 110.555414 215.051106 
L 111.205373 215.125651 
L 111.855332 215.511041 
L 112.505291 216.214256 
L 113.15525 217.234012 
L 114.130188 219.331612 
L 115.105127 222.038297 
L 116.405045 226.363738 
L 119.65484 237.680176 
L 120.629779 240.167789 
L 121.279738 241.356183 
L 121.929697 242.096394 
L 122.254676 242.283153 
L 122.579656 242.34154 
L 122.904636 242.268382 
L 123.229615 242.061754 
L 123.879574 241.247104 
L 124.529533 239.909903 
L 125.179492 238.086175 
L 126.154431 234.576466 
L 127.779328 227.467656 
L 129.404226 220.513122 
L 130.379165 217.330637 
L 131.029124 215.89093 
L 131.679083 215.112931 
L 132.004062 214.993823 
L 132.329042 215.061732 
L 132.654021 215.318849 
L 133.30398 216.396056 
L 133.953939 218.188238 
L 134.603898 220.613223 
L 135.578837 225.152122 
L 138.178673 238.037573 
L 138.828632 240.284815 
L 139.478591 241.759821 
L 139.803571 242.166042 
L 140.12855 242.336085 
L 140.45353 242.263387 
L 140.778509 241.945654 
L 141.103489 241.38505 
L 141.753448 239.566748 
L 142.403407 236.917008 
L 143.378346 231.789052 
L 145.653202 219.154697 
L 146.303161 216.708846 
L 146.95312 215.248806 
L 147.2781 214.93956 
L 147.603079 214.926883 
L 147.928059 215.214982 
L 148.253038 215.801416 
L 148.902998 217.825583 
L 149.552957 220.845237 
L 150.527895 226.663767 
L 152.152793 236.764296 
L 152.802752 239.792375 
L 153.452711 241.724735 
L 153.77769 242.205202 
L 154.10267 242.337115 
L 154.427649 242.112717 
L 154.752629 241.533479 
L 155.402588 239.363598 
L 156.052547 236.02591 
L 157.027486 229.589555 
L 158.327404 220.795255 
L 158.977363 217.431747 
L 159.627322 215.32995 
L 159.952301 214.844797 
L 160.277281 214.76559 
L 160.60226 215.099269 
L 160.92724 215.84036 
L 161.577199 218.460261 
L 162.227158 222.337036 
L 164.826994 239.932693 
L 165.476953 241.964141 
L 165.801933 242.321593 
L 166.126912 242.212567 
L 166.451892 241.635675 
L 166.776871 240.605617 
L 167.42683 237.323967 
L 168.401769 230.236175 
L 169.701687 220.236306 
L 170.351646 216.62705 
L 170.676626 215.439947 
L 171.001605 214.734536 
L 171.326585 214.542159 
L 171.651564 214.875189 
L 171.976544 215.726112 
L 172.626503 218.851926 
L 173.276462 223.474848 
L 175.226339 238.769823 
L 175.876298 241.602793 
L 176.201278 242.232732 
L 176.526257 242.288834 
L 176.851237 241.762991 
L 177.176216 240.67152 
L 177.826175 236.977047 
L 178.801114 228.902935 
L 179.776052 220.533683 
L 180.426011 216.420396 
L 180.750991 215.111374 
L 181.075971 214.393389 
L 181.40095 214.304337 
L 181.72593 214.853902 
L 182.050909 216.022515 
L 182.700868 219.995534 
L 183.675807 228.569554 
L 184.650745 237.095963 
L 185.300704 240.92852 
L 185.625684 241.966353 
L 185.950663 242.333172 
L 186.275643 242.00453 
L 186.600622 240.990196 
L 187.250581 237.11401 
L 188.22552 228.250185 
L 189.200459 219.266187 
L 189.850418 215.267293 
L 190.175397 214.226356 
L 190.500377 213.91649 
L 190.825356 214.360139 
L 191.150336 215.539753 
L 191.800295 219.840014 
L 192.775233 229.265584 
L 193.750172 238.207358 
L 194.400131 241.670983 
L 194.725111 242.298117 
L 195.05009 242.118048 
L 195.37507 241.133753 
L 195.700049 239.394341 
L 196.350008 234.062694 
L 197.974906 217.849662 
L 198.624865 214.168594 
L 198.949844 213.51083 
L 199.274824 213.718833 
L 199.599803 214.786548 
L 199.924783 216.655448 
L 200.574742 222.319489 
L 202.19964 238.795202 
L 202.524619 240.812682 
L 202.849599 242.01225 
L 203.174578 242.310235 
L 203.499558 241.679631 
L 203.824537 240.152797 
L 204.474496 234.826354 
L 206.424373 215.051498 
L 206.749353 213.5342 
L 207.074333 212.957995 
L 207.399312 213.368321 
L 207.724292 214.744387 
L 208.374251 219.985948 
L 210.324128 240.286486 
L 210.649107 241.803965 
L 210.974087 242.319222 
L 211.299066 241.787067 
L 211.624046 240.236203 
L 212.274005 234.552094 
L 213.898903 216.110812 
L 214.223882 213.850299 
L 214.548862 212.573545 
L 214.873841 212.38126 
L 215.198821 213.294877 
L 215.5238 215.25374 
L 216.173759 221.679819 
L 217.473677 237.215333 
L 217.798657 239.928494 
L 218.123636 241.674565 
L 218.448616 242.310644 
L 218.773595 241.777942 
L 219.098575 240.107586 
L 219.748534 233.914505 
L 221.373432 214.576031 
L 221.698411 212.518221 
L 222.023391 211.606798 
L 222.34837 211.92198 
L 222.67335 213.446065 
L 223.323309 219.568597 
L 224.948206 239.340732 
L 225.273186 241.415948 
L 225.598165 242.282978 
L 225.923145 241.858988 
L 226.248124 240.168067 
L 226.898084 233.604255 
L 228.522981 213.26529 
L 228.847961 211.325861 
L 229.17294 210.682125 
L 229.49792 211.397136 
L 229.822899 213.417149 
L 230.472858 220.601664 
L 231.772776 237.935014 
L 232.097756 240.640956 
L 232.422735 242.087666 
L 232.747715 242.135326 
L 233.072695 240.767202 
L 233.397674 238.092754 
L 234.047633 229.834018 
L 235.022572 215.922299 
L 235.347551 212.550334 
L 235.672531 210.38824 
L 235.99751 209.63967 
L 236.32249 210.380939 
L 236.647469 212.552393 
L 237.297428 220.302248 
L 238.597346 238.47029 
L 238.922326 241.061386 
L 239.247305 242.22605 
L 239.572285 241.841698 
L 239.897265 239.93038 
L 240.547224 232.322718 
L 241.847142 213.090578 
L 242.172121 210.113342 
L 242.497101 208.588031 
L 242.82208 208.668825 
L 243.14706 210.356439 
L 243.472039 213.496218 
L 244.121998 222.829644 
L 245.096937 237.424237 
L 245.421916 240.50753 
L 245.746896 242.088618 
L 246.071876 241.997471 
L 246.396855 240.227363 
L 246.721835 236.937432 
L 247.371794 227.165554 
L 248.346732 211.947871 
L 248.671712 208.764244 
L 248.996691 207.159663 
L 249.321671 207.3029 
L 249.64665 209.188291 
L 249.97163 212.634348 
L 250.621589 222.718035 
L 251.596527 237.93114 
L 251.921507 240.905522 
L 252.246486 242.196314 
L 252.571466 241.654772 
L 252.896446 239.318714 
L 253.546405 230.316898 
L 254.846323 209.075781 
L 255.171302 206.311633 
L 255.496282 205.353518 
L 255.821261 206.309531 
L 256.146241 209.089022 
L 256.7962 218.826624 
L 257.771138 235.765629 
L 258.096118 239.637127 
L 258.421097 241.81958 
L 258.746077 242.065034 
L 259.071057 240.328104 
L 259.396036 236.772835 
L 260.045995 225.798069 
L 261.020934 208.594686 
L 261.345913 205.118481 
L 261.670893 203.519163 
L 261.995872 203.975652 
L 262.320852 206.448152 
L 262.970811 216.224582 
L 263.945749 234.466098 
L 264.270729 238.871924 
L 264.595708 241.524012 
L 264.920688 242.116646 
L 265.245667 240.564307 
L 265.570647 237.012988 
L 266.220606 225.549075 
L 267.195545 207.021614 
L 267.520524 203.179594 
L 267.845504 201.338372 
L 268.170483 201.70636 
L 268.495463 204.252425 
L 269.145422 214.590236 
L 270.12036 234.026375 
L 270.44534 238.702204 
L 270.770319 241.4849 
L 271.095299 242.047632 
L 271.420278 240.30481 
L 271.745258 236.423541 
L 272.395217 224.053886 
L 273.370156 204.411471 
L 273.695135 200.466037 
L 274.020115 198.698419 
L 274.345094 199.311173 
L 274.670074 202.245545 
L 275.320033 213.592434 
L 276.294971 234.190484 
L 276.619951 238.945815 
L 276.94493 241.61112 
L 277.26991 241.867487 
L 277.594889 239.660152 
L 277.919869 235.20655 
L 278.569828 221.631182 
L 279.544767 201.00356 
L 279.869746 197.122535 
L 280.194726 195.626445 
L 280.519705 196.688289 
L 280.844685 200.19904 
L 281.494644 212.811806 
L 282.469582 234.558202 
L 282.794562 239.300357 
L 283.119541 241.732739 
L 283.444521 241.559608 
L 283.7695 238.771038 
L 284.09448 233.64587 
L 285.069419 210.566779 
L 285.719378 197.116691 
L 286.044357 193.317887 
L 286.369337 192.111354 
L 286.694316 193.636799 
L 287.019296 197.734201 
L 287.669255 211.632509 
L 288.644193 234.637502 
L 288.969173 239.441321 
L 289.294152 241.732757 
L 289.619132 241.231624 
L 289.944111 237.961178 
L 290.59407 224.683848 
L 291.893989 193.110448 
L 292.218968 189.176066 
L 292.543948 188.013689 
L 292.868927 189.755128 
L 293.193907 194.218511 
L 293.843866 209.156708 
L 294.818804 233.810379 
L 295.143784 239.005031 
L 295.468763 241.546228 
L 295.793743 241.130136 
L 296.118722 237.767716 
L 296.768681 223.788276 
L 298.0686 189.507714 
L 298.393579 184.89905 
L 298.718559 183.177473 
L 299.043538 184.528593 
L 299.368518 188.815005 
L 300.018477 204.142458 
L 300.993415 231.089981 
L 301.318395 237.310634 
L 301.643374 240.871777 
L 301.968354 241.371438 
L 302.293333 238.723042 
L 302.618313 233.165063 
L 303.268272 215.724855 
L 304.24321 187.436225 
L 304.56819 181.269667 
L 304.89317 177.947481 
L 305.218149 177.807714 
L 305.543129 180.866888 
L 305.868108 186.817933 
L 306.518067 204.762633 
L 307.493006 232.646597 
L 307.817985 238.361054 
L 308.142965 241.107643 
L 308.467944 240.579929 
L 308.792924 236.794006 
L 309.117903 230.086978 
L 309.767862 210.636105 
L 310.742801 180.703909 
L 311.067781 174.388269 
L 311.39276 171.090016 
L 311.71774 171.124287 
L 312.042719 174.48695 
L 312.367699 180.855313 
L 313.017658 199.939638 
L 313.992596 230.176796 
L 314.317576 236.771708 
L 314.642555 240.378678 
L 314.967535 240.628037 
L 315.292514 237.461116 
L 315.617494 231.134986 
L 316.267453 211.438694 
L 317.242391 178.08937 
L 317.567371 169.926284 
L 317.892351 164.591603 
L 318.21733 162.556399 
L 318.54231 163.996853 
L 318.867289 168.779615 
L 319.517248 186.395093 
L 320.817166 229.43008 
L 321.142146 236.198398 
L 321.467125 239.867825 
L 321.792105 240.091654 
L 322.117084 236.817211 
L 322.442064 230.288792 
L 323.092023 209.775394 
L 324.391941 164.004117 
L 324.716921 157.043101 
L 325.0419 153.272832 
L 325.36688 152.988225 
L 325.691859 156.201344 
L 326.016839 162.642424 
L 326.666798 182.882777 
L 327.966716 228.190249 
L 328.291695 235.166629 
L 328.616675 239.006904 
L 328.941654 239.38789 
L 329.266634 236.25127 
L 329.591613 229.805623 
L 330.241572 209.02805 
L 331.541491 158.895171 
L 332.19145 143.639903 
L 332.516429 140.747353 
L 332.841409 141.341627 
L 333.166388 145.362231 
L 333.491368 152.507239 
L 334.141327 173.914728 
L 335.441245 222.431742 
L 335.766224 230.773326 
L 336.091204 236.233262 
L 336.416183 238.427482 
L 336.741163 237.189655 
L 337.066143 232.579034 
L 337.716102 214.547675 
L 339.990958 131.327114 
L 340.315938 126.747394 
L 340.640917 125.443918 
L 340.965897 127.467054 
L 341.290876 132.669484 
L 341.940835 151.118435 
L 343.890713 223.778106 
L 344.215692 230.946579 
L 344.540672 235.243802 
L 344.865651 236.427139 
L 345.190631 234.423208 
L 345.51561 229.328164 
L 346.165569 211.036242 
L 347.140508 170.970642 
L 348.115446 131.332174 
L 348.765405 113.426865 
L 349.090385 108.36914 
L 349.415364 106.220588 
L 349.740344 107.043328 
L 350.065324 110.761193 
L 350.390303 117.166939 
L 351.040262 136.640691 
L 353.315119 219.970619 
L 353.640098 226.721197 
L 353.965078 231.008004 
L 354.290057 232.664545 
L 354.615037 231.631565 
L 354.940016 227.95591 
L 355.264996 221.785194 
L 355.914955 202.995214 
L 356.889894 164.339015 
L 358.189812 112.252466 
L 358.839771 93.612161 
L 359.16475 87.23631 
L 359.48973 83.062741 
L 359.814709 81.17742 
L 360.139689 81.591209 
L 360.464668 84.242598 
L 360.789648 89.002668 
L 361.439607 104.038977 
L 362.414545 136.186677 
L 364.039443 193.169157 
L 364.689402 209.865206 
L 365.339361 220.379999 
L 365.664341 223.021067 
L 365.98932 223.851059 
L 366.3143 222.876051 
L 366.639279 220.144292 
L 366.964259 215.742769 
L 367.614218 202.446315 
L 368.589156 173.873611 
L 371.513972 78.066441 
L 372.163931 63.965357 
L 372.81389 54.383991 
L 373.13887 51.370749 
L 373.463849 49.544028 
L 373.788829 48.8808 
L 374.113808 49.340713 
L 374.438788 50.868024 
L 374.763767 53.393653 
L 375.413726 61.10968 
L 376.063686 71.750712 
L 377.038624 91.404911 
L 379.63846 146.873392 
L 380.613399 162.969493 
L 381.263358 171.272667 
L 381.913317 177.470547 
L 382.563276 181.542609 
L 382.888256 182.799644 
L 383.213235 183.556503 
L 383.538215 183.832451 
L 383.863194 183.649993 
L 384.188174 183.034315 
L 384.513153 182.012757 
L 385.163112 178.869116 
L 385.813071 174.462434 
L 386.78801 166.027539 
L 388.412907 149.05252 
L 389.712826 134.634714 
L 390.037805 101.695296 
L 392.637641 91.336103 
L 395.237477 80.095554 
L 397.837314 67.886639 
L 398.487273 64.67194 
L 398.487273 64.67194 
" style="fill:none;stroke:#1f77b4;stroke-linecap:square;stroke-width:1.5;"/>
   </g>
   <g id="line2d_22">
    <path clip-path="url(#p2c60a63e44)" d="M 73.832727 242.353341 
L 99.18113 242.24955 
L 103.405864 241.969508 
L 112.83027 241.168791 
L 115.105127 241.301385 
L 117.704963 241.69263 
L 121.604717 242.312126 
L 123.229615 242.329803 
L 124.854513 242.088821 
L 126.47941 241.577874 
L 129.079247 240.423922 
L 130.704144 239.783636 
L 132.004062 239.501358 
L 132.979001 239.485442 
L 133.953939 239.657578 
L 135.253857 240.160271 
L 137.203735 241.263882 
L 138.828632 242.079534 
L 139.803571 242.324819 
L 140.778509 242.293294 
L 141.753448 241.95061 
L 142.728387 241.313866 
L 144.028305 240.142718 
L 145.978182 238.36701 
L 146.95312 237.825216 
L 147.603079 237.686661 
L 148.253038 237.752405 
L 148.902998 238.025474 
L 149.877936 238.781996 
L 151.177854 240.19947 
L 152.477772 241.580555 
L 153.127731 242.063991 
L 153.77769 242.318775 
L 154.427649 242.299296 
L 155.077609 241.98628 
L 155.727568 241.391376 
L 156.702506 240.075266 
L 158.977363 236.639726 
L 159.627322 236.059368 
L 160.277281 235.82617 
L 160.92724 235.981516 
L 161.577199 236.520877 
L 162.227158 237.390499 
L 163.527076 239.683039 
L 164.502015 241.297992 
L 165.151974 242.030046 
L 165.801933 242.338433 
L 166.126912 242.308781 
L 166.451892 242.150978 
L 167.101851 241.460356 
L 167.75181 240.330308 
L 169.051728 237.32992 
L 170.026667 235.225043 
L 170.676626 234.283223 
L 171.001605 234.013835 
L 171.326585 233.897132 
L 171.651564 233.940139 
L 171.976544 234.143883 
L 172.626503 235.006367 
L 173.276462 236.368916 
L 175.226339 241.164249 
L 175.876298 242.094793 
L 176.201278 242.304933 
L 176.526257 242.323609 
L 176.851237 242.144229 
L 177.176216 241.768481 
L 177.826175 240.476966 
L 178.801114 237.579491 
L 180.101032 233.586162 
L 180.750991 232.316733 
L 181.075971 231.98739 
L 181.40095 231.888958 
L 181.72593 232.029466 
L 182.050909 232.406021 
L 182.700868 233.800223 
L 183.675807 236.978649 
L 184.650745 240.259927 
L 185.300704 241.772407 
L 185.625684 242.187878 
L 185.950663 242.335863 
L 186.275643 242.2015 
L 186.600622 241.783724 
L 187.250581 240.164924 
L 188.22552 236.374277 
L 189.200459 232.399603 
L 189.850418 230.541876 
L 190.175397 230.017808 
L 190.500377 229.810552 
L 190.825356 229.935561 
L 191.150336 230.390711 
L 191.800295 232.193522 
L 192.775233 236.34274 
L 193.750172 240.410242 
L 194.400131 242.021225 
L 194.725111 242.31661 
L 195.05009 242.230621 
L 195.37507 241.758413 
L 195.700049 240.917363 
L 196.350008 238.305912 
L 198.299885 228.917936 
L 198.624865 228.100648 
L 198.949844 227.691875 
L 199.274824 227.721545 
L 199.599803 228.193441 
L 199.924783 229.084236 
L 200.574742 231.899429 
L 202.19964 240.439413 
L 202.524619 241.513873 
L 202.849599 242.157494 
L 203.174578 242.318262 
L 203.499558 241.974146 
L 203.824537 241.135346 
L 204.474496 238.174742 
L 206.424373 226.781341 
L 206.749353 225.837759 
L 207.074333 225.4273 
L 207.399312 225.583957 
L 207.724292 226.303768 
L 208.049271 227.544098 
L 208.69923 231.236636 
L 209.999148 239.657244 
L 210.324128 241.094784 
L 210.649107 242.008107 
L 210.974087 242.320047 
L 211.299066 241.994684 
L 211.624046 241.040959 
L 212.274005 237.508067 
L 214.223882 224.210233 
L 214.548862 223.315567 
L 214.873841 223.10964 
L 215.198821 223.615285 
L 215.5238 224.802443 
L 216.173759 228.846571 
L 217.473677 238.929755 
L 217.798657 240.723995 
L 218.123636 241.885957 
L 218.448616 242.311567 
L 218.773595 241.951935 
L 219.098575 240.818462 
L 219.748534 236.575266 
L 221.373432 222.981581 
L 221.698411 221.465432 
L 222.023391 220.743288 
L 222.34837 220.881174 
L 222.67335 221.876654 
L 222.998329 223.657507 
L 223.648288 228.969115 
L 224.623227 237.911445 
L 225.273186 241.656078 
L 225.598165 242.288573 
L 225.923145 241.976698 
L 226.248124 240.727752 
L 226.898084 235.837614 
L 228.522981 220.331789 
L 228.847961 218.781801 
L 229.17294 218.208902 
L 229.49792 218.671646 
L 229.822899 220.139594 
L 230.472858 225.537124 
L 231.772776 238.880968 
L 232.097756 240.995197 
L 232.422735 242.131016 
L 232.747715 242.168043 
L 233.072695 241.082155 
L 233.397674 238.949557 
L 234.047633 232.312584 
L 235.022572 220.968264 
L 235.347551 218.166607 
L 235.672531 216.332653 
L 235.99751 215.641788 
L 236.32249 216.16712 
L 236.647469 217.870791 
L 237.297428 224.125545 
L 238.597346 239.095659 
L 238.922326 241.258258 
L 239.247305 242.234254 
L 239.572285 241.909992 
L 239.897265 240.293012 
L 240.547224 233.814247 
L 241.847142 217.192396 
L 242.172121 214.559667 
L 242.497101 213.168185 
L 242.82208 213.161528 
L 243.14706 214.551269 
L 243.472039 217.213565 
L 244.121998 225.254256 
L 245.096937 237.995911 
L 245.421916 240.71091 
L 245.746896 242.108083 
L 246.071876 242.026641 
L 246.396855 240.449888 
L 246.721835 237.50925 
L 247.371794 228.724795 
L 248.346732 214.893461 
L 248.671712 211.951782 
L 248.996691 210.429766 
L 249.321671 210.490337 
L 249.64665 212.138719 
L 249.97163 215.219445 
L 250.621589 224.347536 
L 251.596527 238.266391 
L 251.921507 241.006748 
L 252.246486 242.199299 
L 252.571466 241.696766 
L 252.896446 239.524392 
L 253.546405 231.115511 
L 254.846323 211.071679 
L 255.171302 208.414358 
L 255.496282 207.451885 
L 255.821261 208.295309 
L 256.146241 210.868089 
L 256.7962 220.009309 
L 257.771138 236.062255 
L 258.096118 239.751735 
L 258.421097 241.83634 
L 258.746077 242.070943 
L 259.071057 240.403649 
L 259.396036 236.983853 
L 260.045995 226.390917 
L 261.020934 209.678056 
L 261.345913 206.267323 
L 261.670893 204.669827 
L 261.995872 205.066439 
L 262.320852 207.425887 
L 262.970811 216.874934 
L 263.945749 234.633991 
L 264.270729 238.940386 
L 264.595708 241.536794 
L 264.920688 242.117653 
L 265.245667 240.592756 
L 265.570647 237.0995 
L 266.220606 225.797692 
L 267.195545 207.457924 
L 267.520524 203.632466 
L 267.845504 201.781061 
L 268.170483 202.1148 
L 268.495463 204.607774 
L 269.145422 214.810955 
L 270.12036 234.076291 
L 270.44534 238.72137 
L 270.770319 241.488142 
L 271.095299 242.047977 
L 271.420278 240.312177 
L 271.745258 236.444035 
L 272.395217 224.10379 
L 273.370156 204.476074 
L 273.695135 200.525116 
L 274.020115 198.748395 
L 274.345094 199.350181 
L 274.670074 202.273427 
L 275.320033 213.602672 
L 276.294971 234.19095 
L 276.619951 238.945863 
L 276.94493 241.61112 
L 277.26991 241.867489 
L 277.594889 239.660283 
L 277.919869 235.207405 
L 278.569828 221.638349 
L 279.544767 201.040743 
L 279.869746 197.174139 
L 280.194726 195.692379 
L 280.519705 196.766351 
L 280.844685 200.284851 
L 281.494644 212.893548 
L 282.469582 234.588999 
L 282.794562 239.312861 
L 283.119541 241.734057 
L 283.444521 241.562036 
L 283.7695 238.791366 
L 284.09448 233.70385 
L 285.069419 210.849642 
L 285.719378 197.588496 
L 286.044357 193.868567 
L 286.369337 192.717027 
L 286.694316 194.265413 
L 287.019296 198.348741 
L 287.669255 212.110214 
L 288.644193 234.773973 
L 288.969173 239.48997 
L 289.294152 241.735916 
L 289.619132 241.245887 
L 289.944111 238.052087 
L 290.59407 225.124468 
L 291.569009 200.638587 
L 291.893989 194.611928 
L 292.218968 190.870414 
L 292.543948 189.820211 
L 292.868927 191.577026 
L 293.193907 195.953062 
L 293.843866 210.443853 
L 294.818804 234.161546 
L 295.143784 239.130936 
L 295.468763 241.555737 
L 295.793743 241.160018 
L 296.118722 237.969182 
L 296.768681 224.762756 
L 298.0686 192.729171 
L 298.393579 188.513391 
L 298.718559 187.014648 
L 299.043538 188.389291 
L 299.368518 192.49115 
L 300.018477 206.903865 
L 300.993415 231.930103 
L 301.318395 237.661298 
L 301.643374 240.930321 
L 301.968354 241.387282 
L 302.293333 238.973722 
L 302.618313 233.927895 
L 303.268272 218.195565 
L 304.24321 193.002175 
L 304.56819 187.616834 
L 304.89317 184.800775 
L 305.218149 184.83386 
L 305.543129 187.706867 
L 305.868108 193.123678 
L 306.518067 209.182464 
L 307.493006 233.765116 
L 307.817985 238.750403 
L 308.142965 241.134728 
L 308.467944 240.677769 
L 308.792924 237.420564 
L 309.442883 224.014603 
L 310.742801 190.19667 
L 311.067781 185.067753 
L 311.39276 182.503775 
L 311.71774 182.740737 
L 312.042719 185.745044 
L 312.367699 191.218906 
L 313.017658 207.268737 
L 313.992596 232.209011 
L 314.317576 237.575777 
L 314.642555 240.492177 
L 314.967535 240.690217 
L 315.292514 238.155754 
L 315.617494 233.127218 
L 316.267453 217.636114 
L 317.242391 191.935596 
L 317.567371 185.81337 
L 317.892351 181.933054 
L 318.21733 180.627814 
L 318.54231 181.998171 
L 318.867289 185.905932 
L 319.517248 199.69873 
L 320.817166 232.311239 
L 321.142146 237.32997 
L 321.467125 240.027642 
L 321.792105 240.185511 
L 322.117084 237.803675 
L 322.442064 233.097756 
L 323.092023 218.508216 
L 324.066962 193.413504 
L 324.716921 182.404944 
L 325.0419 180.114013 
L 325.36688 180.248659 
L 325.691859 182.776121 
L 326.016839 187.471656 
L 326.666798 201.650828 
L 327.966716 232.201325 
L 328.291695 236.777043 
L 328.616675 239.266586 
L 328.941654 239.500553 
L 329.266634 237.484354 
L 329.591613 233.394054 
L 330.241572 220.435176 
L 331.541491 190.337576 
L 331.86647 185.178521 
L 332.19145 181.823273 
L 332.516429 180.489363 
L 332.841409 181.245849 
L 333.166388 184.012112 
L 333.816347 194.56999 
L 335.766224 234.331538 
L 336.091204 237.336253 
L 336.416183 238.515319 
L 336.741163 237.822556 
L 337.066143 235.335701 
L 337.716102 225.850047 
L 339.665979 188.609103 
L 339.990958 185.272255 
L 340.315938 183.4874 
L 340.640917 183.333357 
L 340.965897 184.788979 
L 341.290876 187.737952 
L 341.940835 197.241549 
L 343.890713 231.255475 
L 344.215692 234.380317 
L 344.540672 236.205107 
L 344.865651 236.66762 
L 345.190631 235.781356 
L 345.51561 233.631641 
L 346.165569 226.193407 
L 348.440426 193.297897 
L 348.765405 190.946635 
L 349.090385 189.648607 
L 349.415364 189.436193 
L 349.740344 190.288829 
L 350.065324 192.136648 
L 350.715283 198.328628 
L 352.015201 215.778366 
L 352.990139 227.29208 
L 353.640098 231.948277 
L 353.965078 233.131361 
L 354.290057 233.525268 
L 354.615037 233.152521 
L 354.940016 232.065868 
L 355.589975 228.087744 
L 356.564914 219.313776 
L 357.864832 207.632689 
L 358.514791 203.694635 
L 358.839771 202.431922 
L 359.16475 201.67566 
L 359.48973 201.427921 
L 359.814709 201.672565 
L 360.139689 202.377182 
L 360.789648 204.970072 
L 361.764586 210.851879 
L 363.389484 221.313954 
L 364.039443 224.396069 
L 364.689402 226.467346 
L 365.014382 227.106172 
L 365.339361 227.489228 
L 365.664341 227.632899 
L 365.98932 227.560013 
L 366.3143 227.298534 
L 366.964259 226.339153 
L 369.564095 221.533883 
L 370.214054 221.098318 
L 370.539034 221.062419 
L 371.188993 221.343823 
L 371.838952 222.039616 
L 372.81389 223.620156 
L 374.763767 227.015754 
L 375.413726 227.756013 
L 376.063686 228.156929 
L 376.713645 228.182455 
L 377.363604 227.830722 
L 378.013563 227.130475 
L 378.988501 225.549331 
L 380.613399 222.147741 
L 381.913317 219.493668 
L 382.888256 217.9254 
L 383.538215 217.177739 
L 384.188174 216.704712 
L 384.838133 216.520813 
L 385.488092 216.626947 
L 386.138051 217.012202 
L 386.78801 217.65598 
L 387.762948 219.043735 
L 388.737887 220.835581 
L 389.712826 222.90858 
L 390.037805 229.495671 
L 392.312662 232.354784 
L 394.587518 235.629794 
L 396.537396 238.80433 
L 398.487273 242.353341 
L 398.487273 242.353341 
" style="fill:none;stroke:#ff7f0e;stroke-linecap:square;stroke-width:1.5;"/>
   </g>
   <g id="line2d_23">
    <path clip-path="url(#p2c60a63e44)" d="M 73.832727 249.528616 
L 75.457625 249.430563 
L 77.082523 249.139072 
L 79.0324 248.546238 
L 80.982277 247.715209 
L 83.257133 246.508441 
L 89.431744 243.064311 
L 91.056642 242.531027 
L 92.35656 242.36574 
L 93.331499 242.436538 
L 94.306437 242.703915 
L 95.281376 243.192544 
L 96.256314 243.923689 
L 97.231253 244.913517 
L 98.206192 246.171243 
L 99.50611 248.263961 
L 100.806028 250.802181 
L 102.430925 254.487964 
L 107.305618 266.036315 
L 108.280557 267.708708 
L 109.255495 268.915799 
L 109.905455 269.412436 
L 110.555414 269.632777 
L 111.205373 269.55662 
L 111.855332 269.169834 
L 112.505291 268.465505 
L 113.15525 267.444987 
L 114.130188 265.347038 
L 115.105127 262.641113 
L 116.405045 258.318564 
L 119.65484 247.016749 
L 120.629779 244.533803 
L 121.279738 243.347913 
L 121.929697 242.609398 
L 122.579656 242.364847 
L 122.904636 242.437799 
L 123.229615 242.64384 
L 123.879574 243.456044 
L 124.529533 244.788925 
L 125.179492 246.6063 
L 126.154431 250.102542 
L 127.779328 257.179348 
L 129.404226 264.094872 
L 130.379165 267.254674 
L 131.029124 268.681254 
L 131.679083 269.448727 
L 132.004062 269.563806 
L 132.329042 269.492817 
L 132.654021 269.233651 
L 133.30398 268.155708 
L 133.953939 266.367571 
L 134.603898 263.951507 
L 135.578837 259.434475 
L 138.178673 246.632761 
L 138.828632 244.403258 
L 139.478591 242.940658 
L 139.803571 242.538016 
L 140.12855 242.369503 
L 140.45353 242.441488 
L 140.778509 242.756102 
L 141.103489 243.311059 
L 141.753448 245.110202 
L 142.403407 247.73035 
L 143.378346 252.796453 
L 145.653202 265.249273 
L 146.303161 267.65054 
L 146.95312 269.076952 
L 147.2781 269.374669 
L 147.603079 269.379858 
L 147.928059 269.088611 
L 148.253038 268.503575 
L 148.902998 266.496172 
L 149.552957 263.511312 
L 150.527895 257.772985 
L 152.152793 247.836194 
L 152.802752 244.862884 
L 153.452711 242.967374 
L 153.77769 242.496432 
L 154.10267 242.367163 
L 154.427649 242.586796 
L 154.752629 243.153509 
L 155.402588 245.274666 
L 156.052547 248.533607 
L 157.027486 254.807588 
L 158.327404 263.355041 
L 158.977363 266.611001 
L 159.627322 268.633524 
L 159.952301 269.093194 
L 160.277281 269.157817 
L 160.60226 268.821196 
L 160.92724 268.089209 
L 161.577199 265.523407 
L 162.227158 261.744204 
L 164.826994 244.685372 
L 165.476953 242.724823 
L 165.801933 242.380254 
L 166.126912 242.485136 
L 166.451892 243.040023 
L 166.776871 244.029982 
L 167.42683 247.179417 
L 168.401769 253.964412 
L 169.701687 263.494844 
L 170.351646 266.912434 
L 170.676626 268.028234 
L 171.001605 268.682985 
L 171.326585 268.847762 
L 171.651564 268.511806 
L 171.976544 267.683337 
L 172.626503 264.676439 
L 173.276462 260.257359 
L 175.226339 245.731348 
L 175.876298 243.055149 
L 176.201278 242.461166 
L 176.526257 242.408197 
L 176.851237 242.902494 
L 177.176216 243.92731 
L 177.826175 247.389014 
L 178.801114 254.926355 
L 179.776052 262.696084 
L 180.426011 266.485426 
L 180.750991 267.678939 
L 181.075971 268.320727 
L 181.40095 268.377234 
L 181.72593 267.841234 
L 182.050909 266.732669 
L 182.700868 263.009649 
L 183.675807 255.044034 
L 184.650745 247.17259 
L 185.300704 243.65035 
L 185.625684 242.699069 
L 185.950663 242.363287 
L 186.275643 242.663175 
L 186.600622 243.587557 
L 187.250581 247.110023 
L 188.22552 255.12397 
L 189.200459 263.183645 
L 189.850418 266.728161 
L 190.175397 267.630983 
L 190.500377 267.874565 
L 190.825356 267.441463 
L 191.150336 266.3502 
L 191.800295 262.442702 
L 192.775233 253.976239 
L 193.750172 246.010862 
L 194.400131 242.943761 
L 194.725111 242.390312 
L 195.05009 242.548454 
L 195.37507 243.412186 
L 195.700049 244.935025 
L 196.350008 249.584395 
L 197.974906 263.566609 
L 198.624865 266.668625 
L 198.949844 267.191448 
L 199.274824 266.967211 
L 199.599803 266.005188 
L 199.924783 264.359649 
L 200.574742 259.44118 
L 202.19964 245.34617 
L 202.524619 243.637932 
L 202.849599 242.625195 
L 203.174578 242.374084 
L 203.499558 242.902559 
L 203.824537 244.178642 
L 204.474496 248.607807 
L 206.099394 262.89308 
L 206.424373 264.778239 
L 206.749353 265.970508 
L 207.074333 266.386557 
L 207.399312 265.994679 
L 207.724292 264.817535 
L 208.374251 260.460817 
L 210.324128 243.983736 
L 210.649107 242.771214 
L 210.974087 242.360776 
L 211.299066 242.781897 
L 211.624046 244.005213 
L 212.274005 248.459808 
L 213.898903 262.650519 
L 214.223882 264.335769 
L 214.548862 265.253023 
L 214.873841 265.331687 
L 215.198821 264.562858 
L 215.5238 263.000553 
L 216.173759 258.000941 
L 217.473677 246.174597 
L 217.798657 244.138115 
L 218.123636 242.833912 
L 218.448616 242.360753 
L 218.773595 242.753761 
L 219.098575 243.981181 
L 219.748534 248.494553 
L 221.373432 262.259708 
L 221.698411 263.656224 
L 222.023391 264.224669 
L 222.34837 263.91735 
L 222.67335 262.756788 
L 223.323309 258.303375 
L 224.948206 244.394785 
L 225.273186 242.965973 
L 225.598165 242.372307 
L 225.923145 242.659516 
L 226.248124 243.799995 
L 226.898084 248.181242 
L 228.198002 259.432836 
L 228.522981 261.356465 
L 228.847961 262.529437 
L 229.17294 262.849974 
L 229.49792 262.289453 
L 229.822899 260.895166 
L 230.472858 256.144895 
L 231.772776 245.070973 
L 232.097756 243.380433 
L 232.422735 242.483375 
L 232.747715 242.453074 
L 233.072695 243.28579 
L 233.397674 244.900922 
L 234.047633 249.820311 
L 235.022572 257.883116 
L 235.347551 259.765039 
L 235.672531 260.918825 
L 235.99751 261.23924 
L 236.32249 260.697277 
L 236.647469 259.342856 
L 237.297428 254.756791 
L 238.597346 244.449848 
L 238.922326 243.02084 
L 239.247305 242.384382 
L 239.572285 242.590679 
L 239.897265 243.610598 
L 240.547224 247.602476 
L 241.847142 257.291771 
L 242.172121 258.690366 
L 242.497101 259.333331 
L 242.82208 259.160453 
L 243.14706 258.190265 
L 243.797019 254.305947 
L 245.096937 244.639816 
L 245.421916 243.176284 
L 245.746896 242.434937 
L 246.071876 242.475645 
L 246.396855 243.280872 
L 247.046814 246.748344 
L 248.346732 255.406029 
L 248.671712 256.634242 
L 248.996691 257.168135 
L 249.321671 256.957324 
L 249.64665 256.02664 
L 250.296609 252.454751 
L 251.596527 244.023613 
L 251.921507 242.865022 
L 252.246486 242.370021 
L 252.571466 242.571865 
L 252.896446 243.432027 
L 253.546405 246.650257 
L 254.521343 252.371365 
L 254.846323 253.702653 
L 255.171302 254.483385 
L 255.496282 254.636468 
L 255.821261 254.151329 
L 256.146241 253.083942 
L 256.7962 249.711023 
L 257.771138 244.290697 
L 258.096118 243.114947 
L 258.421097 242.467278 
L 258.746077 242.394676 
L 259.071057 242.882232 
L 259.396036 243.856071 
L 260.370975 248.299389 
L 261.020934 250.834482 
L 261.345913 251.530471 
L 261.670893 251.736608 
L 261.995872 251.437854 
L 262.320852 250.67376 
L 262.970811 248.140368 
L 263.945749 243.957525 
L 264.270729 243.02414 
L 264.595708 242.482054 
L 264.920688 242.363999 
L 265.245667 242.655045 
L 265.570647 243.29604 
L 267.195545 247.886645 
L 267.520524 248.292058 
L 267.845504 248.363117 
L 268.170483 248.100909 
L 268.495463 247.543747 
L 269.145422 245.842702 
L 270.12036 243.253925 
L 270.44534 242.716289 
L 270.770319 242.41796 
L 271.095299 242.360616 
L 271.420278 242.51723 
L 272.070238 243.255197 
L 273.045176 244.401103 
L 273.370156 244.565602 
L 273.695135 244.576996 
L 274.020115 244.441609 
L 274.670074 243.848158 
L 275.645012 242.813112 
L 276.294971 242.439265 
L 276.94493 242.353438 
L 277.919869 242.244798 
L 278.569828 241.810641 
L 279.544767 240.600894 
L 280.194726 239.871928 
L 280.519705 239.684647 
L 280.844685 239.666102 
L 281.169664 239.829403 
L 281.819623 240.625173 
L 282.794562 242.093161 
L 283.119541 242.327314 
L 283.444521 242.307836 
L 283.7695 241.991366 
L 284.09448 241.368468 
L 284.744439 239.356009 
L 285.719378 235.839694 
L 286.044357 235.025785 
L 286.369337 234.575595 
L 286.694316 234.553712 
L 287.019296 234.9777 
L 287.344275 235.812725 
L 287.994234 238.325221 
L 288.644193 240.945623 
L 288.969173 241.864829 
L 289.294152 242.321742 
L 289.619132 242.21694 
L 289.944111 241.510377 
L 290.269091 240.22935 
L 290.91905 236.384458 
L 291.893989 230.291601 
L 292.218968 229.037982 
L 292.543948 228.45851 
L 292.868927 228.632349 
L 293.193907 229.557036 
L 293.843866 233.230376 
L 294.818804 240.001077 
L 295.143784 241.523339 
L 295.468763 242.288697 
L 295.793743 242.160492 
L 296.118722 241.095428 
L 296.443702 239.151883 
L 297.093661 233.343842 
L 298.0686 224.196082 
L 298.393579 222.299978 
L 298.718559 221.391177 
L 299.043538 221.582217 
L 299.368518 222.870214 
L 300.018477 228.141283 
L 300.993415 238.203912 
L 301.318395 240.63946 
L 301.643374 242.062588 
L 301.968354 242.26777 
L 302.293333 241.172326 
L 302.618313 238.828518 
L 303.268272 231.253806 
L 304.24321 218.290248 
L 304.56819 215.250204 
L 304.89317 213.443848 
L 305.218149 213.069306 
L 305.543129 214.18169 
L 305.868108 216.684136 
L 306.518067 224.766376 
L 307.493006 238.032136 
L 307.817985 240.848728 
L 308.142965 242.225034 
L 308.467944 241.96192 
L 308.792924 240.020305 
L 309.117903 236.528142 
L 309.767862 226.165317 
L 310.742801 209.524351 
L 311.067781 205.793941 
L 311.39276 203.669944 
L 311.71774 203.370194 
L 312.042719 204.939013 
L 312.367699 208.240161 
L 313.017658 218.670665 
L 313.992596 235.926789 
L 314.317576 239.797439 
L 314.642555 241.942921 
L 314.967535 242.10013 
L 315.292514 240.18826 
L 315.617494 236.318701 
L 316.267453 224.047573 
L 317.242391 202.590033 
L 317.892351 193.411514 
L 318.21733 191.781512 
L 318.54231 192.395311 
L 318.867289 195.210222 
L 319.517248 206.302499 
L 320.817166 234.693007 
L 321.142146 239.288094 
L 321.467125 241.808171 
L 321.792105 241.975053 
L 322.117084 239.709907 
L 322.442064 235.141326 
L 323.092023 220.570195 
L 324.391941 187.031294 
L 324.716921 181.687434 
L 325.0419 178.625556 
L 325.36688 178.099777 
L 325.691859 180.159259 
L 326.016839 184.643523 
L 326.666798 199.286336 
L 327.966716 233.190826 
L 328.291695 238.532789 
L 328.616675 241.503384 
L 328.941654 241.81743 
L 329.266634 239.39206 
L 329.591613 234.353089 
L 330.241572 217.90819 
L 331.86647 169.700431 
L 332.19145 164.402837 
L 332.516429 161.75226 
L 332.841409 161.935829 
L 333.166388 164.938647 
L 333.491368 170.545556 
L 334.141327 187.818518 
L 335.441245 228.019147 
L 336.091204 239.700233 
L 336.416183 241.593015 
L 336.741163 240.56327 
L 337.066143 236.630644 
L 337.391122 230.004239 
L 338.041081 210.352226 
L 339.665979 154.168982 
L 339.990958 147.195129 
L 340.315938 142.8691 
L 340.640917 141.437706 
L 340.965897 142.97308 
L 341.290876 147.370359 
L 341.940835 163.505902 
L 344.215692 235.586638 
L 344.540672 239.571205 
L 344.865651 240.700833 
L 345.190631 238.884713 
L 345.51561 234.189228 
L 346.165569 217.16696 
L 347.140508 179.453388 
L 348.115446 141.623009 
L 348.765405 124.2332 
L 349.090385 119.199012 
L 349.415364 116.926488 
L 349.740344 117.493504 
L 350.065324 120.845341 
L 350.390303 126.800195 
L 351.040262 145.228794 
L 353.315119 225.830216 
L 353.640098 232.473079 
L 353.965078 236.720883 
L 354.290057 238.396594 
L 354.615037 237.428091 
L 354.940016 233.847973 
L 355.264996 227.789183 
L 355.914955 209.216662 
L 356.889894 170.708213 
L 358.189812 118.303547 
L 358.839771 99.337509 
L 359.48973 88.439372 
L 359.814709 86.395839 
L 360.139689 86.674669 
L 360.464668 89.222412 
L 360.789648 93.916692 
L 361.439607 108.951879 
L 362.414545 141.433257 
L 364.039443 199.559647 
L 364.689402 216.721941 
L 365.339361 227.594054 
L 365.664341 230.352643 
L 365.98932 231.250933 
L 366.3143 230.290464 
L 366.639279 227.516538 
L 366.964259 223.014841 
L 367.614218 209.346971 
L 368.589156 179.839783 
L 371.513972 80.245051 
L 372.163931 65.501832 
L 372.81389 55.454926 
L 373.13887 52.282475 
L 373.463849 50.347455 
L 373.788829 49.626997 
L 374.113808 50.079971 
L 374.438788 51.648988 
L 374.763767 54.262536 
L 375.413726 62.279961 
L 376.063686 73.362733 
L 377.038624 93.85996 
L 379.63846 151.716285 
L 380.613399 168.461761 
L 381.263358 177.0723 
L 381.913317 183.469693 
L 382.563276 187.633659 
L 382.888256 188.897721 
L 383.213235 189.63693 
L 383.538215 189.871768 
L 383.863194 189.626121 
L 384.188174 188.926693 
L 384.838133 186.284042 
L 385.488092 182.193113 
L 386.46303 173.913617 
L 387.762948 160.213277 
L 389.712826 137.540336 
L 390.037805 102.284194 
L 392.962621 90.25334 
L 395.887437 77.203093 
L 398.487273 64.67194 
L 398.487273 64.67194 
" style="fill:none;stroke:#2ca02c;stroke-linecap:square;stroke-width:1.5;"/>
   </g>
   <g id="line2d_24">
    <path clip-path="url(#p2c60a63e44)" d="M 73.832727 242.353341 
L 156.052547 242.459166 
L 158.652383 242.449904 
L 164.502015 242.244976 
L 169.701687 242.492533 
L 175.226339 242.224001 
L 179.451073 242.548789 
L 181.40095 242.335777 
L 183.350827 242.131406 
L 184.975725 242.208461 
L 188.5505 242.595315 
L 190.175397 242.405457 
L 192.450254 242.091659 
L 193.750172 242.163386 
L 197.324947 242.627222 
L 198.624865 242.440782 
L 200.899722 242.055267 
L 202.19964 242.152825 
L 205.124455 242.672617 
L 206.099394 242.583892 
L 209.349189 242.026567 
L 210.649107 242.263844 
L 212.598984 242.694249 
L 213.573923 242.649412 
L 214.873841 242.318792 
L 216.173759 242.015245 
L 217.148698 242.022106 
L 218.448616 242.348546 
L 219.748534 242.689961 
L 220.723473 242.706592 
L 221.698411 242.482902 
L 223.323309 242.011094 
L 224.298247 241.988156 
L 225.273186 242.222148 
L 226.898084 242.710239 
L 227.873022 242.720251 
L 228.847961 242.463535 
L 230.472858 241.97474 
L 231.447797 241.998363 
L 232.422735 242.288182 
L 233.722654 242.708234 
L 234.697592 242.738292 
L 235.672531 242.472962 
L 237.297428 241.962729 
L 237.947387 241.952792 
L 238.922326 242.197181 
L 240.547224 242.732628 
L 241.197183 242.759354 
L 242.172121 242.52902 
L 243.797019 241.983242 
L 244.446978 241.949396 
L 245.421916 242.173891 
L 247.046814 242.716932 
L 247.696773 242.748553 
L 248.671712 242.522106 
L 250.296609 241.994938 
L 250.946568 241.974089 
L 251.921507 242.208249 
L 253.546405 242.704969 
L 254.196364 242.707907 
L 255.171302 242.463796 
L 256.47122 242.058192 
L 257.446159 242.033832 
L 258.421097 242.285303 
L 259.721016 242.642294 
L 260.695954 242.626512 
L 263.62077 242.090533 
L 264.920688 242.372368 
L 266.220606 242.588628 
L 267.195545 242.506047 
L 269.470401 242.171962 
L 270.770319 242.31534 
L 272.395217 242.471177 
L 280.194726 242.352661 
L 282.144603 242.51257 
L 283.444521 242.31117 
L 284.744439 242.073004 
L 285.719378 242.164608 
L 287.994234 242.782294 
L 288.644193 242.678422 
L 289.619132 242.238495 
L 290.59407 241.816455 
L 291.244029 241.772411 
L 291.893989 241.986684 
L 293.843866 243.110005 
L 294.493825 243.080934 
L 295.143784 242.725335 
L 296.768681 241.447112 
L 297.41864 241.366944 
L 298.0686 241.708354 
L 299.043538 242.731675 
L 299.693497 243.359234 
L 300.343456 243.614066 
L 300.668436 243.549502 
L 301.318395 243.043441 
L 302.943292 241.032684 
L 303.268272 240.843891 
L 303.593251 240.805805 
L 303.918231 240.928255 
L 304.56819 241.611736 
L 306.193088 244.015501 
L 306.518067 244.21154 
L 306.843047 244.224883 
L 307.168026 244.047713 
L 307.817985 243.186011 
L 309.442883 240.330448 
L 309.767862 240.108595 
L 310.092842 240.102046 
L 310.417821 240.318436 
L 311.067781 241.342066 
L 312.692678 244.739158 
L 313.017658 245.022349 
L 313.342637 245.058093 
L 313.667617 244.835551 
L 313.992596 244.368348 
L 314.642555 242.869984 
L 315.617494 240.276504 
L 316.267453 239.243202 
L 316.592432 239.118791 
L 316.917412 239.289574 
L 317.242391 239.747911 
L 317.892351 241.366278 
L 319.192269 245.258602 
L 319.517248 245.852835 
L 319.842228 246.152927 
L 320.167207 246.124721 
L 320.492187 245.76239 
L 320.817166 245.089425 
L 321.467125 243.040148 
L 322.442064 239.547221 
L 323.092023 238.084012 
L 323.417002 237.842231 
L 323.741982 237.97434 
L 324.066962 238.477903 
L 324.716921 240.436455 
L 326.341818 246.719087 
L 326.666798 247.381912 
L 326.991777 247.659258 
L 327.316757 247.520819 
L 327.641736 246.968824 
L 328.291695 244.794062 
L 329.916593 237.515746 
L 330.241572 236.643377 
L 330.566552 236.179048 
L 330.891532 236.16533 
L 331.216511 236.611787 
L 331.541491 237.494046 
L 332.19145 240.310629 
L 333.491368 247.152923 
L 334.141327 249.258987 
L 334.466306 249.652799 
L 334.791286 249.549934 
L 335.116265 248.949198 
L 335.441245 247.883454 
L 336.091204 244.643583 
L 337.716102 235.446029 
L 338.041081 234.402778 
L 338.366061 233.845596 
L 338.69104 233.816907 
L 339.01602 234.326056 
L 339.340999 235.348752 
L 339.990958 238.680808 
L 341.940835 250.827751 
L 342.265815 251.871474 
L 342.590794 252.387607 
L 342.915774 252.340474 
L 343.240753 251.726265 
L 343.565733 250.573072 
L 344.215692 246.90931 
L 346.165569 233.119521 
L 346.490549 231.71227 
L 346.815528 230.823771 
L 347.140508 230.503589 
L 347.465487 230.772621 
L 347.790467 231.622362 
L 348.440426 234.888882 
L 349.415364 242.433598 
L 350.390303 250.358843 
L 351.040262 254.249141 
L 351.365242 255.486856 
L 351.690221 256.169881 
L 352.015201 256.26597 
L 352.34018 255.768321 
L 352.66516 254.695425 
L 353.315119 251.015813 
L 354.290057 242.884423 
L 355.589975 231.683498 
L 356.239934 227.852297 
L 356.564914 226.664486 
L 356.889894 226.025511 
L 357.214873 225.958083 
L 357.539853 226.464369 
L 357.864832 227.52646 
L 358.514791 231.153631 
L 359.16475 236.353905 
L 361.439607 256.626754 
L 362.089566 260.105172 
L 362.414545 261.137358 
L 362.739525 261.659237 
L 363.064505 261.660026 
L 363.389484 261.143491 
L 363.714464 260.127297 
L 364.364423 256.729672 
L 365.014382 251.840436 
L 366.3143 239.669203 
L 367.614218 228.104107 
L 368.264177 223.803063 
L 368.914136 220.951566 
L 369.239115 220.130179 
L 369.564095 219.726366 
L 369.889075 219.740337 
L 370.214054 220.164175 
L 370.539034 220.982431 
L 371.188993 223.707192 
L 371.838952 227.670111 
L 372.81389 235.245116 
L 375.413726 256.836443 
L 376.388665 262.675017 
L 377.038624 265.38882 
L 377.688583 267.084047 
L 378.013563 267.547867 
L 378.338542 267.76141 
L 378.663522 267.732459 
L 378.988501 267.471299 
L 379.313481 266.990382 
L 379.96344 265.427933 
L 380.613399 263.175527 
L 381.588337 258.820688 
L 383.213235 250.182101 
L 385.163112 239.982607 
L 386.46303 234.409398 
L 387.437969 231.153974 
L 388.412907 228.756974 
L 389.062867 227.634788 
L 389.712826 226.87956 
L 390.037805 242.353341 
L 398.487273 242.353341 
L 398.487273 242.353341 
" style="fill:none;stroke:#d62728;stroke-linecap:square;stroke-width:1.5;"/>
   </g>
   <g id="patch_3">
    <path d="M 57.6 280.6704 
L 57.6 37.8432 
" style="fill:none;stroke:#000000;stroke-linecap:square;stroke-linejoin:miter;stroke-width:0.8;"/>
   </g>
   <g id="patch_4">
    <path d="M 414.72 280.6704 
L 414.72 37.8432 
" style="fill:none;stroke:#000000;stroke-linecap:square;stroke-linejoin:miter;stroke-width:0.8;"/>
   </g>
   <g id="patch_5">
    <path d="M 57.6 280.6704 
L 414.72 280.6704 
" style="fill:none;stroke:#000000;stroke-linecap:square;stroke-linejoin:miter;stroke-width:0.8;"/>
   </g>
   <g id="patch_6">
    <path d="M 57.6 37.8432 
L 414.72 37.8432 
" style="fill:none;stroke:#000000;stroke-linecap:square;stroke-linejoin:miter;stroke-width:0.8;"/>
   </g>
   <g id="text_12">
    <!-- Componenti vettori di Stokes -->
    <defs>
     <path d="M 64.40625 67.28125 
L 64.40625 56.890625 
Q 59.421875 61.53125 53.78125 63.8125 
Q 48.140625 66.109375 41.796875 66.109375 
Q 29.296875 66.109375 22.65625 58.46875 
Q 16.015625 50.828125 16.015625 36.375 
Q 16.015625 21.96875 22.65625 14.328125 
Q 29.296875 6.6875 41.796875 6.6875 
Q 48.140625 6.6875 53.78125 8.984375 
Q 59.421875 11.28125 64.40625 15.921875 
L 64.40625 5.609375 
Q 59.234375 2.09375 53.4375 0.328125 
Q 47.65625 -1.421875 41.21875 -1.421875 
Q 24.65625 -1.421875 15.125 8.703125 
Q 5.609375 18.84375 5.609375 36.375 
Q 5.609375 53.953125 15.125 64.078125 
Q 24.65625 74.21875 41.21875 74.21875 
Q 47.75 74.21875 53.53125 72.484375 
Q 59.328125 70.75 64.40625 67.28125 
z
" id="DejaVuSans-67"/>
     <path d="M 52 44.1875 
Q 55.375 50.25 60.0625 53.125 
Q 64.75 56 71.09375 56 
Q 79.640625 56 84.28125 50.015625 
Q 88.921875 44.046875 88.921875 33.015625 
L 88.921875 0 
L 79.890625 0 
L 79.890625 32.71875 
Q 79.890625 40.578125 77.09375 44.375 
Q 74.3125 48.1875 68.609375 48.1875 
Q 61.625 48.1875 57.5625 43.546875 
Q 53.515625 38.921875 53.515625 30.90625 
L 53.515625 0 
L 44.484375 0 
L 44.484375 32.71875 
Q 44.484375 40.625 41.703125 44.40625 
Q 38.921875 48.1875 33.109375 48.1875 
Q 26.21875 48.1875 22.15625 43.53125 
Q 18.109375 38.875 18.109375 30.90625 
L 18.109375 0 
L 9.078125 0 
L 9.078125 54.6875 
L 18.109375 54.6875 
L 18.109375 46.1875 
Q 21.1875 51.21875 25.484375 53.609375 
Q 29.78125 56 35.6875 56 
Q 41.65625 56 45.828125 52.96875 
Q 50 49.953125 52 44.1875 
z
" id="DejaVuSans-109"/>
     <path d="M 18.109375 8.203125 
L 18.109375 -20.796875 
L 9.078125 -20.796875 
L 9.078125 54.6875 
L 18.109375 54.6875 
L 18.109375 46.390625 
Q 20.953125 51.265625 25.265625 53.625 
Q 29.59375 56 35.59375 56 
Q 45.5625 56 51.78125 48.09375 
Q 58.015625 40.1875 58.015625 27.296875 
Q 58.015625 14.40625 51.78125 6.484375 
Q 45.5625 -1.421875 35.59375 -1.421875 
Q 29.59375 -1.421875 25.265625 0.953125 
Q 20.953125 3.328125 18.109375 8.203125 
z
M 48.6875 27.296875 
Q 48.6875 37.203125 44.609375 42.84375 
Q 40.53125 48.484375 33.40625 48.484375 
Q 26.265625 48.484375 22.1875 42.84375 
Q 18.109375 37.203125 18.109375 27.296875 
Q 18.109375 17.390625 22.1875 11.75 
Q 26.265625 6.109375 33.40625 6.109375 
Q 40.53125 6.109375 44.609375 11.75 
Q 48.6875 17.390625 48.6875 27.296875 
z
" id="DejaVuSans-112"/>
     <path d="M 2.984375 54.6875 
L 12.5 54.6875 
L 29.59375 8.796875 
L 46.6875 54.6875 
L 56.203125 54.6875 
L 35.6875 0 
L 23.484375 0 
z
" id="DejaVuSans-118"/>
     <path d="M 41.109375 46.296875 
Q 39.59375 47.171875 37.8125 47.578125 
Q 36.03125 48 33.890625 48 
Q 26.265625 48 22.1875 43.046875 
Q 18.109375 38.09375 18.109375 28.8125 
L 18.109375 0 
L 9.078125 0 
L 9.078125 54.6875 
L 18.109375 54.6875 
L 18.109375 46.1875 
Q 20.953125 51.171875 25.484375 53.578125 
Q 30.03125 56 36.53125 56 
Q 37.453125 56 38.578125 55.875 
Q 39.703125 55.765625 41.0625 55.515625 
z
" id="DejaVuSans-114"/>
     <path d="M 53.515625 70.515625 
L 53.515625 60.890625 
Q 47.90625 63.578125 42.921875 64.890625 
Q 37.9375 66.21875 33.296875 66.21875 
Q 25.25 66.21875 20.875 63.09375 
Q 16.5 59.96875 16.5 54.203125 
Q 16.5 49.359375 19.40625 46.890625 
Q 22.3125 44.4375 30.421875 42.921875 
L 36.375 41.703125 
Q 47.40625 39.59375 52.65625 34.296875 
Q 57.90625 29 57.90625 20.125 
Q 57.90625 9.515625 50.796875 4.046875 
Q 43.703125 -1.421875 29.984375 -1.421875 
Q 24.8125 -1.421875 18.96875 -0.25 
Q 13.140625 0.921875 6.890625 3.21875 
L 6.890625 13.375 
Q 12.890625 10.015625 18.65625 8.296875 
Q 24.421875 6.59375 29.984375 6.59375 
Q 38.421875 6.59375 43.015625 9.90625 
Q 47.609375 13.234375 47.609375 19.390625 
Q 47.609375 24.75 44.3125 27.78125 
Q 41.015625 30.8125 33.5 32.328125 
L 27.484375 33.5 
Q 16.453125 35.6875 11.515625 40.375 
Q 6.59375 45.0625 6.59375 53.421875 
Q 6.59375 63.09375 13.40625 68.65625 
Q 20.21875 74.21875 32.171875 74.21875 
Q 37.3125 74.21875 42.625 73.28125 
Q 47.953125 72.359375 53.515625 70.515625 
z
" id="DejaVuSans-83"/>
     <path d="M 9.078125 75.984375 
L 18.109375 75.984375 
L 18.109375 31.109375 
L 44.921875 54.6875 
L 56.390625 54.6875 
L 27.390625 29.109375 
L 57.625 0 
L 45.90625 0 
L 18.109375 26.703125 
L 18.109375 0 
L 9.078125 0 
z
" id="DejaVuSans-107"/>
     <path d="M 44.28125 53.078125 
L 44.28125 44.578125 
Q 40.484375 46.53125 36.375 47.5 
Q 32.28125 48.484375 27.875 48.484375 
Q 21.1875 48.484375 17.84375 46.4375 
Q 14.5 44.390625 14.5 40.28125 
Q 14.5 37.15625 16.890625 35.375 
Q 19.28125 33.59375 26.515625 31.984375 
L 29.59375 31.296875 
Q 39.15625 29.25 43.1875 25.515625 
Q 47.21875 21.78125 47.21875 15.09375 
Q 47.21875 7.46875 41.1875 3.015625 
Q 35.15625 -1.421875 24.609375 -1.421875 
Q 20.21875 -1.421875 15.453125 -0.5625 
Q 10.6875 0.296875 5.421875 2 
L 5.421875 11.28125 
Q 10.40625 8.6875 15.234375 7.390625 
Q 20.0625 6.109375 24.8125 6.109375 
Q 31.15625 6.109375 34.5625 8.28125 
Q 37.984375 10.453125 37.984375 14.40625 
Q 37.984375 18.0625 35.515625 20.015625 
Q 33.0625 21.96875 24.703125 23.78125 
L 21.578125 24.515625 
Q 13.234375 26.265625 9.515625 29.90625 
Q 5.8125 33.546875 5.8125 39.890625 
Q 5.8125 47.609375 11.28125 51.796875 
Q 16.75 56 26.8125 56 
Q 31.78125 56 36.171875 55.265625 
Q 40.578125 54.546875 44.28125 53.078125 
z
" id="DejaVuSans-115"/>
    </defs>
    <g transform="translate(148.588125 31.8432)scale(0.12 -0.12)">
     <use xlink:href="#DejaVuSans-67"/>
     <use x="69.824219" xlink:href="#DejaVuSans-111"/>
     <use x="131.005859" xlink:href="#DejaVuSans-109"/>
     <use x="228.417969" xlink:href="#DejaVuSans-112"/>
     <use x="291.894531" xlink:href="#DejaVuSans-111"/>
     <use x="353.076172" xlink:href="#DejaVuSans-110"/>
     <use x="416.455078" xlink:href="#DejaVuSans-101"/>
     <use x="477.978516" xlink:href="#DejaVuSans-110"/>
     <use x="541.357422" xlink:href="#DejaVuSans-116"/>
     <use x="580.566406" xlink:href="#DejaVuSans-105"/>
     <use x="608.349609" xlink:href="#DejaVuSans-32"/>
     <use x="640.136719" xlink:href="#DejaVuSans-118"/>
     <use x="699.316406" xlink:href="#DejaVuSans-101"/>
     <use x="760.839844" xlink:href="#DejaVuSans-116"/>
     <use x="800.048828" xlink:href="#DejaVuSans-116"/>
     <use x="839.257812" xlink:href="#DejaVuSans-111"/>
     <use x="900.439453" xlink:href="#DejaVuSans-114"/>
     <use x="941.552734" xlink:href="#DejaVuSans-105"/>
     <use x="969.335938" xlink:href="#DejaVuSans-32"/>
     <use x="1001.123047" xlink:href="#DejaVuSans-100"/>
     <use x="1064.599609" xlink:href="#DejaVuSans-105"/>
     <use x="1092.382812" xlink:href="#DejaVuSans-32"/>
     <use x="1124.169922" xlink:href="#DejaVuSans-83"/>
     <use x="1187.646484" xlink:href="#DejaVuSans-116"/>
     <use x="1226.855469" xlink:href="#DejaVuSans-111"/>
     <use x="1288.037109" xlink:href="#DejaVuSans-107"/>
     <use x="1345.900391" xlink:href="#DejaVuSans-101"/>
     <use x="1407.423828" xlink:href="#DejaVuSans-115"/>
    </g>
   </g>
   <g id="legend_1">
    <g id="patch_7">
     <path d="M 64.6 104.5557 
L 104.471875 104.5557 
Q 106.471875 104.5557 106.471875 102.5557 
L 106.471875 44.8432 
Q 106.471875 42.8432 104.471875 42.8432 
L 64.6 42.8432 
Q 62.6 42.8432 62.6 44.8432 
L 62.6 102.5557 
Q 62.6 104.5557 64.6 104.5557 
z
" style="fill:#ffffff;opacity:0.8;stroke:#cccccc;stroke-linejoin:miter;"/>
    </g>
    <g id="line2d_25">
     <path d="M 66.6 50.941638 
L 86.6 50.941638 
" style="fill:none;stroke:#1f77b4;stroke-linecap:square;stroke-width:1.5;"/>
    </g>
    <g id="line2d_26"/>
    <g id="text_13">
     <!-- I -->
     <defs>
      <path d="M 9.8125 72.90625 
L 19.671875 72.90625 
L 19.671875 0 
L 9.8125 0 
z
" id="DejaVuSans-73"/>
     </defs>
     <g transform="translate(94.6 54.441638)scale(0.1 -0.1)">
      <use xlink:href="#DejaVuSans-73"/>
     </g>
    </g>
    <g id="line2d_27">
     <path d="M 66.6 65.619763 
L 86.6 65.619763 
" style="fill:none;stroke:#ff7f0e;stroke-linecap:square;stroke-width:1.5;"/>
    </g>
    <g id="line2d_28"/>
    <g id="text_14">
     <!-- Q -->
     <defs>
      <path d="M 39.40625 66.21875 
Q 28.65625 66.21875 22.328125 58.203125 
Q 16.015625 50.203125 16.015625 36.375 
Q 16.015625 22.609375 22.328125 14.59375 
Q 28.65625 6.59375 39.40625 6.59375 
Q 50.140625 6.59375 56.421875 14.59375 
Q 62.703125 22.609375 62.703125 36.375 
Q 62.703125 50.203125 56.421875 58.203125 
Q 50.140625 66.21875 39.40625 66.21875 
z
M 53.21875 1.3125 
L 66.21875 -12.890625 
L 54.296875 -12.890625 
L 43.5 -1.21875 
Q 41.890625 -1.3125 41.03125 -1.359375 
Q 40.1875 -1.421875 39.40625 -1.421875 
Q 24.03125 -1.421875 14.8125 8.859375 
Q 5.609375 19.140625 5.609375 36.375 
Q 5.609375 53.65625 14.8125 63.9375 
Q 24.03125 74.21875 39.40625 74.21875 
Q 54.734375 74.21875 63.90625 63.9375 
Q 73.09375 53.65625 73.09375 36.375 
Q 73.09375 23.6875 67.984375 14.640625 
Q 62.890625 5.609375 53.21875 1.3125 
z
" id="DejaVuSans-81"/>
     </defs>
     <g transform="translate(94.6 69.119763)scale(0.1 -0.1)">
      <use xlink:href="#DejaVuSans-81"/>
     </g>
    </g>
    <g id="line2d_29">
     <path d="M 66.6 80.297888 
L 86.6 80.297888 
" style="fill:none;stroke:#2ca02c;stroke-linecap:square;stroke-width:1.5;"/>
    </g>
    <g id="line2d_30"/>
    <g id="text_15">
     <!-- U -->
     <defs>
      <path d="M 8.6875 72.90625 
L 18.609375 72.90625 
L 18.609375 28.609375 
Q 18.609375 16.890625 22.84375 11.734375 
Q 27.09375 6.59375 36.625 6.59375 
Q 46.09375 6.59375 50.34375 11.734375 
Q 54.59375 16.890625 54.59375 28.609375 
L 54.59375 72.90625 
L 64.5 72.90625 
L 64.5 27.390625 
Q 64.5 13.140625 57.4375 5.859375 
Q 50.390625 -1.421875 36.625 -1.421875 
Q 22.796875 -1.421875 15.734375 5.859375 
Q 8.6875 13.140625 8.6875 27.390625 
z
" id="DejaVuSans-85"/>
     </defs>
     <g transform="translate(94.6 83.797888)scale(0.1 -0.1)">
      <use xlink:href="#DejaVuSans-85"/>
     </g>
    </g>
    <g id="line2d_31">
     <path d="M 66.6 94.976013 
L 86.6 94.976013 
" style="fill:none;stroke:#d62728;stroke-linecap:square;stroke-width:1.5;"/>
    </g>
    <g id="line2d_32"/>
    <g id="text_16">
     <!-- V -->
     <defs>
      <path d="M 28.609375 0 
L 0.78125 72.90625 
L 11.078125 72.90625 
L 34.1875 11.53125 
L 57.328125 72.90625 
L 67.578125 72.90625 
L 39.796875 0 
z
" id="DejaVuSans-86"/>
     </defs>
     <g transform="translate(94.6 98.476013)scale(0.1 -0.1)">
      <use xlink:href="#DejaVuSans-86"/>
     </g>
    </g>
   </g>
  </g>
 </g>
 <defs>
  <clipPath id="p2c60a63e44">
   <rect height="242.8272" width="357.12" x="57.6" y="37.8432"/>
  </clipPath>
 </defs>
</svg>
