<?xml version="1.0" encoding="utf-8" standalone="no"?>
<!DOCTYPE svg PUBLIC "-//W3C//DTD SVG 1.1//EN"
  "http://www.w3.org/Graphics/SVG/1.1/DTD/svg11.dtd">
<!-- Created with matplotlib (https://matplotlib.org/) -->
<svg height="315.36pt" version="1.1" viewBox="0 0 460.8 315.36" width="460.8pt" xmlns="http://www.w3.org/2000/svg" xmlns:xlink="http://www.w3.org/1999/xlink">
 <defs>
  <style type="text/css">
*{stroke-linecap:butt;stroke-linejoin:round;}
  </style>
 </defs>
 <g id="figure_1">
  <g id="patch_1">
   <path d="M 0 315.36 
L 460.8 315.36 
L 460.8 0 
L 0 0 
z
" style="fill:#ffffff;"/>
  </g>
  <g id="axes_1">
   <g id="patch_2">
    <path d="M 57.6 280.6704 
L 414.72 280.6704 
L 414.72 37.8432 
L 57.6 37.8432 
z
" style="fill:#ffffff;"/>
   </g>
   <g id="matplotlib.axis_1">
    <g id="xtick_1">
     <g id="line2d_1">
      <path clip-path="url(#pf45c859941)" d="M 73.832727 280.6704 
L 73.832727 37.8432 
" style="fill:none;stroke:#b0b0b0;stroke-linecap:square;stroke-width:0.8;"/>
     </g>
     <g id="line2d_2">
      <defs>
       <path d="M 0 0 
L 0 3.5 
" id="med51facd54" style="stroke:#000000;stroke-width:0.8;"/>
      </defs>
      <g>
       <use style="stroke:#000000;stroke-width:0.8;" x="73.832727" xlink:href="#med51facd54" y="280.6704"/>
      </g>
     </g>
     <g id="text_1">
      <!-- 0 -->
      <defs>
       <path d="M 31.78125 66.40625 
Q 24.171875 66.40625 20.328125 58.90625 
Q 16.5 51.421875 16.5 36.375 
Q 16.5 21.390625 20.328125 13.890625 
Q 24.171875 6.390625 31.78125 6.390625 
Q 39.453125 6.390625 43.28125 13.890625 
Q 47.125 21.390625 47.125 36.375 
Q 47.125 51.421875 43.28125 58.90625 
Q 39.453125 66.40625 31.78125 66.40625 
z
M 31.78125 74.21875 
Q 44.046875 74.21875 50.515625 64.515625 
Q 56.984375 54.828125 56.984375 36.375 
Q 56.984375 17.96875 50.515625 8.265625 
Q 44.046875 -1.421875 31.78125 -1.421875 
Q 19.53125 -1.421875 13.0625 8.265625 
Q 6.59375 17.96875 6.59375 36.375 
Q 6.59375 54.828125 13.0625 64.515625 
Q 19.53125 74.21875 31.78125 74.21875 
z
" id="DejaVuSans-48"/>
      </defs>
      <g transform="translate(70.651477 295.268838)scale(0.1 -0.1)">
       <use xlink:href="#DejaVuSans-48"/>
      </g>
     </g>
    </g>
    <g id="xtick_2">
     <g id="line2d_3">
      <path clip-path="url(#pf45c859941)" d="M 145.978182 280.6704 
L 145.978182 37.8432 
" style="fill:none;stroke:#b0b0b0;stroke-linecap:square;stroke-width:0.8;"/>
     </g>
     <g id="line2d_4">
      <g>
       <use style="stroke:#000000;stroke-width:0.8;" x="145.978182" xlink:href="#med51facd54" y="280.6704"/>
      </g>
     </g>
     <g id="text_2">
      <!-- 20 -->
      <defs>
       <path d="M 19.1875 8.296875 
L 53.609375 8.296875 
L 53.609375 0 
L 7.328125 0 
L 7.328125 8.296875 
Q 12.9375 14.109375 22.625 23.890625 
Q 32.328125 33.6875 34.8125 36.53125 
Q 39.546875 41.84375 41.421875 45.53125 
Q 43.3125 49.21875 43.3125 52.78125 
Q 43.3125 58.59375 39.234375 62.25 
Q 35.15625 65.921875 28.609375 65.921875 
Q 23.96875 65.921875 18.8125 64.3125 
Q 13.671875 62.703125 7.8125 59.421875 
L 7.8125 69.390625 
Q 13.765625 71.78125 18.9375 73 
Q 24.125 74.21875 28.421875 74.21875 
Q 39.75 74.21875 46.484375 68.546875 
Q 53.21875 62.890625 53.21875 53.421875 
Q 53.21875 48.921875 51.53125 44.890625 
Q 49.859375 40.875 45.40625 35.40625 
Q 44.1875 33.984375 37.640625 27.21875 
Q 31.109375 20.453125 19.1875 8.296875 
z
" id="DejaVuSans-50"/>
      </defs>
      <g transform="translate(139.615682 295.268838)scale(0.1 -0.1)">
       <use xlink:href="#DejaVuSans-50"/>
       <use x="63.623047" xlink:href="#DejaVuSans-48"/>
      </g>
     </g>
    </g>
    <g id="xtick_3">
     <g id="line2d_5">
      <path clip-path="url(#pf45c859941)" d="M 218.123636 280.6704 
L 218.123636 37.8432 
" style="fill:none;stroke:#b0b0b0;stroke-linecap:square;stroke-width:0.8;"/>
     </g>
     <g id="line2d_6">
      <g>
       <use style="stroke:#000000;stroke-width:0.8;" x="218.123636" xlink:href="#med51facd54" y="280.6704"/>
      </g>
     </g>
     <g id="text_3">
      <!-- 40 -->
      <defs>
       <path d="M 37.796875 64.3125 
L 12.890625 25.390625 
L 37.796875 25.390625 
z
M 35.203125 72.90625 
L 47.609375 72.90625 
L 47.609375 25.390625 
L 58.015625 25.390625 
L 58.015625 17.1875 
L 47.609375 17.1875 
L 47.609375 0 
L 37.796875 0 
L 37.796875 17.1875 
L 4.890625 17.1875 
L 4.890625 26.703125 
z
" id="DejaVuSans-52"/>
      </defs>
      <g transform="translate(211.761136 295.268838)scale(0.1 -0.1)">
       <use xlink:href="#DejaVuSans-52"/>
       <use x="63.623047" xlink:href="#DejaVuSans-48"/>
      </g>
     </g>
    </g>
    <g id="xtick_4">
     <g id="line2d_7">
      <path clip-path="url(#pf45c859941)" d="M 290.269091 280.6704 
L 290.269091 37.8432 
" style="fill:none;stroke:#b0b0b0;stroke-linecap:square;stroke-width:0.8;"/>
     </g>
     <g id="line2d_8">
      <g>
       <use style="stroke:#000000;stroke-width:0.8;" x="290.269091" xlink:href="#med51facd54" y="280.6704"/>
      </g>
     </g>
     <g id="text_4">
      <!-- 60 -->
      <defs>
       <path d="M 33.015625 40.375 
Q 26.375 40.375 22.484375 35.828125 
Q 18.609375 31.296875 18.609375 23.390625 
Q 18.609375 15.53125 22.484375 10.953125 
Q 26.375 6.390625 33.015625 6.390625 
Q 39.65625 6.390625 43.53125 10.953125 
Q 47.40625 15.53125 47.40625 23.390625 
Q 47.40625 31.296875 43.53125 35.828125 
Q 39.65625 40.375 33.015625 40.375 
z
M 52.59375 71.296875 
L 52.59375 62.3125 
Q 48.875 64.0625 45.09375 64.984375 
Q 41.3125 65.921875 37.59375 65.921875 
Q 27.828125 65.921875 22.671875 59.328125 
Q 17.53125 52.734375 16.796875 39.40625 
Q 19.671875 43.65625 24.015625 45.921875 
Q 28.375 48.1875 33.59375 48.1875 
Q 44.578125 48.1875 50.953125 41.515625 
Q 57.328125 34.859375 57.328125 23.390625 
Q 57.328125 12.15625 50.6875 5.359375 
Q 44.046875 -1.421875 33.015625 -1.421875 
Q 20.359375 -1.421875 13.671875 8.265625 
Q 6.984375 17.96875 6.984375 36.375 
Q 6.984375 53.65625 15.1875 63.9375 
Q 23.390625 74.21875 37.203125 74.21875 
Q 40.921875 74.21875 44.703125 73.484375 
Q 48.484375 72.75 52.59375 71.296875 
z
" id="DejaVuSans-54"/>
      </defs>
      <g transform="translate(283.906591 295.268838)scale(0.1 -0.1)">
       <use xlink:href="#DejaVuSans-54"/>
       <use x="63.623047" xlink:href="#DejaVuSans-48"/>
      </g>
     </g>
    </g>
    <g id="xtick_5">
     <g id="line2d_9">
      <path clip-path="url(#pf45c859941)" d="M 362.414545 280.6704 
L 362.414545 37.8432 
" style="fill:none;stroke:#b0b0b0;stroke-linecap:square;stroke-width:0.8;"/>
     </g>
     <g id="line2d_10">
      <g>
       <use style="stroke:#000000;stroke-width:0.8;" x="362.414545" xlink:href="#med51facd54" y="280.6704"/>
      </g>
     </g>
     <g id="text_5">
      <!-- 80 -->
      <defs>
       <path d="M 31.78125 34.625 
Q 24.75 34.625 20.71875 30.859375 
Q 16.703125 27.09375 16.703125 20.515625 
Q 16.703125 13.921875 20.71875 10.15625 
Q 24.75 6.390625 31.78125 6.390625 
Q 38.8125 6.390625 42.859375 10.171875 
Q 46.921875 13.96875 46.921875 20.515625 
Q 46.921875 27.09375 42.890625 30.859375 
Q 38.875 34.625 31.78125 34.625 
z
M 21.921875 38.8125 
Q 15.578125 40.375 12.03125 44.71875 
Q 8.5 49.078125 8.5 55.328125 
Q 8.5 64.0625 14.71875 69.140625 
Q 20.953125 74.21875 31.78125 74.21875 
Q 42.671875 74.21875 48.875 69.140625 
Q 55.078125 64.0625 55.078125 55.328125 
Q 55.078125 49.078125 51.53125 44.71875 
Q 48 40.375 41.703125 38.8125 
Q 48.828125 37.15625 52.796875 32.3125 
Q 56.78125 27.484375 56.78125 20.515625 
Q 56.78125 9.90625 50.3125 4.234375 
Q 43.84375 -1.421875 31.78125 -1.421875 
Q 19.734375 -1.421875 13.25 4.234375 
Q 6.78125 9.90625 6.78125 20.515625 
Q 6.78125 27.484375 10.78125 32.3125 
Q 14.796875 37.15625 21.921875 38.8125 
z
M 18.3125 54.390625 
Q 18.3125 48.734375 21.84375 45.5625 
Q 25.390625 42.390625 31.78125 42.390625 
Q 38.140625 42.390625 41.71875 45.5625 
Q 45.3125 48.734375 45.3125 54.390625 
Q 45.3125 60.0625 41.71875 63.234375 
Q 38.140625 66.40625 31.78125 66.40625 
Q 25.390625 66.40625 21.84375 63.234375 
Q 18.3125 60.0625 18.3125 54.390625 
z
" id="DejaVuSans-56"/>
      </defs>
      <g transform="translate(356.052045 295.268838)scale(0.1 -0.1)">
       <use xlink:href="#DejaVuSans-56"/>
       <use x="63.623047" xlink:href="#DejaVuSans-48"/>
      </g>
     </g>
    </g>
    <g id="text_6">
     <!-- Angolo incidente [°] -->
     <defs>
      <path d="M 34.1875 63.1875 
L 20.796875 26.90625 
L 47.609375 26.90625 
z
M 28.609375 72.90625 
L 39.796875 72.90625 
L 67.578125 0 
L 57.328125 0 
L 50.6875 18.703125 
L 17.828125 18.703125 
L 11.1875 0 
L 0.78125 0 
z
" id="DejaVuSans-65"/>
      <path d="M 54.890625 33.015625 
L 54.890625 0 
L 45.90625 0 
L 45.90625 32.71875 
Q 45.90625 40.484375 42.875 44.328125 
Q 39.84375 48.1875 33.796875 48.1875 
Q 26.515625 48.1875 22.3125 43.546875 
Q 18.109375 38.921875 18.109375 30.90625 
L 18.109375 0 
L 9.078125 0 
L 9.078125 54.6875 
L 18.109375 54.6875 
L 18.109375 46.1875 
Q 21.34375 51.125 25.703125 53.5625 
Q 30.078125 56 35.796875 56 
Q 45.21875 56 50.046875 50.171875 
Q 54.890625 44.34375 54.890625 33.015625 
z
" id="DejaVuSans-110"/>
      <path d="M 45.40625 27.984375 
Q 45.40625 37.75 41.375 43.109375 
Q 37.359375 48.484375 30.078125 48.484375 
Q 22.859375 48.484375 18.828125 43.109375 
Q 14.796875 37.75 14.796875 27.984375 
Q 14.796875 18.265625 18.828125 12.890625 
Q 22.859375 7.515625 30.078125 7.515625 
Q 37.359375 7.515625 41.375 12.890625 
Q 45.40625 18.265625 45.40625 27.984375 
z
M 54.390625 6.78125 
Q 54.390625 -7.171875 48.1875 -13.984375 
Q 42 -20.796875 29.203125 -20.796875 
Q 24.46875 -20.796875 20.265625 -20.09375 
Q 16.0625 -19.390625 12.109375 -17.921875 
L 12.109375 -9.1875 
Q 16.0625 -11.328125 19.921875 -12.34375 
Q 23.78125 -13.375 27.78125 -13.375 
Q 36.625 -13.375 41.015625 -8.765625 
Q 45.40625 -4.15625 45.40625 5.171875 
L 45.40625 9.625 
Q 42.625 4.78125 38.28125 2.390625 
Q 33.9375 0 27.875 0 
Q 17.828125 0 11.671875 7.65625 
Q 5.515625 15.328125 5.515625 27.984375 
Q 5.515625 40.671875 11.671875 48.328125 
Q 17.828125 56 27.875 56 
Q 33.9375 56 38.28125 53.609375 
Q 42.625 51.21875 45.40625 46.390625 
L 45.40625 54.6875 
L 54.390625 54.6875 
z
" id="DejaVuSans-103"/>
      <path d="M 30.609375 48.390625 
Q 23.390625 48.390625 19.1875 42.75 
Q 14.984375 37.109375 14.984375 27.296875 
Q 14.984375 17.484375 19.15625 11.84375 
Q 23.34375 6.203125 30.609375 6.203125 
Q 37.796875 6.203125 41.984375 11.859375 
Q 46.1875 17.53125 46.1875 27.296875 
Q 46.1875 37.015625 41.984375 42.703125 
Q 37.796875 48.390625 30.609375 48.390625 
z
M 30.609375 56 
Q 42.328125 56 49.015625 48.375 
Q 55.71875 40.765625 55.71875 27.296875 
Q 55.71875 13.875 49.015625 6.21875 
Q 42.328125 -1.421875 30.609375 -1.421875 
Q 18.84375 -1.421875 12.171875 6.21875 
Q 5.515625 13.875 5.515625 27.296875 
Q 5.515625 40.765625 12.171875 48.375 
Q 18.84375 56 30.609375 56 
z
" id="DejaVuSans-111"/>
      <path d="M 9.421875 75.984375 
L 18.40625 75.984375 
L 18.40625 0 
L 9.421875 0 
z
" id="DejaVuSans-108"/>
      <path id="DejaVuSans-32"/>
      <path d="M 9.421875 54.6875 
L 18.40625 54.6875 
L 18.40625 0 
L 9.421875 0 
z
M 9.421875 75.984375 
L 18.40625 75.984375 
L 18.40625 64.59375 
L 9.421875 64.59375 
z
" id="DejaVuSans-105"/>
      <path d="M 48.78125 52.59375 
L 48.78125 44.1875 
Q 44.96875 46.296875 41.140625 47.34375 
Q 37.3125 48.390625 33.40625 48.390625 
Q 24.65625 48.390625 19.8125 42.84375 
Q 14.984375 37.3125 14.984375 27.296875 
Q 14.984375 17.28125 19.8125 11.734375 
Q 24.65625 6.203125 33.40625 6.203125 
Q 37.3125 6.203125 41.140625 7.25 
Q 44.96875 8.296875 48.78125 10.40625 
L 48.78125 2.09375 
Q 45.015625 0.34375 40.984375 -0.53125 
Q 36.96875 -1.421875 32.421875 -1.421875 
Q 20.0625 -1.421875 12.78125 6.34375 
Q 5.515625 14.109375 5.515625 27.296875 
Q 5.515625 40.671875 12.859375 48.328125 
Q 20.21875 56 33.015625 56 
Q 37.15625 56 41.109375 55.140625 
Q 45.0625 54.296875 48.78125 52.59375 
z
" id="DejaVuSans-99"/>
      <path d="M 45.40625 46.390625 
L 45.40625 75.984375 
L 54.390625 75.984375 
L 54.390625 0 
L 45.40625 0 
L 45.40625 8.203125 
Q 42.578125 3.328125 38.25 0.953125 
Q 33.9375 -1.421875 27.875 -1.421875 
Q 17.96875 -1.421875 11.734375 6.484375 
Q 5.515625 14.40625 5.515625 27.296875 
Q 5.515625 40.1875 11.734375 48.09375 
Q 17.96875 56 27.875 56 
Q 33.9375 56 38.25 53.625 
Q 42.578125 51.265625 45.40625 46.390625 
z
M 14.796875 27.296875 
Q 14.796875 17.390625 18.875 11.75 
Q 22.953125 6.109375 30.078125 6.109375 
Q 37.203125 6.109375 41.296875 11.75 
Q 45.40625 17.390625 45.40625 27.296875 
Q 45.40625 37.203125 41.296875 42.84375 
Q 37.203125 48.484375 30.078125 48.484375 
Q 22.953125 48.484375 18.875 42.84375 
Q 14.796875 37.203125 14.796875 27.296875 
z
" id="DejaVuSans-100"/>
      <path d="M 56.203125 29.59375 
L 56.203125 25.203125 
L 14.890625 25.203125 
Q 15.484375 15.921875 20.484375 11.0625 
Q 25.484375 6.203125 34.421875 6.203125 
Q 39.59375 6.203125 44.453125 7.46875 
Q 49.3125 8.734375 54.109375 11.28125 
L 54.109375 2.78125 
Q 49.265625 0.734375 44.1875 -0.34375 
Q 39.109375 -1.421875 33.890625 -1.421875 
Q 20.796875 -1.421875 13.15625 6.1875 
Q 5.515625 13.8125 5.515625 26.8125 
Q 5.515625 40.234375 12.765625 48.109375 
Q 20.015625 56 32.328125 56 
Q 43.359375 56 49.78125 48.890625 
Q 56.203125 41.796875 56.203125 29.59375 
z
M 47.21875 32.234375 
Q 47.125 39.59375 43.09375 43.984375 
Q 39.0625 48.390625 32.421875 48.390625 
Q 24.90625 48.390625 20.390625 44.140625 
Q 15.875 39.890625 15.1875 32.171875 
z
" id="DejaVuSans-101"/>
      <path d="M 18.3125 70.21875 
L 18.3125 54.6875 
L 36.8125 54.6875 
L 36.8125 47.703125 
L 18.3125 47.703125 
L 18.3125 18.015625 
Q 18.3125 11.328125 20.140625 9.421875 
Q 21.96875 7.515625 27.59375 7.515625 
L 36.8125 7.515625 
L 36.8125 0 
L 27.59375 0 
Q 17.1875 0 13.234375 3.875 
Q 9.28125 7.765625 9.28125 18.015625 
L 9.28125 47.703125 
L 2.6875 47.703125 
L 2.6875 54.6875 
L 9.28125 54.6875 
L 9.28125 70.21875 
z
" id="DejaVuSans-116"/>
      <path d="M 8.59375 75.984375 
L 29.296875 75.984375 
L 29.296875 69 
L 17.578125 69 
L 17.578125 -6.203125 
L 29.296875 -6.203125 
L 29.296875 -13.1875 
L 8.59375 -13.1875 
z
" id="DejaVuSans-91"/>
      <path d="M 25 67.921875 
Q 21.09375 67.921875 18.40625 65.203125 
Q 15.71875 62.5 15.71875 58.59375 
Q 15.71875 54.734375 18.40625 52.078125 
Q 21.09375 49.421875 25 49.421875 
Q 28.90625 49.421875 31.59375 52.078125 
Q 34.28125 54.734375 34.28125 58.59375 
Q 34.28125 62.453125 31.5625 65.1875 
Q 28.859375 67.921875 25 67.921875 
z
M 25 74.21875 
Q 28.125 74.21875 31 73.015625 
Q 33.890625 71.828125 35.984375 69.578125 
Q 38.234375 67.390625 39.359375 64.59375 
Q 40.484375 61.8125 40.484375 58.59375 
Q 40.484375 52.15625 35.96875 47.6875 
Q 31.453125 43.21875 24.90625 43.21875 
Q 18.3125 43.21875 13.90625 47.609375 
Q 9.515625 52 9.515625 58.59375 
Q 9.515625 65.140625 14 69.671875 
Q 18.5 74.21875 25 74.21875 
z
" id="DejaVuSans-176"/>
      <path d="M 30.421875 75.984375 
L 30.421875 -13.1875 
L 9.71875 -13.1875 
L 9.71875 -6.203125 
L 21.390625 -6.203125 
L 21.390625 69 
L 9.71875 69 
L 9.71875 75.984375 
z
" id="DejaVuSans-93"/>
     </defs>
     <g transform="translate(186.156875 308.946963)scale(0.1 -0.1)">
      <use xlink:href="#DejaVuSans-65"/>
      <use x="68.408203" xlink:href="#DejaVuSans-110"/>
      <use x="131.787109" xlink:href="#DejaVuSans-103"/>
      <use x="195.263672" xlink:href="#DejaVuSans-111"/>
      <use x="256.445312" xlink:href="#DejaVuSans-108"/>
      <use x="284.228516" xlink:href="#DejaVuSans-111"/>
      <use x="345.410156" xlink:href="#DejaVuSans-32"/>
      <use x="377.197266" xlink:href="#DejaVuSans-105"/>
      <use x="404.980469" xlink:href="#DejaVuSans-110"/>
      <use x="468.359375" xlink:href="#DejaVuSans-99"/>
      <use x="523.339844" xlink:href="#DejaVuSans-105"/>
      <use x="551.123047" xlink:href="#DejaVuSans-100"/>
      <use x="614.599609" xlink:href="#DejaVuSans-101"/>
      <use x="676.123047" xlink:href="#DejaVuSans-110"/>
      <use x="739.501953" xlink:href="#DejaVuSans-116"/>
      <use x="778.710938" xlink:href="#DejaVuSans-101"/>
      <use x="840.234375" xlink:href="#DejaVuSans-32"/>
      <use x="872.021484" xlink:href="#DejaVuSans-91"/>
      <use x="911.035156" xlink:href="#DejaVuSans-176"/>
      <use x="961.035156" xlink:href="#DejaVuSans-93"/>
     </g>
    </g>
   </g>
   <g id="matplotlib.axis_2">
    <g id="ytick_1">
     <g id="line2d_11">
      <path clip-path="url(#pf45c859941)" d="M 57.6 242.38292 
L 414.72 242.38292 
" style="fill:none;stroke:#b0b0b0;stroke-linecap:square;stroke-width:0.8;"/>
     </g>
     <g id="line2d_12">
      <defs>
       <path d="M 0 0 
L -3.5 0 
" id="m9a1ca18e0e" style="stroke:#000000;stroke-width:0.8;"/>
      </defs>
      <g>
       <use style="stroke:#000000;stroke-width:0.8;" x="57.6" xlink:href="#m9a1ca18e0e" y="242.38292"/>
      </g>
     </g>
     <g id="text_7">
      <!-- 0.0 -->
      <defs>
       <path d="M 10.6875 12.40625 
L 21 12.40625 
L 21 0 
L 10.6875 0 
z
" id="DejaVuSans-46"/>
      </defs>
      <g transform="translate(34.696875 246.182139)scale(0.1 -0.1)">
       <use xlink:href="#DejaVuSans-48"/>
       <use x="63.623047" xlink:href="#DejaVuSans-46"/>
       <use x="95.410156" xlink:href="#DejaVuSans-48"/>
      </g>
     </g>
    </g>
    <g id="ytick_2">
     <g id="line2d_13">
      <path clip-path="url(#pf45c859941)" d="M 57.6 197.943837 
L 414.72 197.943837 
" style="fill:none;stroke:#b0b0b0;stroke-linecap:square;stroke-width:0.8;"/>
     </g>
     <g id="line2d_14">
      <g>
       <use style="stroke:#000000;stroke-width:0.8;" x="57.6" xlink:href="#m9a1ca18e0e" y="197.943837"/>
      </g>
     </g>
     <g id="text_8">
      <!-- 0.5 -->
      <defs>
       <path d="M 10.796875 72.90625 
L 49.515625 72.90625 
L 49.515625 64.59375 
L 19.828125 64.59375 
L 19.828125 46.734375 
Q 21.96875 47.46875 24.109375 47.828125 
Q 26.265625 48.1875 28.421875 48.1875 
Q 40.625 48.1875 47.75 41.5 
Q 54.890625 34.8125 54.890625 23.390625 
Q 54.890625 11.625 47.5625 5.09375 
Q 40.234375 -1.421875 26.90625 -1.421875 
Q 22.3125 -1.421875 17.546875 -0.640625 
Q 12.796875 0.140625 7.71875 1.703125 
L 7.71875 11.625 
Q 12.109375 9.234375 16.796875 8.0625 
Q 21.484375 6.890625 26.703125 6.890625 
Q 35.15625 6.890625 40.078125 11.328125 
Q 45.015625 15.765625 45.015625 23.390625 
Q 45.015625 31 40.078125 35.4375 
Q 35.15625 39.890625 26.703125 39.890625 
Q 22.75 39.890625 18.8125 39.015625 
Q 14.890625 38.140625 10.796875 36.28125 
z
" id="DejaVuSans-53"/>
      </defs>
      <g transform="translate(34.696875 201.743056)scale(0.1 -0.1)">
       <use xlink:href="#DejaVuSans-48"/>
       <use x="63.623047" xlink:href="#DejaVuSans-46"/>
       <use x="95.410156" xlink:href="#DejaVuSans-53"/>
      </g>
     </g>
    </g>
    <g id="ytick_3">
     <g id="line2d_15">
      <path clip-path="url(#pf45c859941)" d="M 57.6 153.504754 
L 414.72 153.504754 
" style="fill:none;stroke:#b0b0b0;stroke-linecap:square;stroke-width:0.8;"/>
     </g>
     <g id="line2d_16">
      <g>
       <use style="stroke:#000000;stroke-width:0.8;" x="57.6" xlink:href="#m9a1ca18e0e" y="153.504754"/>
      </g>
     </g>
     <g id="text_9">
      <!-- 1.0 -->
      <defs>
       <path d="M 12.40625 8.296875 
L 28.515625 8.296875 
L 28.515625 63.921875 
L 10.984375 60.40625 
L 10.984375 69.390625 
L 28.421875 72.90625 
L 38.28125 72.90625 
L 38.28125 8.296875 
L 54.390625 8.296875 
L 54.390625 0 
L 12.40625 0 
z
" id="DejaVuSans-49"/>
      </defs>
      <g transform="translate(34.696875 157.303972)scale(0.1 -0.1)">
       <use xlink:href="#DejaVuSans-49"/>
       <use x="63.623047" xlink:href="#DejaVuSans-46"/>
       <use x="95.410156" xlink:href="#DejaVuSans-48"/>
      </g>
     </g>
    </g>
    <g id="ytick_4">
     <g id="line2d_17">
      <path clip-path="url(#pf45c859941)" d="M 57.6 109.065671 
L 414.72 109.065671 
" style="fill:none;stroke:#b0b0b0;stroke-linecap:square;stroke-width:0.8;"/>
     </g>
     <g id="line2d_18">
      <g>
       <use style="stroke:#000000;stroke-width:0.8;" x="57.6" xlink:href="#m9a1ca18e0e" y="109.065671"/>
      </g>
     </g>
     <g id="text_10">
      <!-- 1.5 -->
      <g transform="translate(34.696875 112.864889)scale(0.1 -0.1)">
       <use xlink:href="#DejaVuSans-49"/>
       <use x="63.623047" xlink:href="#DejaVuSans-46"/>
       <use x="95.410156" xlink:href="#DejaVuSans-53"/>
      </g>
     </g>
    </g>
    <g id="ytick_5">
     <g id="line2d_19">
      <path clip-path="url(#pf45c859941)" d="M 57.6 64.626587 
L 414.72 64.626587 
" style="fill:none;stroke:#b0b0b0;stroke-linecap:square;stroke-width:0.8;"/>
     </g>
     <g id="line2d_20">
      <g>
       <use style="stroke:#000000;stroke-width:0.8;" x="57.6" xlink:href="#m9a1ca18e0e" y="64.626587"/>
      </g>
     </g>
     <g id="text_11">
      <!-- 2.0 -->
      <g transform="translate(34.696875 68.425806)scale(0.1 -0.1)">
       <use xlink:href="#DejaVuSans-50"/>
       <use x="63.623047" xlink:href="#DejaVuSans-46"/>
       <use x="95.410156" xlink:href="#DejaVuSans-48"/>
      </g>
     </g>
    </g>
   </g>
   <g id="line2d_21">
    <path clip-path="url(#pf45c859941)" d="M 73.832727 235.204619 
L 75.136561 235.267828 
L 76.440394 235.45636 
L 77.744228 235.766815 
L 80.351895 236.726362 
L 82.959562 238.05702 
L 88.174896 241.081447 
L 89.478729 241.691129 
L 90.782563 242.137785 
L 92.086396 242.358886 
L 93.39023 242.289387 
L 94.694064 241.865577 
L 95.997897 241.030282 
L 97.301731 239.739377 
L 98.605564 237.969406 
L 99.909398 235.725822 
L 101.213231 233.051123 
L 103.820898 226.802604 
L 106.428565 220.491314 
L 107.732399 217.892335 
L 109.036232 216.016373 
L 110.340066 215.110801 
L 111.643899 215.369169 
L 112.947733 216.89331 
L 114.251566 219.657538 
L 115.5554 223.481692 
L 119.4669 237.147881 
L 120.770734 240.489477 
L 122.074567 242.224766 
L 123.378401 241.951795 
L 124.682234 239.551714 
L 125.986068 235.26563 
L 129.897568 218.787983 
L 131.201402 215.635284 
L 132.505235 215.195743 
L 133.809069 217.749573 
L 135.112903 222.895677 
L 137.72057 236.108683 
L 139.024403 240.846085 
L 140.328237 242.349976 
L 141.63207 240.002264 
L 142.935904 234.275191 
L 145.543571 219.669104 
L 146.847404 215.42997 
L 148.151238 215.60435 
L 149.455071 220.356066 
L 152.062738 236.30258 
L 153.366572 241.570079 
L 154.670405 241.742437 
L 155.974239 236.507072 
L 158.581906 219.371562 
L 159.885739 214.929578 
L 161.189573 216.742646 
L 162.493406 224.208839 
L 163.79724 233.90016 
L 165.101073 241.021051 
L 166.404907 241.776951 
L 167.70874 235.505086 
L 169.012574 225.339054 
L 170.316407 216.801629 
L 171.620241 214.838255 
L 172.924074 220.840147 
L 174.227908 231.483267 
L 175.531742 240.37256 
L 176.835575 241.830879 
L 178.139409 234.642612 
L 179.443242 223.234641 
L 180.747076 215.141854 
L 182.050909 216.041017 
L 183.354743 225.585654 
L 184.658576 237.1813 
L 185.96241 242.363021 
L 187.266243 237.021801 
L 188.570077 224.88655 
L 189.87391 215.186772 
L 191.177744 215.68971 
L 192.481577 226.278447 
L 193.785411 238.489391 
L 195.089244 242.07097 
L 196.393078 233.669046 
L 197.696911 220.22894 
L 199.000745 213.503207 
L 200.304578 219.727383 
L 201.608412 233.518817 
L 202.912245 242.170984 
L 204.216079 237.282862 
L 205.519912 223.15204 
L 206.823746 213.333939 
L 208.127579 217.678232 
L 209.431413 232.128191 
L 210.735246 242.070753 
L 212.03908 236.970708 
L 213.342913 221.759021 
L 214.646747 212.415935 
L 215.950581 219.190407 
L 217.254414 234.970654 
L 218.558248 242.291444 
L 219.862081 232.570394 
L 221.165915 216.433428 
L 222.469748 212.370873 
L 223.773582 225.382508 
L 225.077415 240.329663 
L 226.381249 239.164623 
L 227.685082 222.794147 
L 228.988916 210.89756 
L 230.292749 218.301064 
L 231.596583 236.052828 
L 232.900416 241.694317 
L 234.20425 227.533123 
L 235.508083 211.332189 
L 236.811917 214.157679 
L 238.11575 232.603147 
L 239.419584 242.246779 
L 240.723417 229.690195 
L 242.027251 211.292181 
L 243.331084 211.988927 
L 244.634918 231.122149 
L 245.938751 242.270765 
L 247.242585 229.347349 
L 248.546418 209.835188 
L 249.850252 211.199657 
L 251.154085 231.796562 
L 252.457919 242.08333 
L 253.761752 226.557932 
L 255.065586 207.038106 
L 256.369419 211.931595 
L 257.673253 234.35439 
L 258.977087 241.05737 
L 260.28092 221.271785 
L 261.584754 203.759805 
L 262.888587 214.746483 
L 264.192421 237.982551 
L 265.496254 238.014378 
L 266.800088 213.787118 
L 268.103921 201.46149 
L 269.407755 219.967718 
L 270.711588 241.168934 
L 272.015422 231.877942 
L 273.319255 205.215 
L 274.623089 201.699725 
L 275.926922 227.000173 
L 277.230756 241.998009 
L 278.534589 222.478794 
L 279.838423 197.408597 
L 281.142256 205.255262 
L 282.44609 234.165306 
L 283.749923 239.037465 
L 285.053757 210.968324 
L 286.35759 192.115935 
L 287.661424 211.453587 
L 288.965257 239.425865 
L 290.269091 232.272505 
L 291.572924 199.31151 
L 292.876758 189.8397 
L 294.180591 218.357677 
L 295.484425 241.624405 
L 296.788258 223.281067 
L 298.092092 189.09402 
L 299.395926 189.306071 
L 300.699759 223.760861 
L 302.003593 241.263966 
L 303.307426 214.534084 
L 304.61126 180.659276 
L 305.915093 187.892278 
L 307.218927 225.976675 
L 308.52276 240.193103 
L 309.826594 208.685185 
L 311.130427 173.504524 
L 312.434261 182.484437 
L 313.738094 223.358265 
L 315.041928 240.22889 
L 316.345761 208.693507 
L 317.649595 168.28462 
L 318.953428 170.559381 
L 320.257262 212.414754 
L 321.561095 240.323315 
L 322.864929 217.82604 
L 324.168762 170.353372 
L 325.472596 153.649774 
L 326.776429 186.921004 
L 328.080263 230.978347 
L 329.384096 234.310598 
L 331.991763 147.065525 
L 333.295597 147.843589 
L 335.903264 233.479805 
L 337.207097 229.61737 
L 339.814765 135.084446 
L 341.118598 129.51446 
L 342.422432 169.491792 
L 343.726265 219.198649 
L 345.030099 235.83601 
L 346.333932 204.892346 
L 347.637766 149.55656 
L 348.941599 110.30727 
L 350.245433 113.973825 
L 351.549266 156.072544 
L 352.8531 206.697784 
L 354.156933 232.335395 
L 355.460767 216.979129 
L 356.7646 169.66801 
L 358.068434 116.452118 
L 359.372267 84.273905 
L 360.676101 87.075521 
L 361.979934 120.844214 
L 363.283768 168.107912 
L 364.587601 207.641214 
L 365.891435 223.81362 
L 367.195268 211.680577 
L 368.499102 176.830053 
L 371.106769 88.926059 
L 372.410602 59.730751 
L 373.714436 48.8808 
L 375.018269 55.968899 
L 376.322103 76.574585 
L 378.92977 132.88383 
L 380.233604 157.18202 
L 381.537437 174.147009 
L 382.841271 182.653349 
L 384.145104 183.144074 
L 385.448938 177.07372 
L 386.752771 166.35987 
L 389.360438 138.516663 
L 391.968105 111.259514 
L 393.271939 99.665176 
L 394.575772 83.00712 
L 397.183439 71.010892 
L 398.487273 64.626587 
L 398.487273 64.626587 
" style="fill:none;stroke:#1f77b4;stroke-linecap:square;stroke-width:1.5;"/>
   </g>
   <g id="line2d_22">
    <path clip-path="url(#pf45c859941)" d="M 73.832727 242.38292 
L 98.605564 242.301005 
L 102.517065 242.07609 
L 112.947733 241.199421 
L 115.5554 241.382297 
L 122.074567 242.369967 
L 123.378401 242.348771 
L 124.682234 242.157109 
L 125.986068 241.788183 
L 128.593735 240.674996 
L 129.897568 240.102206 
L 131.201402 239.67302 
L 132.505235 239.498543 
L 133.809069 239.648561 
L 135.112903 240.12143 
L 139.024403 242.17741 
L 140.328237 242.375096 
L 141.63207 242.039623 
L 142.935904 241.175433 
L 145.543571 238.737655 
L 146.847404 237.893575 
L 148.151238 237.755898 
L 149.455071 238.436351 
L 153.366572 242.216615 
L 154.670405 242.246331 
L 155.974239 241.128986 
L 158.581906 237.15776 
L 159.885739 235.948689 
L 161.189573 236.181882 
L 162.493406 237.847942 
L 163.79724 240.197529 
L 165.101073 242.016109 
L 166.404907 242.211226 
L 167.70874 240.445258 
L 169.012574 237.451164 
L 170.316407 234.771268 
L 171.620241 233.954996 
L 172.924074 235.605292 
L 174.227908 238.855339 
L 175.531742 241.708244 
L 176.835575 242.18692 
L 178.139409 239.668118 
L 179.443242 235.503659 
L 180.747076 232.347402 
L 182.050909 232.431416 
L 183.354743 235.874667 
L 184.658576 240.311306 
L 185.96241 242.365544 
L 187.266243 240.143213 
L 188.570077 234.921632 
L 189.87391 230.518555 
L 191.177744 230.468255 
L 192.481577 235.026427 
L 193.785411 240.55641 
L 195.089244 242.223567 
L 196.393078 238.126397 
L 197.696911 231.34459 
L 199.000745 227.690558 
L 200.304578 230.612776 
L 201.608412 237.675557 
L 202.912245 242.256699 
L 204.216079 239.558842 
L 205.519912 231.556912 
L 206.823746 225.717511 
L 208.127579 227.936172 
L 209.431413 236.265727 
L 210.735246 242.181109 
L 212.03908 239.028414 
L 213.342913 229.406543 
L 214.646747 223.200532 
L 215.950581 227.276124 
L 217.254414 237.463559 
L 218.558248 242.308265 
L 219.862081 235.656944 
L 221.165915 224.330583 
L 222.469748 221.175693 
L 223.773582 230.177699 
L 225.077415 240.874745 
L 226.381249 239.991571 
L 227.685082 227.683556 
L 228.988916 218.427421 
L 230.292749 223.801744 
L 231.596583 237.422624 
L 232.900416 241.824682 
L 234.20425 230.457234 
L 235.508083 217.145588 
L 236.811917 219.158864 
L 238.11575 234.231778 
L 239.419584 242.256245 
L 240.723417 231.564584 
L 242.027251 215.611353 
L 243.331084 215.934376 
L 244.634918 232.476896 
L 245.938751 242.272762 
L 247.242585 230.694875 
L 248.546418 212.948751 
L 249.850252 213.935165 
L 251.154085 232.638233 
L 252.457919 242.096604 
L 253.761752 227.59235 
L 255.065586 209.118958 
L 256.369419 213.526639 
L 257.673253 234.720871 
L 258.977087 241.10525 
L 260.28092 222.009167 
L 261.584754 204.916686 
L 262.888587 215.442483 
L 264.192421 238.071125 
L 265.496254 238.08548 
L 266.800088 214.168375 
L 268.103921 201.878856 
L 269.407755 220.133988 
L 270.711588 241.174018 
L 272.015422 231.911193 
L 273.319255 205.280075 
L 274.623089 201.72918 
L 275.926922 227.002328 
L 277.230756 241.99801 
L 278.534589 222.485375 
L 279.838423 197.458805 
L 281.142256 205.34281 
L 282.44609 234.197574 
L 283.749923 239.056183 
L 285.053757 211.24675 
L 286.35759 192.720389 
L 287.661424 211.933871 
L 288.965257 239.475373 
L 290.269091 232.507646 
L 291.572924 200.56687 
L 292.876758 191.66146 
L 294.180591 219.320165 
L 295.484425 241.631588 
L 296.788258 224.286677 
L 298.092092 192.350033 
L 299.395926 192.958932 
L 300.699759 225.156026 
L 302.003593 241.291625 
L 303.307426 217.129221 
L 304.61126 187.093565 
L 305.915093 194.096961 
L 307.218927 227.923856 
L 308.52276 240.348063 
L 309.826594 213.529839 
L 311.130427 184.368357 
L 312.434261 192.60909 
L 313.738094 226.634568 
L 315.041928 240.375207 
L 316.345761 215.500253 
L 317.649595 184.608286 
L 318.953428 187.332764 
L 320.257262 219.558853 
L 321.561095 240.367156 
L 322.864929 224.211741 
L 324.168762 191.222211 
L 325.472596 180.819345 
L 326.776429 204.438424 
L 328.080263 234.045569 
L 329.384096 236.258016 
L 331.991763 183.661304 
L 333.295597 185.63156 
L 334.59943 212.24325 
L 335.903264 235.839778 
L 337.207097 233.769993 
L 339.814765 186.904314 
L 341.118598 186.005178 
L 342.422432 206.236169 
L 343.726265 229.243789 
L 345.030099 236.410929 
L 346.333932 223.773286 
L 347.637766 202.957846 
L 348.941599 190.116613 
L 350.245433 193.558546 
L 352.8531 225.976937 
L 354.156933 233.48431 
L 355.460767 229.065686 
L 358.068434 206.225789 
L 359.372267 201.471868 
L 360.676101 204.431979 
L 363.283768 220.748488 
L 364.587601 226.235659 
L 365.891435 227.626411 
L 367.195268 225.921828 
L 368.499102 223.192517 
L 369.802935 221.338936 
L 371.106769 221.3042 
L 372.410602 222.931959 
L 373.714436 225.319614 
L 375.018269 227.365368 
L 376.322103 228.236318 
L 377.625936 227.610678 
L 378.92977 225.68132 
L 381.537437 220.232934 
L 382.841271 218.008663 
L 384.145104 216.745967 
L 385.448938 216.631252 
L 386.752771 217.634102 
L 388.056605 219.566537 
L 389.360438 222.155729 
L 393.271939 231.176073 
L 394.575772 235.638472 
L 397.183439 239.965539 
L 398.487273 242.38292 
L 398.487273 242.38292 
" style="fill:none;stroke:#ff7f0e;stroke-linecap:square;stroke-width:1.5;"/>
   </g>
   <g id="line2d_23">
    <path clip-path="url(#pf45c859941)" d="M 73.832727 249.561221 
L 75.136561 249.498012 
L 76.440394 249.30948 
L 77.744228 248.999025 
L 80.351895 248.039474 
L 82.959562 246.708806 
L 88.174896 243.684367 
L 89.478729 243.074689 
L 90.782563 242.628042 
L 92.086396 242.406948 
L 93.39023 242.47644 
L 94.694064 242.90021 
L 95.997897 243.7354 
L 97.301731 245.026087 
L 98.605564 246.795667 
L 99.909398 249.038605 
L 101.213231 251.712317 
L 103.820898 257.957481 
L 106.428565 264.263225 
L 107.732399 266.8587 
L 109.036232 268.730906 
L 110.340066 269.6328 
L 111.643899 269.371279 
L 112.947733 267.845036 
L 114.251566 265.080289 
L 115.5554 261.257621 
L 119.4669 247.607236 
L 120.770734 244.271869 
L 122.074567 242.540423 
L 123.378401 242.812551 
L 124.682234 245.204962 
L 125.986068 249.475186 
L 129.897568 265.867336 
L 131.201402 268.992921 
L 132.505235 269.416656 
L 133.809069 266.864004 
L 135.112903 261.738396 
L 137.72057 248.606217 
L 139.024403 243.905532 
L 140.328237 242.414608 
L 141.63207 244.738214 
L 142.935904 250.399827 
L 145.543571 264.802205 
L 146.847404 268.959349 
L 148.151238 268.758694 
L 149.455071 264.05317 
L 152.062738 248.348452 
L 153.366572 243.177585 
L 154.670405 243.007617 
L 155.974239 248.122489 
L 158.581906 264.79297 
L 159.885739 269.071611 
L 161.189573 267.261933 
L 162.493406 259.981548 
L 163.79724 250.578147 
L 165.101073 243.692737 
L 166.404907 242.962196 
L 167.70874 248.980622 
L 169.012574 258.696829 
L 170.316407 266.805372 
L 171.620241 268.606523 
L 172.924074 262.831167 
L 174.227908 252.694287 
L 175.531742 244.274025 
L 176.835575 242.896076 
L 178.139409 249.629199 
L 179.443242 260.251719 
L 180.747076 267.707979 
L 182.050909 266.772504 
L 183.354743 257.866506 
L 184.658576 247.150837 
L 185.96241 242.392611 
L 187.266243 247.250079 
L 188.570077 258.206759 
L 189.87391 266.854468 
L 191.177744 266.269157 
L 192.481577 256.706572 
L 193.785411 245.816453 
L 195.089244 242.645371 
L 196.393078 249.982036 
L 197.696911 261.589569 
L 199.000745 267.245991 
L 200.304578 261.739475 
L 201.608412 249.888556 
L 202.912245 242.545929 
L 204.216079 246.622965 
L 205.519912 258.274152 
L 206.823746 266.175829 
L 208.127579 262.42171 
L 209.431413 250.607053 
L 210.735246 242.611727 
L 212.03908 246.621743 
L 213.342913 258.40952 
L 214.646747 265.405845 
L 215.950581 259.977907 
L 217.254414 247.918413 
L 218.558248 242.426312 
L 219.862081 249.518952 
L 221.165915 261.021939 
L 222.469748 263.61876 
L 223.773582 254.210682 
L 225.077415 243.762741 
L 226.381249 244.523346 
L 227.685082 255.325011 
L 228.988916 262.814717 
L 230.292749 257.698068 
L 231.596583 246.302124 
L 232.900416 242.76978 
L 234.20425 251.221783 
L 235.508083 260.471399 
L 236.811917 258.421118 
L 238.11575 247.773616 
L 239.419584 242.418373 
L 240.723417 249.009173 
L 242.027251 258.190078 
L 243.331084 257.356347 
L 244.634918 247.724075 
L 245.938751 242.393355 
L 247.242585 248.141714 
L 248.546418 256.273193 
L 249.850252 255.152189 
L 251.154085 246.504487 
L 252.457919 242.452664 
L 253.761752 247.998303 
L 255.065586 254.330442 
L 256.369419 252.105208 
L 257.673253 244.76448 
L 258.977087 242.716689 
L 260.28092 247.904686 
L 261.584754 251.765024 
L 262.888587 248.540552 
L 264.192421 243.245454 
L 265.496254 243.152797 
L 266.800088 247.032124 
L 268.103921 248.212408 
L 269.407755 245.101946 
L 270.711588 242.483304 
L 272.015422 243.210871 
L 273.319255 244.580305 
L 274.623089 243.930355 
L 275.926922 242.638854 
L 277.230756 242.382497 
L 278.534589 241.873365 
L 279.838423 240.258655 
L 281.142256 239.837257 
L 282.44609 241.668677 
L 283.749923 242.048627 
L 286.35759 234.611003 
L 287.661424 236.968785 
L 288.965257 241.885625 
L 290.269091 240.258036 
L 291.572924 232.072212 
L 292.876758 228.669852 
L 295.484425 242.3333 
L 296.788258 236.335633 
L 298.092092 224.051924 
L 299.395926 223.047503 
L 300.699759 235.410487 
L 302.003593 242.241592 
L 303.307426 230.742954 
L 304.61126 214.952405 
L 305.915093 217.16741 
L 307.218927 234.80822 
L 308.52276 241.779998 
L 309.826594 225.122721 
L 311.130427 205.264615 
L 312.434261 209.120814 
L 313.738094 231.982987 
L 315.041928 241.873478 
L 316.345761 222.326411 
L 317.649595 196.016715 
L 318.953428 196.309722 
L 320.257262 223.319287 
L 321.561095 242.135102 
L 322.864929 226.330361 
L 324.168762 191.810844 
L 325.472596 178.492621 
L 326.776429 202.264155 
L 328.080263 235.327788 
L 329.384096 237.887079 
L 331.991763 167.362902 
L 333.295597 166.87268 
L 335.903264 237.359187 
L 337.207097 234.094651 
L 339.814765 150.661495 
L 341.118598 144.684762 
L 342.422432 179.855261 
L 343.726265 224.802907 
L 345.030099 240.178015 
L 346.333932 211.42052 
L 347.637766 159.095264 
L 348.941599 121.149915 
L 350.245433 123.820959 
L 351.549266 163.828322 
L 352.8531 212.844944 
L 354.156933 238.055762 
L 355.460767 223.05502 
L 356.7646 176.038644 
L 358.068434 122.557934 
L 359.372267 89.713982 
L 360.676101 92.009985 
L 361.979934 125.896945 
L 363.283768 173.922046 
L 364.587601 214.433155 
L 365.891435 231.201496 
L 367.195268 218.849283 
L 368.499102 182.900948 
L 371.106769 91.581994 
L 372.410602 61.068802 
L 373.714436 49.635949 
L 375.018269 56.937325 
L 376.322103 78.393818 
L 378.92977 137.138163 
L 380.233604 162.448903 
L 381.537437 180.046485 
L 382.841271 188.75449 
L 384.145104 189.051118 
L 385.448938 182.479629 
L 386.752771 171.067107 
L 389.360438 141.632777 
L 391.968105 112.961411 
L 393.271939 100.801864 
L 394.575772 83.14989 
L 397.183439 71.027942 
L 398.487273 64.626587 
L 398.487273 64.626587 
" style="fill:none;stroke:#2ca02c;stroke-linecap:square;stroke-width:1.5;"/>
   </g>
   <g id="line2d_24">
    <path clip-path="url(#pf45c859941)" d="M 73.832727 242.38292 
L 155.974239 242.485796 
L 158.581906 242.482725 
L 163.79724 242.243162 
L 169.012574 242.548735 
L 175.531742 242.282525 
L 178.139409 242.566368 
L 179.443242 242.578814 
L 183.354743 242.160762 
L 184.658576 242.203392 
L 187.266243 242.572853 
L 188.570077 242.624309 
L 192.481577 242.120164 
L 193.785411 242.197781 
L 196.393078 242.641844 
L 197.696911 242.625307 
L 200.304578 242.136282 
L 201.608412 242.102765 
L 205.519912 242.687976 
L 209.431413 242.061907 
L 212.03908 242.650711 
L 213.342913 242.709911 
L 215.950581 242.076649 
L 217.254414 242.066863 
L 219.862081 242.734997 
L 221.165915 242.659007 
L 222.469748 242.258141 
L 223.773582 241.994806 
L 225.077415 242.189617 
L 226.381249 242.622638 
L 227.685082 242.771487 
L 230.292749 242.03375 
L 231.596583 242.058297 
L 232.900416 242.49643 
L 234.20425 242.794013 
L 235.508083 242.56164 
L 236.811917 242.09369 
L 238.11575 242.004438 
L 240.723417 242.784976 
L 242.027251 242.608768 
L 243.331084 242.126423 
L 244.634918 241.998586 
L 247.242585 242.772813 
L 248.546418 242.594839 
L 249.850252 242.124184 
L 251.154085 242.029737 
L 253.761752 242.752705 
L 255.065586 242.529511 
L 256.369419 242.108326 
L 257.673253 242.102795 
L 258.977087 242.497984 
L 260.28092 242.699624 
L 262.888587 242.120076 
L 264.192421 242.216467 
L 265.496254 242.536097 
L 266.800088 242.593216 
L 269.407755 242.200684 
L 272.015422 242.492408 
L 279.838423 242.349655 
L 281.142256 242.495982 
L 282.44609 242.521349 
L 285.053757 242.099024 
L 287.661424 242.790591 
L 288.965257 242.590387 
L 290.269091 241.953608 
L 291.572924 241.879307 
L 292.876758 242.657276 
L 294.180591 243.167737 
L 295.484425 242.474481 
L 296.788258 241.467997 
L 298.092092 241.757072 
L 299.395926 243.133189 
L 300.699759 243.566302 
L 303.307426 240.859924 
L 304.61126 241.70297 
L 305.915093 243.751955 
L 307.218927 244.033452 
L 308.52276 241.843345 
L 309.826594 240.119608 
L 311.130427 241.50239 
L 312.434261 244.389518 
L 313.738094 244.784649 
L 315.041928 241.791819 
L 316.345761 239.215089 
L 317.649595 240.702196 
L 318.953428 244.698413 
L 320.257262 246.088437 
L 321.561095 242.725347 
L 322.864929 238.488828 
L 324.168762 238.735626 
L 325.472596 243.61864 
L 326.776429 247.552459 
L 328.080263 245.665902 
L 329.384096 239.656136 
L 330.68793 236.146952 
L 331.991763 239.35398 
L 333.295597 246.278028 
L 334.59943 249.704187 
L 335.903264 245.73178 
L 337.207097 237.901699 
L 338.510931 233.792214 
L 339.814765 237.664113 
L 341.118598 246.37158 
L 342.422432 252.222678 
L 343.726265 249.853982 
L 346.333932 232.355234 
L 347.637766 231.177433 
L 348.941599 238.539883 
L 350.245433 249.321053 
L 351.549266 255.97962 
L 352.8531 253.862495 
L 354.156933 244.127395 
L 355.460767 232.665092 
L 356.7646 226.227857 
L 358.068434 228.48323 
L 359.372267 238.266905 
L 360.676101 250.634868 
L 361.979934 259.682686 
L 363.283768 261.404932 
L 364.587601 255.230596 
L 367.195268 231.527771 
L 368.499102 222.614212 
L 369.802935 219.71648 
L 371.106769 223.309993 
L 372.410602 231.958641 
L 375.018269 253.984285 
L 376.322103 262.379219 
L 377.625936 267.005186 
L 378.92977 267.575148 
L 380.233604 264.606151 
L 381.537437 259.10675 
L 385.448938 238.676308 
L 386.752771 233.379862 
L 388.056605 229.556943 
L 389.360438 227.267735 
L 390.664272 226.419006 
L 391.968105 226.836821 
L 393.271939 228.327121 
L 394.575772 242.38292 
L 398.487273 242.38292 
L 398.487273 242.38292 
" style="fill:none;stroke:#d62728;stroke-linecap:square;stroke-width:1.5;"/>
   </g>
   <g id="patch_3">
    <path d="M 57.6 280.6704 
L 57.6 37.8432 
" style="fill:none;stroke:#000000;stroke-linecap:square;stroke-linejoin:miter;stroke-width:0.8;"/>
   </g>
   <g id="patch_4">
    <path d="M 414.72 280.6704 
L 414.72 37.8432 
" style="fill:none;stroke:#000000;stroke-linecap:square;stroke-linejoin:miter;stroke-width:0.8;"/>
   </g>
   <g id="patch_5">
    <path d="M 57.6 280.6704 
L 414.72 280.6704 
" style="fill:none;stroke:#000000;stroke-linecap:square;stroke-linejoin:miter;stroke-width:0.8;"/>
   </g>
   <g id="patch_6">
    <path d="M 57.6 37.8432 
L 414.72 37.8432 
" style="fill:none;stroke:#000000;stroke-linecap:square;stroke-linejoin:miter;stroke-width:0.8;"/>
   </g>
   <g id="text_12">
    <!-- Componenti vettori di Stokes -->
    <defs>
     <path d="M 64.40625 67.28125 
L 64.40625 56.890625 
Q 59.421875 61.53125 53.78125 63.8125 
Q 48.140625 66.109375 41.796875 66.109375 
Q 29.296875 66.109375 22.65625 58.46875 
Q 16.015625 50.828125 16.015625 36.375 
Q 16.015625 21.96875 22.65625 14.328125 
Q 29.296875 6.6875 41.796875 6.6875 
Q 48.140625 6.6875 53.78125 8.984375 
Q 59.421875 11.28125 64.40625 15.921875 
L 64.40625 5.609375 
Q 59.234375 2.09375 53.4375 0.328125 
Q 47.65625 -1.421875 41.21875 -1.421875 
Q 24.65625 -1.421875 15.125 8.703125 
Q 5.609375 18.84375 5.609375 36.375 
Q 5.609375 53.953125 15.125 64.078125 
Q 24.65625 74.21875 41.21875 74.21875 
Q 47.75 74.21875 53.53125 72.484375 
Q 59.328125 70.75 64.40625 67.28125 
z
" id="DejaVuSans-67"/>
     <path d="M 52 44.1875 
Q 55.375 50.25 60.0625 53.125 
Q 64.75 56 71.09375 56 
Q 79.640625 56 84.28125 50.015625 
Q 88.921875 44.046875 88.921875 33.015625 
L 88.921875 0 
L 79.890625 0 
L 79.890625 32.71875 
Q 79.890625 40.578125 77.09375 44.375 
Q 74.3125 48.1875 68.609375 48.1875 
Q 61.625 48.1875 57.5625 43.546875 
Q 53.515625 38.921875 53.515625 30.90625 
L 53.515625 0 
L 44.484375 0 
L 44.484375 32.71875 
Q 44.484375 40.625 41.703125 44.40625 
Q 38.921875 48.1875 33.109375 48.1875 
Q 26.21875 48.1875 22.15625 43.53125 
Q 18.109375 38.875 18.109375 30.90625 
L 18.109375 0 
L 9.078125 0 
L 9.078125 54.6875 
L 18.109375 54.6875 
L 18.109375 46.1875 
Q 21.1875 51.21875 25.484375 53.609375 
Q 29.78125 56 35.6875 56 
Q 41.65625 56 45.828125 52.96875 
Q 50 49.953125 52 44.1875 
z
" id="DejaVuSans-109"/>
     <path d="M 18.109375 8.203125 
L 18.109375 -20.796875 
L 9.078125 -20.796875 
L 9.078125 54.6875 
L 18.109375 54.6875 
L 18.109375 46.390625 
Q 20.953125 51.265625 25.265625 53.625 
Q 29.59375 56 35.59375 56 
Q 45.5625 56 51.78125 48.09375 
Q 58.015625 40.1875 58.015625 27.296875 
Q 58.015625 14.40625 51.78125 6.484375 
Q 45.5625 -1.421875 35.59375 -1.421875 
Q 29.59375 -1.421875 25.265625 0.953125 
Q 20.953125 3.328125 18.109375 8.203125 
z
M 48.6875 27.296875 
Q 48.6875 37.203125 44.609375 42.84375 
Q 40.53125 48.484375 33.40625 48.484375 
Q 26.265625 48.484375 22.1875 42.84375 
Q 18.109375 37.203125 18.109375 27.296875 
Q 18.109375 17.390625 22.1875 11.75 
Q 26.265625 6.109375 33.40625 6.109375 
Q 40.53125 6.109375 44.609375 11.75 
Q 48.6875 17.390625 48.6875 27.296875 
z
" id="DejaVuSans-112"/>
     <path d="M 2.984375 54.6875 
L 12.5 54.6875 
L 29.59375 8.796875 
L 46.6875 54.6875 
L 56.203125 54.6875 
L 35.6875 0 
L 23.484375 0 
z
" id="DejaVuSans-118"/>
     <path d="M 41.109375 46.296875 
Q 39.59375 47.171875 37.8125 47.578125 
Q 36.03125 48 33.890625 48 
Q 26.265625 48 22.1875 43.046875 
Q 18.109375 38.09375 18.109375 28.8125 
L 18.109375 0 
L 9.078125 0 
L 9.078125 54.6875 
L 18.109375 54.6875 
L 18.109375 46.1875 
Q 20.953125 51.171875 25.484375 53.578125 
Q 30.03125 56 36.53125 56 
Q 37.453125 56 38.578125 55.875 
Q 39.703125 55.765625 41.0625 55.515625 
z
" id="DejaVuSans-114"/>
     <path d="M 53.515625 70.515625 
L 53.515625 60.890625 
Q 47.90625 63.578125 42.921875 64.890625 
Q 37.9375 66.21875 33.296875 66.21875 
Q 25.25 66.21875 20.875 63.09375 
Q 16.5 59.96875 16.5 54.203125 
Q 16.5 49.359375 19.40625 46.890625 
Q 22.3125 44.4375 30.421875 42.921875 
L 36.375 41.703125 
Q 47.40625 39.59375 52.65625 34.296875 
Q 57.90625 29 57.90625 20.125 
Q 57.90625 9.515625 50.796875 4.046875 
Q 43.703125 -1.421875 29.984375 -1.421875 
Q 24.8125 -1.421875 18.96875 -0.25 
Q 13.140625 0.921875 6.890625 3.21875 
L 6.890625 13.375 
Q 12.890625 10.015625 18.65625 8.296875 
Q 24.421875 6.59375 29.984375 6.59375 
Q 38.421875 6.59375 43.015625 9.90625 
Q 47.609375 13.234375 47.609375 19.390625 
Q 47.609375 24.75 44.3125 27.78125 
Q 41.015625 30.8125 33.5 32.328125 
L 27.484375 33.5 
Q 16.453125 35.6875 11.515625 40.375 
Q 6.59375 45.0625 6.59375 53.421875 
Q 6.59375 63.09375 13.40625 68.65625 
Q 20.21875 74.21875 32.171875 74.21875 
Q 37.3125 74.21875 42.625 73.28125 
Q 47.953125 72.359375 53.515625 70.515625 
z
" id="DejaVuSans-83"/>
     <path d="M 9.078125 75.984375 
L 18.109375 75.984375 
L 18.109375 31.109375 
L 44.921875 54.6875 
L 56.390625 54.6875 
L 27.390625 29.109375 
L 57.625 0 
L 45.90625 0 
L 18.109375 26.703125 
L 18.109375 0 
L 9.078125 0 
z
" id="DejaVuSans-107"/>
     <path d="M 44.28125 53.078125 
L 44.28125 44.578125 
Q 40.484375 46.53125 36.375 47.5 
Q 32.28125 48.484375 27.875 48.484375 
Q 21.1875 48.484375 17.84375 46.4375 
Q 14.5 44.390625 14.5 40.28125 
Q 14.5 37.15625 16.890625 35.375 
Q 19.28125 33.59375 26.515625 31.984375 
L 29.59375 31.296875 
Q 39.15625 29.25 43.1875 25.515625 
Q 47.21875 21.78125 47.21875 15.09375 
Q 47.21875 7.46875 41.1875 3.015625 
Q 35.15625 -1.421875 24.609375 -1.421875 
Q 20.21875 -1.421875 15.453125 -0.5625 
Q 10.6875 0.296875 5.421875 2 
L 5.421875 11.28125 
Q 10.40625 8.6875 15.234375 7.390625 
Q 20.0625 6.109375 24.8125 6.109375 
Q 31.15625 6.109375 34.5625 8.28125 
Q 37.984375 10.453125 37.984375 14.40625 
Q 37.984375 18.0625 35.515625 20.015625 
Q 33.0625 21.96875 24.703125 23.78125 
L 21.578125 24.515625 
Q 13.234375 26.265625 9.515625 29.90625 
Q 5.8125 33.546875 5.8125 39.890625 
Q 5.8125 47.609375 11.28125 51.796875 
Q 16.75 56 26.8125 56 
Q 31.78125 56 36.171875 55.265625 
Q 40.578125 54.546875 44.28125 53.078125 
z
" id="DejaVuSans-115"/>
    </defs>
    <g transform="translate(148.588125 31.8432)scale(0.12 -0.12)">
     <use xlink:href="#DejaVuSans-67"/>
     <use x="69.824219" xlink:href="#DejaVuSans-111"/>
     <use x="131.005859" xlink:href="#DejaVuSans-109"/>
     <use x="228.417969" xlink:href="#DejaVuSans-112"/>
     <use x="291.894531" xlink:href="#DejaVuSans-111"/>
     <use x="353.076172" xlink:href="#DejaVuSans-110"/>
     <use x="416.455078" xlink:href="#DejaVuSans-101"/>
     <use x="477.978516" xlink:href="#DejaVuSans-110"/>
     <use x="541.357422" xlink:href="#DejaVuSans-116"/>
     <use x="580.566406" xlink:href="#DejaVuSans-105"/>
     <use x="608.349609" xlink:href="#DejaVuSans-32"/>
     <use x="640.136719" xlink:href="#DejaVuSans-118"/>
     <use x="699.316406" xlink:href="#DejaVuSans-101"/>
     <use x="760.839844" xlink:href="#DejaVuSans-116"/>
     <use x="800.048828" xlink:href="#DejaVuSans-116"/>
     <use x="839.257812" xlink:href="#DejaVuSans-111"/>
     <use x="900.439453" xlink:href="#DejaVuSans-114"/>
     <use x="941.552734" xlink:href="#DejaVuSans-105"/>
     <use x="969.335938" xlink:href="#DejaVuSans-32"/>
     <use x="1001.123047" xlink:href="#DejaVuSans-100"/>
     <use x="1064.599609" xlink:href="#DejaVuSans-105"/>
     <use x="1092.382812" xlink:href="#DejaVuSans-32"/>
     <use x="1124.169922" xlink:href="#DejaVuSans-83"/>
     <use x="1187.646484" xlink:href="#DejaVuSans-116"/>
     <use x="1226.855469" xlink:href="#DejaVuSans-111"/>
     <use x="1288.037109" xlink:href="#DejaVuSans-107"/>
     <use x="1345.900391" xlink:href="#DejaVuSans-101"/>
     <use x="1407.423828" xlink:href="#DejaVuSans-115"/>
    </g>
   </g>
   <g id="legend_1">
    <g id="patch_7">
     <path d="M 64.6 104.5557 
L 104.471875 104.5557 
Q 106.471875 104.5557 106.471875 102.5557 
L 106.471875 44.8432 
Q 106.471875 42.8432 104.471875 42.8432 
L 64.6 42.8432 
Q 62.6 42.8432 62.6 44.8432 
L 62.6 102.5557 
Q 62.6 104.5557 64.6 104.5557 
z
" style="fill:#ffffff;opacity:0.8;stroke:#cccccc;stroke-linejoin:miter;"/>
    </g>
    <g id="line2d_25">
     <path d="M 66.6 50.941638 
L 86.6 50.941638 
" style="fill:none;stroke:#1f77b4;stroke-linecap:square;stroke-width:1.5;"/>
    </g>
    <g id="line2d_26"/>
    <g id="text_13">
     <!-- I -->
     <defs>
      <path d="M 9.8125 72.90625 
L 19.671875 72.90625 
L 19.671875 0 
L 9.8125 0 
z
" id="DejaVuSans-73"/>
     </defs>
     <g transform="translate(94.6 54.441638)scale(0.1 -0.1)">
      <use xlink:href="#DejaVuSans-73"/>
     </g>
    </g>
    <g id="line2d_27">
     <path d="M 66.6 65.619763 
L 86.6 65.619763 
" style="fill:none;stroke:#ff7f0e;stroke-linecap:square;stroke-width:1.5;"/>
    </g>
    <g id="line2d_28"/>
    <g id="text_14">
     <!-- Q -->
     <defs>
      <path d="M 39.40625 66.21875 
Q 28.65625 66.21875 22.328125 58.203125 
Q 16.015625 50.203125 16.015625 36.375 
Q 16.015625 22.609375 22.328125 14.59375 
Q 28.65625 6.59375 39.40625 6.59375 
Q 50.140625 6.59375 56.421875 14.59375 
Q 62.703125 22.609375 62.703125 36.375 
Q 62.703125 50.203125 56.421875 58.203125 
Q 50.140625 66.21875 39.40625 66.21875 
z
M 53.21875 1.3125 
L 66.21875 -12.890625 
L 54.296875 -12.890625 
L 43.5 -1.21875 
Q 41.890625 -1.3125 41.03125 -1.359375 
Q 40.1875 -1.421875 39.40625 -1.421875 
Q 24.03125 -1.421875 14.8125 8.859375 
Q 5.609375 19.140625 5.609375 36.375 
Q 5.609375 53.65625 14.8125 63.9375 
Q 24.03125 74.21875 39.40625 74.21875 
Q 54.734375 74.21875 63.90625 63.9375 
Q 73.09375 53.65625 73.09375 36.375 
Q 73.09375 23.6875 67.984375 14.640625 
Q 62.890625 5.609375 53.21875 1.3125 
z
" id="DejaVuSans-81"/>
     </defs>
     <g transform="translate(94.6 69.119763)scale(0.1 -0.1)">
      <use xlink:href="#DejaVuSans-81"/>
     </g>
    </g>
    <g id="line2d_29">
     <path d="M 66.6 80.297888 
L 86.6 80.297888 
" style="fill:none;stroke:#2ca02c;stroke-linecap:square;stroke-width:1.5;"/>
    </g>
    <g id="line2d_30"/>
    <g id="text_15">
     <!-- U -->
     <defs>
      <path d="M 8.6875 72.90625 
L 18.609375 72.90625 
L 18.609375 28.609375 
Q 18.609375 16.890625 22.84375 11.734375 
Q 27.09375 6.59375 36.625 6.59375 
Q 46.09375 6.59375 50.34375 11.734375 
Q 54.59375 16.890625 54.59375 28.609375 
L 54.59375 72.90625 
L 64.5 72.90625 
L 64.5 27.390625 
Q 64.5 13.140625 57.4375 5.859375 
Q 50.390625 -1.421875 36.625 -1.421875 
Q 22.796875 -1.421875 15.734375 5.859375 
Q 8.6875 13.140625 8.6875 27.390625 
z
" id="DejaVuSans-85"/>
     </defs>
     <g transform="translate(94.6 83.797888)scale(0.1 -0.1)">
      <use xlink:href="#DejaVuSans-85"/>
     </g>
    </g>
    <g id="line2d_31">
     <path d="M 66.6 94.976013 
L 86.6 94.976013 
" style="fill:none;stroke:#d62728;stroke-linecap:square;stroke-width:1.5;"/>
    </g>
    <g id="line2d_32"/>
    <g id="text_16">
     <!-- V -->
     <defs>
      <path d="M 28.609375 0 
L 0.78125 72.90625 
L 11.078125 72.90625 
L 34.1875 11.53125 
L 57.328125 72.90625 
L 67.578125 72.90625 
L 39.796875 0 
z
" id="DejaVuSans-86"/>
     </defs>
     <g transform="translate(94.6 98.476013)scale(0.1 -0.1)">
      <use xlink:href="#DejaVuSans-86"/>
     </g>
    </g>
   </g>
  </g>
 </g>
 <defs>
  <clipPath id="pf45c859941">
   <rect height="242.8272" width="357.12" x="57.6" y="37.8432"/>
  </clipPath>
 </defs>
</svg>
