<?xml version="1.0" encoding="utf-8" standalone="no"?>
<!DOCTYPE svg PUBLIC "-//W3C//DTD SVG 1.1//EN"
  "http://www.w3.org/Graphics/SVG/1.1/DTD/svg11.dtd">
<!-- Created with matplotlib (https://matplotlib.org/) -->
<svg height="316.08pt" version="1.1" viewBox="0 0 663.12 316.08" width="663.12pt" xmlns="http://www.w3.org/2000/svg" xmlns:xlink="http://www.w3.org/1999/xlink">
 <defs>
  <style type="text/css">
*{stroke-linecap:butt;stroke-linejoin:round;}
  </style>
 </defs>
 <g id="figure_1">
  <g id="patch_1">
   <path d="M 0 316.08 
L 663.12 316.08 
L 663.12 0 
L 0 0 
z
" style="fill:#ffffff;"/>
  </g>
  <g id="axes_1">
   <g id="patch_2">
    <path d="M 82.89 281.3112 
L 596.808 281.3112 
L 596.808 37.9296 
L 82.89 37.9296 
z
" style="fill:#ffffff;"/>
   </g>
   <g id="matplotlib.axis_1">
    <g id="xtick_1">
     <g id="line2d_1">
      <path clip-path="url(#p5f5368c670)" d="M 106.249909 281.3112 
L 106.249909 37.9296 
" style="fill:none;stroke:#b0b0b0;stroke-linecap:square;stroke-width:0.8;"/>
     </g>
     <g id="line2d_2">
      <defs>
       <path d="M 0 0 
L 0 3.5 
" id="mcae44c659e" style="stroke:#000000;stroke-width:0.8;"/>
      </defs>
      <g>
       <use style="stroke:#000000;stroke-width:0.8;" x="106.249909" xlink:href="#mcae44c659e" y="281.3112"/>
      </g>
     </g>
     <g id="text_1">
      <!-- 0 -->
      <defs>
       <path d="M 31.78125 66.40625 
Q 24.171875 66.40625 20.328125 58.90625 
Q 16.5 51.421875 16.5 36.375 
Q 16.5 21.390625 20.328125 13.890625 
Q 24.171875 6.390625 31.78125 6.390625 
Q 39.453125 6.390625 43.28125 13.890625 
Q 47.125 21.390625 47.125 36.375 
Q 47.125 51.421875 43.28125 58.90625 
Q 39.453125 66.40625 31.78125 66.40625 
z
M 31.78125 74.21875 
Q 44.046875 74.21875 50.515625 64.515625 
Q 56.984375 54.828125 56.984375 36.375 
Q 56.984375 17.96875 50.515625 8.265625 
Q 44.046875 -1.421875 31.78125 -1.421875 
Q 19.53125 -1.421875 13.0625 8.265625 
Q 6.59375 17.96875 6.59375 36.375 
Q 6.59375 54.828125 13.0625 64.515625 
Q 19.53125 74.21875 31.78125 74.21875 
z
" id="DejaVuSans-48"/>
      </defs>
      <g transform="translate(103.068659 295.909637)scale(0.1 -0.1)">
       <use xlink:href="#DejaVuSans-48"/>
      </g>
     </g>
    </g>
    <g id="xtick_2">
     <g id="line2d_3">
      <path clip-path="url(#p5f5368c670)" d="M 210.071727 281.3112 
L 210.071727 37.9296 
" style="fill:none;stroke:#b0b0b0;stroke-linecap:square;stroke-width:0.8;"/>
     </g>
     <g id="line2d_4">
      <g>
       <use style="stroke:#000000;stroke-width:0.8;" x="210.071727" xlink:href="#mcae44c659e" y="281.3112"/>
      </g>
     </g>
     <g id="text_2">
      <!-- 20 -->
      <defs>
       <path d="M 19.1875 8.296875 
L 53.609375 8.296875 
L 53.609375 0 
L 7.328125 0 
L 7.328125 8.296875 
Q 12.9375 14.109375 22.625 23.890625 
Q 32.328125 33.6875 34.8125 36.53125 
Q 39.546875 41.84375 41.421875 45.53125 
Q 43.3125 49.21875 43.3125 52.78125 
Q 43.3125 58.59375 39.234375 62.25 
Q 35.15625 65.921875 28.609375 65.921875 
Q 23.96875 65.921875 18.8125 64.3125 
Q 13.671875 62.703125 7.8125 59.421875 
L 7.8125 69.390625 
Q 13.765625 71.78125 18.9375 73 
Q 24.125 74.21875 28.421875 74.21875 
Q 39.75 74.21875 46.484375 68.546875 
Q 53.21875 62.890625 53.21875 53.421875 
Q 53.21875 48.921875 51.53125 44.890625 
Q 49.859375 40.875 45.40625 35.40625 
Q 44.1875 33.984375 37.640625 27.21875 
Q 31.109375 20.453125 19.1875 8.296875 
z
" id="DejaVuSans-50"/>
      </defs>
      <g transform="translate(203.709227 295.909637)scale(0.1 -0.1)">
       <use xlink:href="#DejaVuSans-50"/>
       <use x="63.623047" xlink:href="#DejaVuSans-48"/>
      </g>
     </g>
    </g>
    <g id="xtick_3">
     <g id="line2d_5">
      <path clip-path="url(#p5f5368c670)" d="M 313.893545 281.3112 
L 313.893545 37.9296 
" style="fill:none;stroke:#b0b0b0;stroke-linecap:square;stroke-width:0.8;"/>
     </g>
     <g id="line2d_6">
      <g>
       <use style="stroke:#000000;stroke-width:0.8;" x="313.893545" xlink:href="#mcae44c659e" y="281.3112"/>
      </g>
     </g>
     <g id="text_3">
      <!-- 40 -->
      <defs>
       <path d="M 37.796875 64.3125 
L 12.890625 25.390625 
L 37.796875 25.390625 
z
M 35.203125 72.90625 
L 47.609375 72.90625 
L 47.609375 25.390625 
L 58.015625 25.390625 
L 58.015625 17.1875 
L 47.609375 17.1875 
L 47.609375 0 
L 37.796875 0 
L 37.796875 17.1875 
L 4.890625 17.1875 
L 4.890625 26.703125 
z
" id="DejaVuSans-52"/>
      </defs>
      <g transform="translate(307.531045 295.909637)scale(0.1 -0.1)">
       <use xlink:href="#DejaVuSans-52"/>
       <use x="63.623047" xlink:href="#DejaVuSans-48"/>
      </g>
     </g>
    </g>
    <g id="xtick_4">
     <g id="line2d_7">
      <path clip-path="url(#p5f5368c670)" d="M 417.715364 281.3112 
L 417.715364 37.9296 
" style="fill:none;stroke:#b0b0b0;stroke-linecap:square;stroke-width:0.8;"/>
     </g>
     <g id="line2d_8">
      <g>
       <use style="stroke:#000000;stroke-width:0.8;" x="417.715364" xlink:href="#mcae44c659e" y="281.3112"/>
      </g>
     </g>
     <g id="text_4">
      <!-- 60 -->
      <defs>
       <path d="M 33.015625 40.375 
Q 26.375 40.375 22.484375 35.828125 
Q 18.609375 31.296875 18.609375 23.390625 
Q 18.609375 15.53125 22.484375 10.953125 
Q 26.375 6.390625 33.015625 6.390625 
Q 39.65625 6.390625 43.53125 10.953125 
Q 47.40625 15.53125 47.40625 23.390625 
Q 47.40625 31.296875 43.53125 35.828125 
Q 39.65625 40.375 33.015625 40.375 
z
M 52.59375 71.296875 
L 52.59375 62.3125 
Q 48.875 64.0625 45.09375 64.984375 
Q 41.3125 65.921875 37.59375 65.921875 
Q 27.828125 65.921875 22.671875 59.328125 
Q 17.53125 52.734375 16.796875 39.40625 
Q 19.671875 43.65625 24.015625 45.921875 
Q 28.375 48.1875 33.59375 48.1875 
Q 44.578125 48.1875 50.953125 41.515625 
Q 57.328125 34.859375 57.328125 23.390625 
Q 57.328125 12.15625 50.6875 5.359375 
Q 44.046875 -1.421875 33.015625 -1.421875 
Q 20.359375 -1.421875 13.671875 8.265625 
Q 6.984375 17.96875 6.984375 36.375 
Q 6.984375 53.65625 15.1875 63.9375 
Q 23.390625 74.21875 37.203125 74.21875 
Q 40.921875 74.21875 44.703125 73.484375 
Q 48.484375 72.75 52.59375 71.296875 
z
" id="DejaVuSans-54"/>
      </defs>
      <g transform="translate(411.352864 295.909637)scale(0.1 -0.1)">
       <use xlink:href="#DejaVuSans-54"/>
       <use x="63.623047" xlink:href="#DejaVuSans-48"/>
      </g>
     </g>
    </g>
    <g id="xtick_5">
     <g id="line2d_9">
      <path clip-path="url(#p5f5368c670)" d="M 521.537182 281.3112 
L 521.537182 37.9296 
" style="fill:none;stroke:#b0b0b0;stroke-linecap:square;stroke-width:0.8;"/>
     </g>
     <g id="line2d_10">
      <g>
       <use style="stroke:#000000;stroke-width:0.8;" x="521.537182" xlink:href="#mcae44c659e" y="281.3112"/>
      </g>
     </g>
     <g id="text_5">
      <!-- 80 -->
      <defs>
       <path d="M 31.78125 34.625 
Q 24.75 34.625 20.71875 30.859375 
Q 16.703125 27.09375 16.703125 20.515625 
Q 16.703125 13.921875 20.71875 10.15625 
Q 24.75 6.390625 31.78125 6.390625 
Q 38.8125 6.390625 42.859375 10.171875 
Q 46.921875 13.96875 46.921875 20.515625 
Q 46.921875 27.09375 42.890625 30.859375 
Q 38.875 34.625 31.78125 34.625 
z
M 21.921875 38.8125 
Q 15.578125 40.375 12.03125 44.71875 
Q 8.5 49.078125 8.5 55.328125 
Q 8.5 64.0625 14.71875 69.140625 
Q 20.953125 74.21875 31.78125 74.21875 
Q 42.671875 74.21875 48.875 69.140625 
Q 55.078125 64.0625 55.078125 55.328125 
Q 55.078125 49.078125 51.53125 44.71875 
Q 48 40.375 41.703125 38.8125 
Q 48.828125 37.15625 52.796875 32.3125 
Q 56.78125 27.484375 56.78125 20.515625 
Q 56.78125 9.90625 50.3125 4.234375 
Q 43.84375 -1.421875 31.78125 -1.421875 
Q 19.734375 -1.421875 13.25 4.234375 
Q 6.78125 9.90625 6.78125 20.515625 
Q 6.78125 27.484375 10.78125 32.3125 
Q 14.796875 37.15625 21.921875 38.8125 
z
M 18.3125 54.390625 
Q 18.3125 48.734375 21.84375 45.5625 
Q 25.390625 42.390625 31.78125 42.390625 
Q 38.140625 42.390625 41.71875 45.5625 
Q 45.3125 48.734375 45.3125 54.390625 
Q 45.3125 60.0625 41.71875 63.234375 
Q 38.140625 66.40625 31.78125 66.40625 
Q 25.390625 66.40625 21.84375 63.234375 
Q 18.3125 60.0625 18.3125 54.390625 
z
" id="DejaVuSans-56"/>
      </defs>
      <g transform="translate(515.174682 295.909637)scale(0.1 -0.1)">
       <use xlink:href="#DejaVuSans-56"/>
       <use x="63.623047" xlink:href="#DejaVuSans-48"/>
      </g>
     </g>
    </g>
    <g id="text_6">
     <!-- Angolo incidente [°] -->
     <defs>
      <path d="M 34.1875 63.1875 
L 20.796875 26.90625 
L 47.609375 26.90625 
z
M 28.609375 72.90625 
L 39.796875 72.90625 
L 67.578125 0 
L 57.328125 0 
L 50.6875 18.703125 
L 17.828125 18.703125 
L 11.1875 0 
L 0.78125 0 
z
" id="DejaVuSans-65"/>
      <path d="M 54.890625 33.015625 
L 54.890625 0 
L 45.90625 0 
L 45.90625 32.71875 
Q 45.90625 40.484375 42.875 44.328125 
Q 39.84375 48.1875 33.796875 48.1875 
Q 26.515625 48.1875 22.3125 43.546875 
Q 18.109375 38.921875 18.109375 30.90625 
L 18.109375 0 
L 9.078125 0 
L 9.078125 54.6875 
L 18.109375 54.6875 
L 18.109375 46.1875 
Q 21.34375 51.125 25.703125 53.5625 
Q 30.078125 56 35.796875 56 
Q 45.21875 56 50.046875 50.171875 
Q 54.890625 44.34375 54.890625 33.015625 
z
" id="DejaVuSans-110"/>
      <path d="M 45.40625 27.984375 
Q 45.40625 37.75 41.375 43.109375 
Q 37.359375 48.484375 30.078125 48.484375 
Q 22.859375 48.484375 18.828125 43.109375 
Q 14.796875 37.75 14.796875 27.984375 
Q 14.796875 18.265625 18.828125 12.890625 
Q 22.859375 7.515625 30.078125 7.515625 
Q 37.359375 7.515625 41.375 12.890625 
Q 45.40625 18.265625 45.40625 27.984375 
z
M 54.390625 6.78125 
Q 54.390625 -7.171875 48.1875 -13.984375 
Q 42 -20.796875 29.203125 -20.796875 
Q 24.46875 -20.796875 20.265625 -20.09375 
Q 16.0625 -19.390625 12.109375 -17.921875 
L 12.109375 -9.1875 
Q 16.0625 -11.328125 19.921875 -12.34375 
Q 23.78125 -13.375 27.78125 -13.375 
Q 36.625 -13.375 41.015625 -8.765625 
Q 45.40625 -4.15625 45.40625 5.171875 
L 45.40625 9.625 
Q 42.625 4.78125 38.28125 2.390625 
Q 33.9375 0 27.875 0 
Q 17.828125 0 11.671875 7.65625 
Q 5.515625 15.328125 5.515625 27.984375 
Q 5.515625 40.671875 11.671875 48.328125 
Q 17.828125 56 27.875 56 
Q 33.9375 56 38.28125 53.609375 
Q 42.625 51.21875 45.40625 46.390625 
L 45.40625 54.6875 
L 54.390625 54.6875 
z
" id="DejaVuSans-103"/>
      <path d="M 30.609375 48.390625 
Q 23.390625 48.390625 19.1875 42.75 
Q 14.984375 37.109375 14.984375 27.296875 
Q 14.984375 17.484375 19.15625 11.84375 
Q 23.34375 6.203125 30.609375 6.203125 
Q 37.796875 6.203125 41.984375 11.859375 
Q 46.1875 17.53125 46.1875 27.296875 
Q 46.1875 37.015625 41.984375 42.703125 
Q 37.796875 48.390625 30.609375 48.390625 
z
M 30.609375 56 
Q 42.328125 56 49.015625 48.375 
Q 55.71875 40.765625 55.71875 27.296875 
Q 55.71875 13.875 49.015625 6.21875 
Q 42.328125 -1.421875 30.609375 -1.421875 
Q 18.84375 -1.421875 12.171875 6.21875 
Q 5.515625 13.875 5.515625 27.296875 
Q 5.515625 40.765625 12.171875 48.375 
Q 18.84375 56 30.609375 56 
z
" id="DejaVuSans-111"/>
      <path d="M 9.421875 75.984375 
L 18.40625 75.984375 
L 18.40625 0 
L 9.421875 0 
z
" id="DejaVuSans-108"/>
      <path id="DejaVuSans-32"/>
      <path d="M 9.421875 54.6875 
L 18.40625 54.6875 
L 18.40625 0 
L 9.421875 0 
z
M 9.421875 75.984375 
L 18.40625 75.984375 
L 18.40625 64.59375 
L 9.421875 64.59375 
z
" id="DejaVuSans-105"/>
      <path d="M 48.78125 52.59375 
L 48.78125 44.1875 
Q 44.96875 46.296875 41.140625 47.34375 
Q 37.3125 48.390625 33.40625 48.390625 
Q 24.65625 48.390625 19.8125 42.84375 
Q 14.984375 37.3125 14.984375 27.296875 
Q 14.984375 17.28125 19.8125 11.734375 
Q 24.65625 6.203125 33.40625 6.203125 
Q 37.3125 6.203125 41.140625 7.25 
Q 44.96875 8.296875 48.78125 10.40625 
L 48.78125 2.09375 
Q 45.015625 0.34375 40.984375 -0.53125 
Q 36.96875 -1.421875 32.421875 -1.421875 
Q 20.0625 -1.421875 12.78125 6.34375 
Q 5.515625 14.109375 5.515625 27.296875 
Q 5.515625 40.671875 12.859375 48.328125 
Q 20.21875 56 33.015625 56 
Q 37.15625 56 41.109375 55.140625 
Q 45.0625 54.296875 48.78125 52.59375 
z
" id="DejaVuSans-99"/>
      <path d="M 45.40625 46.390625 
L 45.40625 75.984375 
L 54.390625 75.984375 
L 54.390625 0 
L 45.40625 0 
L 45.40625 8.203125 
Q 42.578125 3.328125 38.25 0.953125 
Q 33.9375 -1.421875 27.875 -1.421875 
Q 17.96875 -1.421875 11.734375 6.484375 
Q 5.515625 14.40625 5.515625 27.296875 
Q 5.515625 40.1875 11.734375 48.09375 
Q 17.96875 56 27.875 56 
Q 33.9375 56 38.25 53.625 
Q 42.578125 51.265625 45.40625 46.390625 
z
M 14.796875 27.296875 
Q 14.796875 17.390625 18.875 11.75 
Q 22.953125 6.109375 30.078125 6.109375 
Q 37.203125 6.109375 41.296875 11.75 
Q 45.40625 17.390625 45.40625 27.296875 
Q 45.40625 37.203125 41.296875 42.84375 
Q 37.203125 48.484375 30.078125 48.484375 
Q 22.953125 48.484375 18.875 42.84375 
Q 14.796875 37.203125 14.796875 27.296875 
z
" id="DejaVuSans-100"/>
      <path d="M 56.203125 29.59375 
L 56.203125 25.203125 
L 14.890625 25.203125 
Q 15.484375 15.921875 20.484375 11.0625 
Q 25.484375 6.203125 34.421875 6.203125 
Q 39.59375 6.203125 44.453125 7.46875 
Q 49.3125 8.734375 54.109375 11.28125 
L 54.109375 2.78125 
Q 49.265625 0.734375 44.1875 -0.34375 
Q 39.109375 -1.421875 33.890625 -1.421875 
Q 20.796875 -1.421875 13.15625 6.1875 
Q 5.515625 13.8125 5.515625 26.8125 
Q 5.515625 40.234375 12.765625 48.109375 
Q 20.015625 56 32.328125 56 
Q 43.359375 56 49.78125 48.890625 
Q 56.203125 41.796875 56.203125 29.59375 
z
M 47.21875 32.234375 
Q 47.125 39.59375 43.09375 43.984375 
Q 39.0625 48.390625 32.421875 48.390625 
Q 24.90625 48.390625 20.390625 44.140625 
Q 15.875 39.890625 15.1875 32.171875 
z
" id="DejaVuSans-101"/>
      <path d="M 18.3125 70.21875 
L 18.3125 54.6875 
L 36.8125 54.6875 
L 36.8125 47.703125 
L 18.3125 47.703125 
L 18.3125 18.015625 
Q 18.3125 11.328125 20.140625 9.421875 
Q 21.96875 7.515625 27.59375 7.515625 
L 36.8125 7.515625 
L 36.8125 0 
L 27.59375 0 
Q 17.1875 0 13.234375 3.875 
Q 9.28125 7.765625 9.28125 18.015625 
L 9.28125 47.703125 
L 2.6875 47.703125 
L 2.6875 54.6875 
L 9.28125 54.6875 
L 9.28125 70.21875 
z
" id="DejaVuSans-116"/>
      <path d="M 8.59375 75.984375 
L 29.296875 75.984375 
L 29.296875 69 
L 17.578125 69 
L 17.578125 -6.203125 
L 29.296875 -6.203125 
L 29.296875 -13.1875 
L 8.59375 -13.1875 
z
" id="DejaVuSans-91"/>
      <path d="M 25 67.921875 
Q 21.09375 67.921875 18.40625 65.203125 
Q 15.71875 62.5 15.71875 58.59375 
Q 15.71875 54.734375 18.40625 52.078125 
Q 21.09375 49.421875 25 49.421875 
Q 28.90625 49.421875 31.59375 52.078125 
Q 34.28125 54.734375 34.28125 58.59375 
Q 34.28125 62.453125 31.5625 65.1875 
Q 28.859375 67.921875 25 67.921875 
z
M 25 74.21875 
Q 28.125 74.21875 31 73.015625 
Q 33.890625 71.828125 35.984375 69.578125 
Q 38.234375 67.390625 39.359375 64.59375 
Q 40.484375 61.8125 40.484375 58.59375 
Q 40.484375 52.15625 35.96875 47.6875 
Q 31.453125 43.21875 24.90625 43.21875 
Q 18.3125 43.21875 13.90625 47.609375 
Q 9.515625 52 9.515625 58.59375 
Q 9.515625 65.140625 14 69.671875 
Q 18.5 74.21875 25 74.21875 
z
" id="DejaVuSans-176"/>
      <path d="M 30.421875 75.984375 
L 30.421875 -13.1875 
L 9.71875 -13.1875 
L 9.71875 -6.203125 
L 21.390625 -6.203125 
L 21.390625 69 
L 9.71875 69 
L 9.71875 75.984375 
z
" id="DejaVuSans-93"/>
     </defs>
     <g transform="translate(289.845875 309.587762)scale(0.1 -0.1)">
      <use xlink:href="#DejaVuSans-65"/>
      <use x="68.408203" xlink:href="#DejaVuSans-110"/>
      <use x="131.787109" xlink:href="#DejaVuSans-103"/>
      <use x="195.263672" xlink:href="#DejaVuSans-111"/>
      <use x="256.445312" xlink:href="#DejaVuSans-108"/>
      <use x="284.228516" xlink:href="#DejaVuSans-111"/>
      <use x="345.410156" xlink:href="#DejaVuSans-32"/>
      <use x="377.197266" xlink:href="#DejaVuSans-105"/>
      <use x="404.980469" xlink:href="#DejaVuSans-110"/>
      <use x="468.359375" xlink:href="#DejaVuSans-99"/>
      <use x="523.339844" xlink:href="#DejaVuSans-105"/>
      <use x="551.123047" xlink:href="#DejaVuSans-100"/>
      <use x="614.599609" xlink:href="#DejaVuSans-101"/>
      <use x="676.123047" xlink:href="#DejaVuSans-110"/>
      <use x="739.501953" xlink:href="#DejaVuSans-116"/>
      <use x="778.710938" xlink:href="#DejaVuSans-101"/>
      <use x="840.234375" xlink:href="#DejaVuSans-32"/>
      <use x="872.021484" xlink:href="#DejaVuSans-91"/>
      <use x="911.035156" xlink:href="#DejaVuSans-176"/>
      <use x="961.035156" xlink:href="#DejaVuSans-93"/>
     </g>
    </g>
   </g>
   <g id="matplotlib.axis_2">
    <g id="ytick_1">
     <g id="line2d_11">
      <path clip-path="url(#p5f5368c670)" d="M 82.89 270.2484 
L 596.808 270.2484 
" style="fill:none;stroke:#b0b0b0;stroke-linecap:square;stroke-width:0.8;"/>
     </g>
     <g id="line2d_12">
      <defs>
       <path d="M 0 0 
L -3.5 0 
" id="m0b3d636fdc" style="stroke:#000000;stroke-width:0.8;"/>
      </defs>
      <g>
       <use style="stroke:#000000;stroke-width:0.8;" x="82.89" xlink:href="#m0b3d636fdc" y="270.2484"/>
      </g>
     </g>
     <g id="text_7">
      <!-- 0 -->
      <g transform="translate(69.5275 274.047619)scale(0.1 -0.1)">
       <use xlink:href="#DejaVuSans-48"/>
      </g>
     </g>
    </g>
    <g id="ytick_2">
     <g id="line2d_13">
      <path clip-path="url(#p5f5368c670)" d="M 82.89 239.5184 
L 596.808 239.5184 
" style="fill:none;stroke:#b0b0b0;stroke-linecap:square;stroke-width:0.8;"/>
     </g>
     <g id="line2d_14">
      <g>
       <use style="stroke:#000000;stroke-width:0.8;" x="82.89" xlink:href="#m0b3d636fdc" y="239.5184"/>
      </g>
     </g>
     <g id="text_8">
      <!-- 25 -->
      <defs>
       <path d="M 10.796875 72.90625 
L 49.515625 72.90625 
L 49.515625 64.59375 
L 19.828125 64.59375 
L 19.828125 46.734375 
Q 21.96875 47.46875 24.109375 47.828125 
Q 26.265625 48.1875 28.421875 48.1875 
Q 40.625 48.1875 47.75 41.5 
Q 54.890625 34.8125 54.890625 23.390625 
Q 54.890625 11.625 47.5625 5.09375 
Q 40.234375 -1.421875 26.90625 -1.421875 
Q 22.3125 -1.421875 17.546875 -0.640625 
Q 12.796875 0.140625 7.71875 1.703125 
L 7.71875 11.625 
Q 12.109375 9.234375 16.796875 8.0625 
Q 21.484375 6.890625 26.703125 6.890625 
Q 35.15625 6.890625 40.078125 11.328125 
Q 45.015625 15.765625 45.015625 23.390625 
Q 45.015625 31 40.078125 35.4375 
Q 35.15625 39.890625 26.703125 39.890625 
Q 22.75 39.890625 18.8125 39.015625 
Q 14.890625 38.140625 10.796875 36.28125 
z
" id="DejaVuSans-53"/>
      </defs>
      <g transform="translate(63.165 243.317619)scale(0.1 -0.1)">
       <use xlink:href="#DejaVuSans-50"/>
       <use x="63.623047" xlink:href="#DejaVuSans-53"/>
      </g>
     </g>
    </g>
    <g id="ytick_3">
     <g id="line2d_15">
      <path clip-path="url(#p5f5368c670)" d="M 82.89 208.7884 
L 596.808 208.7884 
" style="fill:none;stroke:#b0b0b0;stroke-linecap:square;stroke-width:0.8;"/>
     </g>
     <g id="line2d_16">
      <g>
       <use style="stroke:#000000;stroke-width:0.8;" x="82.89" xlink:href="#m0b3d636fdc" y="208.7884"/>
      </g>
     </g>
     <g id="text_9">
      <!-- 50 -->
      <g transform="translate(63.165 212.587619)scale(0.1 -0.1)">
       <use xlink:href="#DejaVuSans-53"/>
       <use x="63.623047" xlink:href="#DejaVuSans-48"/>
      </g>
     </g>
    </g>
    <g id="ytick_4">
     <g id="line2d_17">
      <path clip-path="url(#p5f5368c670)" d="M 82.89 178.0584 
L 596.808 178.0584 
" style="fill:none;stroke:#b0b0b0;stroke-linecap:square;stroke-width:0.8;"/>
     </g>
     <g id="line2d_18">
      <g>
       <use style="stroke:#000000;stroke-width:0.8;" x="82.89" xlink:href="#m0b3d636fdc" y="178.0584"/>
      </g>
     </g>
     <g id="text_10">
      <!-- 75 -->
      <defs>
       <path d="M 8.203125 72.90625 
L 55.078125 72.90625 
L 55.078125 68.703125 
L 28.609375 0 
L 18.3125 0 
L 43.21875 64.59375 
L 8.203125 64.59375 
z
" id="DejaVuSans-55"/>
      </defs>
      <g transform="translate(63.165 181.857619)scale(0.1 -0.1)">
       <use xlink:href="#DejaVuSans-55"/>
       <use x="63.623047" xlink:href="#DejaVuSans-53"/>
      </g>
     </g>
    </g>
    <g id="ytick_5">
     <g id="line2d_19">
      <path clip-path="url(#p5f5368c670)" d="M 82.89 147.3284 
L 596.808 147.3284 
" style="fill:none;stroke:#b0b0b0;stroke-linecap:square;stroke-width:0.8;"/>
     </g>
     <g id="line2d_20">
      <g>
       <use style="stroke:#000000;stroke-width:0.8;" x="82.89" xlink:href="#m0b3d636fdc" y="147.3284"/>
      </g>
     </g>
     <g id="text_11">
      <!-- 100 -->
      <defs>
       <path d="M 12.40625 8.296875 
L 28.515625 8.296875 
L 28.515625 63.921875 
L 10.984375 60.40625 
L 10.984375 69.390625 
L 28.421875 72.90625 
L 38.28125 72.90625 
L 38.28125 8.296875 
L 54.390625 8.296875 
L 54.390625 0 
L 12.40625 0 
z
" id="DejaVuSans-49"/>
      </defs>
      <g transform="translate(56.8025 151.127619)scale(0.1 -0.1)">
       <use xlink:href="#DejaVuSans-49"/>
       <use x="63.623047" xlink:href="#DejaVuSans-48"/>
       <use x="127.246094" xlink:href="#DejaVuSans-48"/>
      </g>
     </g>
    </g>
    <g id="ytick_6">
     <g id="line2d_21">
      <path clip-path="url(#p5f5368c670)" d="M 82.89 116.5984 
L 596.808 116.5984 
" style="fill:none;stroke:#b0b0b0;stroke-linecap:square;stroke-width:0.8;"/>
     </g>
     <g id="line2d_22">
      <g>
       <use style="stroke:#000000;stroke-width:0.8;" x="82.89" xlink:href="#m0b3d636fdc" y="116.5984"/>
      </g>
     </g>
     <g id="text_12">
      <!-- 125 -->
      <g transform="translate(56.8025 120.397619)scale(0.1 -0.1)">
       <use xlink:href="#DejaVuSans-49"/>
       <use x="63.623047" xlink:href="#DejaVuSans-50"/>
       <use x="127.246094" xlink:href="#DejaVuSans-53"/>
      </g>
     </g>
    </g>
    <g id="ytick_7">
     <g id="line2d_23">
      <path clip-path="url(#p5f5368c670)" d="M 82.89 85.8684 
L 596.808 85.8684 
" style="fill:none;stroke:#b0b0b0;stroke-linecap:square;stroke-width:0.8;"/>
     </g>
     <g id="line2d_24">
      <g>
       <use style="stroke:#000000;stroke-width:0.8;" x="82.89" xlink:href="#m0b3d636fdc" y="85.8684"/>
      </g>
     </g>
     <g id="text_13">
      <!-- 150 -->
      <g transform="translate(56.8025 89.667619)scale(0.1 -0.1)">
       <use xlink:href="#DejaVuSans-49"/>
       <use x="63.623047" xlink:href="#DejaVuSans-53"/>
       <use x="127.246094" xlink:href="#DejaVuSans-48"/>
      </g>
     </g>
    </g>
    <g id="ytick_8">
     <g id="line2d_25">
      <path clip-path="url(#p5f5368c670)" d="M 82.89 55.1384 
L 596.808 55.1384 
" style="fill:none;stroke:#b0b0b0;stroke-linecap:square;stroke-width:0.8;"/>
     </g>
     <g id="line2d_26">
      <g>
       <use style="stroke:#000000;stroke-width:0.8;" x="82.89" xlink:href="#m0b3d636fdc" y="55.1384"/>
      </g>
     </g>
     <g id="text_14">
      <!-- 175 -->
      <g transform="translate(56.8025 58.937619)scale(0.1 -0.1)">
       <use xlink:href="#DejaVuSans-49"/>
       <use x="63.623047" xlink:href="#DejaVuSans-55"/>
       <use x="127.246094" xlink:href="#DejaVuSans-53"/>
      </g>
     </g>
    </g>
    <g id="text_15">
     <!-- Grandezze ellissometriche [°] -->
     <defs>
      <path d="M 59.515625 10.40625 
L 59.515625 29.984375 
L 43.40625 29.984375 
L 43.40625 38.09375 
L 69.28125 38.09375 
L 69.28125 6.78125 
Q 63.578125 2.734375 56.6875 0.65625 
Q 49.8125 -1.421875 42 -1.421875 
Q 24.90625 -1.421875 15.25 8.5625 
Q 5.609375 18.5625 5.609375 36.375 
Q 5.609375 54.25 15.25 64.234375 
Q 24.90625 74.21875 42 74.21875 
Q 49.125 74.21875 55.546875 72.453125 
Q 61.96875 70.703125 67.390625 67.28125 
L 67.390625 56.78125 
Q 61.921875 61.421875 55.765625 63.765625 
Q 49.609375 66.109375 42.828125 66.109375 
Q 29.4375 66.109375 22.71875 58.640625 
Q 16.015625 51.171875 16.015625 36.375 
Q 16.015625 21.625 22.71875 14.15625 
Q 29.4375 6.6875 42.828125 6.6875 
Q 48.046875 6.6875 52.140625 7.59375 
Q 56.25 8.5 59.515625 10.40625 
z
" id="DejaVuSans-71"/>
      <path d="M 41.109375 46.296875 
Q 39.59375 47.171875 37.8125 47.578125 
Q 36.03125 48 33.890625 48 
Q 26.265625 48 22.1875 43.046875 
Q 18.109375 38.09375 18.109375 28.8125 
L 18.109375 0 
L 9.078125 0 
L 9.078125 54.6875 
L 18.109375 54.6875 
L 18.109375 46.1875 
Q 20.953125 51.171875 25.484375 53.578125 
Q 30.03125 56 36.53125 56 
Q 37.453125 56 38.578125 55.875 
Q 39.703125 55.765625 41.0625 55.515625 
z
" id="DejaVuSans-114"/>
      <path d="M 34.28125 27.484375 
Q 23.390625 27.484375 19.1875 25 
Q 14.984375 22.515625 14.984375 16.5 
Q 14.984375 11.71875 18.140625 8.90625 
Q 21.296875 6.109375 26.703125 6.109375 
Q 34.1875 6.109375 38.703125 11.40625 
Q 43.21875 16.703125 43.21875 25.484375 
L 43.21875 27.484375 
z
M 52.203125 31.203125 
L 52.203125 0 
L 43.21875 0 
L 43.21875 8.296875 
Q 40.140625 3.328125 35.546875 0.953125 
Q 30.953125 -1.421875 24.3125 -1.421875 
Q 15.921875 -1.421875 10.953125 3.296875 
Q 6 8.015625 6 15.921875 
Q 6 25.140625 12.171875 29.828125 
Q 18.359375 34.515625 30.609375 34.515625 
L 43.21875 34.515625 
L 43.21875 35.40625 
Q 43.21875 41.609375 39.140625 45 
Q 35.0625 48.390625 27.6875 48.390625 
Q 23 48.390625 18.546875 47.265625 
Q 14.109375 46.140625 10.015625 43.890625 
L 10.015625 52.203125 
Q 14.9375 54.109375 19.578125 55.046875 
Q 24.21875 56 28.609375 56 
Q 40.484375 56 46.34375 49.84375 
Q 52.203125 43.703125 52.203125 31.203125 
z
" id="DejaVuSans-97"/>
      <path d="M 5.515625 54.6875 
L 48.1875 54.6875 
L 48.1875 46.484375 
L 14.40625 7.171875 
L 48.1875 7.171875 
L 48.1875 0 
L 4.296875 0 
L 4.296875 8.203125 
L 38.09375 47.515625 
L 5.515625 47.515625 
z
" id="DejaVuSans-122"/>
      <path d="M 44.28125 53.078125 
L 44.28125 44.578125 
Q 40.484375 46.53125 36.375 47.5 
Q 32.28125 48.484375 27.875 48.484375 
Q 21.1875 48.484375 17.84375 46.4375 
Q 14.5 44.390625 14.5 40.28125 
Q 14.5 37.15625 16.890625 35.375 
Q 19.28125 33.59375 26.515625 31.984375 
L 29.59375 31.296875 
Q 39.15625 29.25 43.1875 25.515625 
Q 47.21875 21.78125 47.21875 15.09375 
Q 47.21875 7.46875 41.1875 3.015625 
Q 35.15625 -1.421875 24.609375 -1.421875 
Q 20.21875 -1.421875 15.453125 -0.5625 
Q 10.6875 0.296875 5.421875 2 
L 5.421875 11.28125 
Q 10.40625 8.6875 15.234375 7.390625 
Q 20.0625 6.109375 24.8125 6.109375 
Q 31.15625 6.109375 34.5625 8.28125 
Q 37.984375 10.453125 37.984375 14.40625 
Q 37.984375 18.0625 35.515625 20.015625 
Q 33.0625 21.96875 24.703125 23.78125 
L 21.578125 24.515625 
Q 13.234375 26.265625 9.515625 29.90625 
Q 5.8125 33.546875 5.8125 39.890625 
Q 5.8125 47.609375 11.28125 51.796875 
Q 16.75 56 26.8125 56 
Q 31.78125 56 36.171875 55.265625 
Q 40.578125 54.546875 44.28125 53.078125 
z
" id="DejaVuSans-115"/>
      <path d="M 52 44.1875 
Q 55.375 50.25 60.0625 53.125 
Q 64.75 56 71.09375 56 
Q 79.640625 56 84.28125 50.015625 
Q 88.921875 44.046875 88.921875 33.015625 
L 88.921875 0 
L 79.890625 0 
L 79.890625 32.71875 
Q 79.890625 40.578125 77.09375 44.375 
Q 74.3125 48.1875 68.609375 48.1875 
Q 61.625 48.1875 57.5625 43.546875 
Q 53.515625 38.921875 53.515625 30.90625 
L 53.515625 0 
L 44.484375 0 
L 44.484375 32.71875 
Q 44.484375 40.625 41.703125 44.40625 
Q 38.921875 48.1875 33.109375 48.1875 
Q 26.21875 48.1875 22.15625 43.53125 
Q 18.109375 38.875 18.109375 30.90625 
L 18.109375 0 
L 9.078125 0 
L 9.078125 54.6875 
L 18.109375 54.6875 
L 18.109375 46.1875 
Q 21.1875 51.21875 25.484375 53.609375 
Q 29.78125 56 35.6875 56 
Q 41.65625 56 45.828125 52.96875 
Q 50 49.953125 52 44.1875 
z
" id="DejaVuSans-109"/>
      <path d="M 54.890625 33.015625 
L 54.890625 0 
L 45.90625 0 
L 45.90625 32.71875 
Q 45.90625 40.484375 42.875 44.328125 
Q 39.84375 48.1875 33.796875 48.1875 
Q 26.515625 48.1875 22.3125 43.546875 
Q 18.109375 38.921875 18.109375 30.90625 
L 18.109375 0 
L 9.078125 0 
L 9.078125 75.984375 
L 18.109375 75.984375 
L 18.109375 46.1875 
Q 21.34375 51.125 25.703125 53.5625 
Q 30.078125 56 35.796875 56 
Q 45.21875 56 50.046875 50.171875 
Q 54.890625 44.34375 54.890625 33.015625 
z
" id="DejaVuSans-104"/>
     </defs>
     <g transform="translate(50.722813 233.796963)rotate(-90)scale(0.1 -0.1)">
      <use xlink:href="#DejaVuSans-71"/>
      <use x="77.490234" xlink:href="#DejaVuSans-114"/>
      <use x="118.603516" xlink:href="#DejaVuSans-97"/>
      <use x="179.882812" xlink:href="#DejaVuSans-110"/>
      <use x="243.261719" xlink:href="#DejaVuSans-100"/>
      <use x="306.738281" xlink:href="#DejaVuSans-101"/>
      <use x="368.261719" xlink:href="#DejaVuSans-122"/>
      <use x="420.751953" xlink:href="#DejaVuSans-122"/>
      <use x="473.242188" xlink:href="#DejaVuSans-101"/>
      <use x="534.765625" xlink:href="#DejaVuSans-32"/>
      <use x="566.552734" xlink:href="#DejaVuSans-101"/>
      <use x="628.076172" xlink:href="#DejaVuSans-108"/>
      <use x="655.859375" xlink:href="#DejaVuSans-108"/>
      <use x="683.642578" xlink:href="#DejaVuSans-105"/>
      <use x="711.425781" xlink:href="#DejaVuSans-115"/>
      <use x="763.525391" xlink:href="#DejaVuSans-115"/>
      <use x="815.625" xlink:href="#DejaVuSans-111"/>
      <use x="876.806641" xlink:href="#DejaVuSans-109"/>
      <use x="974.21875" xlink:href="#DejaVuSans-101"/>
      <use x="1035.742188" xlink:href="#DejaVuSans-116"/>
      <use x="1074.951172" xlink:href="#DejaVuSans-114"/>
      <use x="1116.064453" xlink:href="#DejaVuSans-105"/>
      <use x="1143.847656" xlink:href="#DejaVuSans-99"/>
      <use x="1198.828125" xlink:href="#DejaVuSans-104"/>
      <use x="1262.207031" xlink:href="#DejaVuSans-101"/>
      <use x="1323.730469" xlink:href="#DejaVuSans-32"/>
      <use x="1355.517578" xlink:href="#DejaVuSans-91"/>
      <use x="1394.53125" xlink:href="#DejaVuSans-176"/>
      <use x="1444.53125" xlink:href="#DejaVuSans-93"/>
     </g>
    </g>
   </g>
   <g id="line2d_27">
    <path clip-path="url(#p5f5368c670)" d="M 106.249909 214.9344 
L 120.74755 215.040603 
L 127.294872 215.174094 
L 129.165536 215.202366 
L 131.971531 215.308323 
L 136.180523 215.413235 
L 139.92185 215.565656 
L 141.324848 215.587597 
L 142.260179 215.628529 
L 143.195511 215.663561 
L 144.130843 215.691157 
L 145.53384 215.732581 
L 146.936838 215.867178 
L 147.87217 215.88113 
L 153.48416 216.140368 
L 155.354823 216.23096 
L 157.693152 216.384426 
L 158.628484 216.314976 
L 159.563816 216.447853 
L 160.499147 216.621907 
L 160.966813 216.467151 
L 162.369811 216.720919 
L 163.772808 216.72854 
L 164.240474 216.796577 
L 165.175806 216.708996 
L 165.643472 216.885017 
L 167.046469 216.823496 
L 167.514135 217.03879 
L 167.981801 216.953484 
L 168.917133 217.04088 
L 170.32013 217.108916 
L 170.787796 217.062268 
L 171.255462 217.365696 
L 174.529123 217.43281 
L 175.464455 217.550752 
L 175.93212 217.493164 
L 176.399786 217.605452 
L 176.867452 217.590824 
L 177.335118 217.817366 
L 177.802784 217.619096 
L 178.27045 217.592729 
L 179.205781 217.752894 
L 180.141113 217.734026 
L 180.608779 217.988716 
L 181.544111 218.173526 
L 182.011776 217.917607 
L 182.479442 218.159944 
L 183.88244 218.221158 
L 186.220769 218.486419 
L 186.688435 218.240333 
L 188.559098 218.545421 
L 189.49443 218.783763 
L 189.962096 218.58789 
L 190.897428 219.081045 
L 191.365093 219.048655 
L 191.832759 218.894268 
L 192.300425 219.009813 
L 192.768091 218.88554 
L 193.703423 219.41637 
L 195.10642 219.373041 
L 195.574086 219.104891 
L 196.041752 219.648198 
L 197.912415 219.355648 
L 198.380081 219.702897 
L 199.315413 219.587967 
L 199.783079 219.443782 
L 200.250744 219.904179 
L 201.653742 219.633693 
L 202.589074 220.183822 
L 203.05674 219.812357 
L 203.992071 220.239935 
L 204.459737 220.545329 
L 204.927403 220.020399 
L 205.395069 220.388115 
L 205.862735 220.237046 
L 206.3304 220.581222 
L 207.265732 220.41737 
L 207.733398 220.349641 
L 208.201064 220.763021 
L 208.66873 220.407352 
L 209.136396 221.025516 
L 209.604061 220.674457 
L 210.071727 220.571941 
L 210.539393 221.044815 
L 211.474725 221.379219 
L 211.942391 221.186419 
L 212.410057 221.166813 
L 212.877722 221.302209 
L 213.345388 220.988333 
L 213.813054 221.580746 
L 214.748386 221.792598 
L 215.216052 221.421687 
L 215.683717 222.040098 
L 216.619049 221.334107 
L 217.554381 222.289011 
L 218.489713 221.903411 
L 218.957378 221.891611 
L 219.425044 222.316484 
L 219.89271 222.34537 
L 220.360376 222.197435 
L 220.828042 222.345554 
L 221.295708 222.789787 
L 221.763373 222.313288 
L 222.231039 222.743692 
L 222.698705 222.370384 
L 223.166371 222.44346 
L 224.101703 222.865936 
L 225.037034 222.431598 
L 225.5047 222.678606 
L 225.972366 222.694831 
L 226.440032 223.388715 
L 226.907698 223.130951 
L 227.375364 223.288228 
L 227.843029 223.312996 
L 228.310695 223.188294 
L 228.778361 223.755139 
L 229.246027 223.178952 
L 229.713693 224.06877 
L 230.649025 223.200647 
L 231.11669 223.863063 
L 231.584356 223.91051 
L 232.052022 223.680404 
L 233.45502 224.547973 
L 234.390351 223.825019 
L 234.858017 223.807626 
L 235.325683 224.499604 
L 235.793349 224.080324 
L 236.261015 225.163065 
L 236.728681 224.755585 
L 237.196346 224.800635 
L 237.664012 224.293775 
L 238.131678 225.074562 
L 238.599344 225.078865 
L 239.06701 224.40262 
L 239.534676 225.335829 
L 240.002342 225.195147 
L 240.470007 224.701439 
L 240.937673 225.181073 
L 241.405339 225.154092 
L 241.873005 225.703298 
L 242.340671 225.572511 
L 242.808337 226.212003 
L 243.276002 225.610985 
L 243.743668 225.502078 
L 244.211334 226.537618 
L 244.679 225.981958 
L 245.146666 226.271435 
L 245.614332 226.230441 
L 246.081998 225.966593 
L 246.549663 226.843689 
L 247.017329 226.787821 
L 247.484995 226.374319 
L 247.952661 226.850634 
L 248.420327 226.396874 
L 248.887993 227.215337 
L 249.355658 226.600553 
L 249.823324 226.766188 
L 250.29099 227.261678 
L 250.758656 226.38532 
L 251.226322 226.335291 
L 251.693988 227.67389 
L 252.161654 227.091004 
L 252.629319 227.31269 
L 253.096985 227.79595 
L 253.564651 228.043388 
L 254.032317 227.594853 
L 254.499983 226.941226 
L 254.967649 227.376055 
L 255.435314 228.027531 
L 255.90298 227.842229 
L 256.370646 228.106384 
L 256.838312 227.624354 
L 257.305978 227.697921 
L 257.773644 227.927659 
L 258.24131 227.90584 
L 258.708975 228.044064 
L 259.176641 228.521116 
L 259.644307 228.82522 
L 260.111973 228.715637 
L 260.579639 229.103511 
L 261.047305 228.696154 
L 261.514971 228.700026 
L 261.982636 229.925846 
L 262.450302 228.519027 
L 262.917968 228.43667 
L 263.385634 229.344865 
L 263.8533 229.411856 
L 264.320966 230.296696 
L 264.788631 230.390545 
L 265.256297 229.378115 
L 265.723963 230.371554 
L 266.659295 230.28342 
L 267.126961 229.929595 
L 267.594627 230.252813 
L 268.529958 230.420292 
L 269.932956 230.765758 
L 270.400622 230.88241 
L 270.868287 230.831767 
L 271.335953 231.076992 
L 273.206617 231.472856 
L 273.674283 231.370463 
L 274.609614 231.761718 
L 275.07728 231.357987 
L 275.544946 232.23244 
L 276.012612 231.771244 
L 276.480278 232.906902 
L 276.947943 232.313075 
L 277.415609 232.129802 
L 278.350941 233.593717 
L 278.818607 231.74623 
L 279.286273 233.705329 
L 279.753939 232.033494 
L 282.092268 233.507981 
L 282.559934 232.915691 
L 283.0276 234.201864 
L 283.495265 233.279657 
L 283.962931 234.510086 
L 284.430597 232.935419 
L 284.898263 234.727716 
L 285.365929 234.14317 
L 285.833595 234.502096 
L 286.30126 234.246976 
L 286.768926 234.30862 
L 287.704258 234.905704 
L 288.171924 235.0116 
L 289.107256 234.922175 
L 289.574921 235.102991 
L 290.510253 236.21935 
L 290.977919 234.544749 
L 291.445585 234.916767 
L 292.380916 235.823179 
L 293.316248 236.365256 
L 294.25158 237.565078 
L 294.719246 237.075365 
L 295.186912 236.37091 
L 295.654577 236.915139 
L 296.589909 237.349845 
L 297.057575 236.490635 
L 297.525241 237.300739 
L 297.992907 237.18335 
L 298.460572 238.10691 
L 298.928238 238.702887 
L 299.86357 238.281579 
L 300.331236 237.706375 
L 300.798902 238.804112 
L 301.266568 236.991902 
L 301.734233 239.023278 
L 302.201899 238.482922 
L 303.137231 239.541693 
L 303.604897 238.643763 
L 304.072563 238.360063 
L 304.540229 238.661217 
L 305.007894 239.421232 
L 305.47556 240.524992 
L 306.878558 239.118234 
L 307.346224 241.011632 
L 307.813889 240.020405 
L 308.281555 239.937742 
L 308.749221 239.211346 
L 309.216887 241.392684 
L 309.684553 240.711953 
L 310.152219 240.431757 
L 310.619885 239.497073 
L 311.08755 242.037461 
L 311.555216 241.036462 
L 312.022882 240.882873 
L 312.490548 239.989368 
L 312.958214 242.026214 
L 313.893545 240.611528 
L 314.361211 243.037907 
L 314.828877 241.862853 
L 315.296543 241.873363 
L 315.764209 241.252986 
L 316.699541 242.498042 
L 317.167206 243.471876 
L 317.634872 242.992488 
L 318.570204 242.643457 
L 319.03787 241.854925 
L 319.505536 242.773875 
L 320.440867 242.376474 
L 321.376199 243.946962 
L 321.843865 243.520983 
L 322.311531 244.52106 
L 322.779197 243.628845 
L 323.246862 244.461443 
L 323.714528 243.56677 
L 324.182194 244.935361 
L 324.64986 243.989308 
L 325.585192 244.765056 
L 326.052857 243.9048 
L 326.520523 246.175071 
L 326.988189 245.859413 
L 327.455855 244.442391 
L 327.923521 245.90139 
L 328.391187 246.419989 
L 329.326518 246.710019 
L 329.794184 245.667657 
L 330.26185 246.457849 
L 331.197182 245.865927 
L 331.664848 245.761814 
L 332.600179 247.953846 
L 333.067845 246.916033 
L 333.535511 247.460138 
L 334.003177 248.902666 
L 334.470843 247.380732 
L 334.938509 247.746972 
L 335.406174 248.976172 
L 336.809172 247.525286 
L 337.276838 248.746127 
L 337.744504 249.018457 
L 338.21217 248.216404 
L 338.679835 248.956566 
L 339.147501 250.457481 
L 339.615167 249.816761 
L 340.082833 248.93106 
L 340.550499 250.250545 
L 341.018165 250.070898 
L 341.48583 250.546659 
L 341.953496 249.391765 
L 342.421162 250.300881 
L 342.888828 250.700125 
L 343.356494 250.341567 
L 343.82416 251.493205 
L 344.291826 251.884029 
L 344.759491 251.075154 
L 345.694823 252.216712 
L 346.162489 250.865698 
L 346.630155 252.125813 
L 347.097821 251.79399 
L 347.565486 250.97227 
L 348.033152 252.923809 
L 348.500818 251.819865 
L 348.968484 253.774723 
L 349.43615 252.333179 
L 349.903816 253.215621 
L 350.371482 253.076292 
L 350.839147 252.768992 
L 351.306813 252.892157 
L 351.774479 253.651434 
L 352.242145 253.335284 
L 352.709811 254.747881 
L 353.177477 254.192713 
L 353.645143 255.144421 
L 354.112808 254.554282 
L 354.580474 255.066121 
L 355.04814 254.419992 
L 355.515806 254.685745 
L 355.983472 255.724603 
L 356.451138 254.630676 
L 356.918803 255.678754 
L 357.386469 254.937731 
L 357.854135 255.763077 
L 358.321801 254.526993 
L 358.789467 255.487675 
L 359.257133 256.845695 
L 359.724799 256.473555 
L 360.192464 256.539194 
L 360.66013 257.671656 
L 361.127796 256.809987 
L 361.595462 257.433498 
L 362.063128 257.829374 
L 362.530794 257.123666 
L 362.998459 258.205712 
L 363.466125 257.237994 
L 363.933791 258.509337 
L 364.401457 258.290552 
L 364.869123 257.783673 
L 365.336789 257.541238 
L 365.804455 258.08672 
L 366.27212 259.292381 
L 366.739786 258.42786 
L 367.207452 259.121546 
L 367.675118 257.971329 
L 368.142784 259.335138 
L 368.61045 258.87554 
L 369.078115 258.927788 
L 369.545781 259.552541 
L 370.013447 259.353447 
L 370.481113 260.010657 
L 370.948779 259.327444 
L 371.416445 260.876875 
L 371.884111 260.770444 
L 372.351776 260.168321 
L 372.819442 260.541346 
L 373.287108 261.458993 
L 373.754774 261.816955 
L 374.22244 261.574642 
L 374.690106 260.90372 
L 375.157771 261.345882 
L 375.625437 262.296588 
L 376.093103 261.334315 
L 376.560769 261.985158 
L 377.028435 262.001839 
L 377.496101 262.21264 
L 377.963767 262.828476 
L 378.899098 263.024109 
L 379.366764 263.8069 
L 379.83443 263.019874 
L 380.302096 263.255813 
L 380.769762 263.301466 
L 381.237428 264.002976 
L 382.172759 264.3329 
L 383.108091 264.520107 
L 383.575757 264.81517 
L 384.043423 264.619254 
L 384.511088 265.285425 
L 385.44642 265.073677 
L 386.381752 265.779232 
L 386.849418 266.308163 
L 387.784749 266.342328 
L 388.252415 266.544144 
L 388.720081 266.515879 
L 389.187747 266.887134 
L 390.590744 267.461865 
L 391.05841 267.30516 
L 391.993742 267.848725 
L 392.461408 267.779355 
L 393.39674 268.468537 
L 393.864405 268.65111 
L 394.799737 268.730399 
L 395.267403 269.095914 
L 396.202735 269.345612 
L 397.138066 269.725182 
L 398.541064 270.240851 
L 401.347059 269.218337 
L 401.814725 269.161847 
L 402.750057 268.687089 
L 403.217722 268.660575 
L 404.153054 268.10934 
L 405.088386 268.114761 
L 405.556052 267.704399 
L 406.023717 267.48667 
L 406.491383 267.640382 
L 406.959049 267.496473 
L 407.426715 266.929204 
L 407.894381 266.740337 
L 408.362047 267.089227 
L 409.297378 266.200478 
L 409.765044 266.250648 
L 410.23271 265.857526 
L 410.700376 265.967072 
L 411.168042 265.55867 
L 411.635708 265.343701 
L 412.103373 264.68973 
L 412.571039 264.968279 
L 413.038705 264.656886 
L 413.506371 264.91259 
L 413.974037 265.028252 
L 414.441703 264.193859 
L 415.377034 264.654212 
L 415.8447 264.674476 
L 416.312366 263.955634 
L 416.780032 263.603185 
L 417.247698 263.828276 
L 417.715364 262.162323 
L 418.183029 263.428491 
L 418.650695 262.78133 
L 419.118361 262.660677 
L 419.586027 262.181892 
L 420.053693 262.515927 
L 420.521359 261.500614 
L 420.989025 261.827102 
L 421.45669 262.30885 
L 421.924356 260.942133 
L 422.859688 261.718735 
L 423.327354 260.894747 
L 423.79502 260.758663 
L 424.262686 259.502863 
L 424.730351 259.889206 
L 425.198017 260.480353 
L 425.665683 259.8035 
L 426.133349 260.093493 
L 426.601015 258.963563 
L 427.068681 259.670747 
L 427.536346 260.075424 
L 428.471678 258.256903 
L 428.939344 259.022633 
L 429.40701 258.898066 
L 429.874676 259.588612 
L 430.342342 258.832973 
L 430.810007 258.312137 
L 431.277673 259.687986 
L 431.745339 258.361993 
L 432.213005 258.317379 
L 432.680671 257.695453 
L 433.148337 257.828993 
L 433.616002 258.146336 
L 434.083668 257.915203 
L 434.551334 259.014452 
L 435.019 254.748372 
L 435.486666 257.524902 
L 435.954332 257.33625 
L 436.421998 257.488948 
L 436.889663 255.362173 
L 437.357329 255.331382 
L 437.824995 255.648823 
L 438.292661 255.017198 
L 438.760327 255.538809 
L 439.227993 254.795819 
L 439.695658 254.628157 
L 440.163324 253.128164 
L 440.63099 252.644842 
L 441.098656 255.395669 
L 441.566322 252.593646 
L 442.033988 255.034407 
L 442.501654 252.242279 
L 442.969319 252.685467 
L 443.436985 252.223411 
L 443.904651 251.298561 
L 444.372317 250.941294 
L 444.839983 254.940373 
L 445.307649 254.722129 
L 445.775314 250.501855 
L 446.24298 249.983133 
L 446.710646 254.257491 
L 447.178312 250.703751 
L 447.645978 255.229789 
L 448.113644 250.775598 
L 448.58131 254.777136 
L 449.048975 249.916387 
L 449.516641 253.665078 
L 449.984307 249.322069 
L 450.451973 252.775998 
L 450.919639 249.679828 
L 451.387305 252.17621 
L 451.854971 251.613421 
L 452.322636 250.242064 
L 452.790302 250.805406 
L 453.725634 247.878435 
L 454.1933 251.633334 
L 454.660966 246.970302 
L 455.128631 249.118759 
L 455.596297 248.488979 
L 456.063963 249.744115 
L 456.531629 247.211963 
L 456.999295 249.476026 
L 457.466961 248.416948 
L 457.934627 248.825534 
L 458.402292 245.256551 
L 458.869958 245.272531 
L 459.337624 252.025387 
L 459.80529 248.794066 
L 460.740622 248.096495 
L 461.208287 244.589833 
L 461.675953 243.665844 
L 462.143619 250.3101 
L 462.611285 245.586161 
L 463.078951 246.197381 
L 463.546617 248.618352 
L 464.014283 243.276618 
L 464.481948 251.069684 
L 464.949614 247.908673 
L 465.41728 245.724692 
L 465.884946 245.583396 
L 466.352612 245.203389 
L 466.820278 249.46103 
L 467.287943 246.270027 
L 467.755609 245.055885 
L 468.223275 250.005689 
L 468.690941 241.255813 
L 469.158607 245.47412 
L 469.626273 241.779206 
L 470.093939 240.295562 
L 470.561604 243.587605 
L 471.02927 242.904539 
L 471.496936 248.593891 
L 471.964602 239.805295 
L 472.432268 244.528435 
L 472.899934 240.220212 
L 473.3676 240.313631 
L 473.835265 242.196519 
L 474.302931 246.166159 
L 474.770597 245.845461 
L 475.238263 241.12816 
L 475.705929 242.513223 
L 476.173595 239.749121 
L 476.64126 242.940677 
L 477.108926 244.863207 
L 477.576592 238.321344 
L 478.044258 240.436674 
L 478.511924 246.491652 
L 478.97959 241.428761 
L 479.447256 244.086722 
L 479.914921 236.66051 
L 480.382587 241.314323 
L 480.850253 237.792726 
L 481.317919 242.348203 
L 481.785585 244.61497 
L 482.253251 239.170721 
L 482.720916 241.504541 
L 483.188582 238.541063 
L 483.656248 239.720235 
L 484.123914 245.884365 
L 484.59158 239.523563 
L 485.059246 241.572086 
L 485.526912 238.864773 
L 485.994577 246.296086 
L 486.929909 233.863465 
L 487.397575 239.303536 
L 487.865241 236.918949 
L 488.332907 239.035816 
L 488.800572 236.670405 
L 489.268238 238.694344 
L 489.735904 235.084122 
L 490.20357 239.79497 
L 490.671236 239.384048 
L 491.138902 241.641105 
L 491.606568 235.867061 
L 492.074233 232.933699 
L 492.541899 237.938386 
L 493.009565 232.516754 
L 493.477231 237.878401 
L 493.944897 232.523146 
L 494.412563 231.983588 
L 494.880229 237.073091 
L 495.347894 235.367023 
L 495.81556 232.753559 
L 496.750892 241.278614 
L 497.218558 236.906842 
L 497.686224 234.148517 
L 498.153889 238.443526 
L 498.621555 233.089991 
L 499.089221 231.310171 
L 499.556887 238.951739 
L 500.024553 238.57333 
L 500.959885 233.961924 
L 501.42755 241.339398 
L 501.895216 235.076194 
L 502.362882 237.995544 
L 502.830548 229.907715 
L 503.298214 230.750332 
L 503.76588 233.410136 
L 504.233545 235.287739 
L 504.701211 234.204937 
L 505.168877 237.536192 
L 505.636543 235.446921 
L 506.104209 231.799884 
L 506.571875 232.393711 
L 507.039541 226.907668 
L 507.507206 228.275891 
L 507.974872 234.938032 
L 508.442538 230.421152 
L 508.910204 229.51812 
L 509.37787 229.028038 
L 509.845536 227.20913 
L 510.313201 234.261665 
L 510.780867 229.915521 
L 511.248533 232.130109 
L 511.716199 232.391867 
L 512.183865 232.826389 
L 512.651531 231.92471 
L 513.119197 229.292624 
L 513.586862 235.939031 
L 514.054528 231.940321 
L 514.522194 224.81809 
L 514.98986 229.095214 
L 515.457526 225.149482 
L 515.925192 233.765375 
L 516.392857 228.872729 
L 516.860523 232.75147 
L 517.328189 231.323447 
L 517.795855 226.723534 
L 518.263521 228.034538 
L 518.731187 232.218673 
L 519.198853 231.648877 
L 519.666518 227.867981 
L 520.134184 225.63938 
L 520.60185 231.259774 
L 521.069516 232.903276 
L 521.537182 227.614458 
L 522.004848 233.314628 
L 522.472514 222.82906 
L 522.940179 226.193257 
L 523.407845 222.301364 
L 523.875511 226.986399 
L 524.343177 222.784501 
L 524.810843 231.454356 
L 525.746174 229.675888 
L 526.21384 230.241566 
L 526.681506 222.127678 
L 527.149172 225.546944 
L 527.616838 221.465078 
L 528.084504 232.1188 
L 528.55217 228.358801 
L 529.019835 226.904473 
L 529.487501 227.476296 
L 529.955167 237.550451 
L 530.422833 222.22245 
L 530.890499 225.670786 
L 531.358165 224.250568 
L 531.82583 220.816921 
L 532.293496 221.21088 
L 532.761162 226.372782 
L 533.228828 227.393018 
L 533.696494 231.342438 
L 534.16416 222.998997 
L 534.631826 222.399639 
L 535.099491 226.720093 
L 535.567157 234.645851 
L 536.034823 227.997723 
L 536.502489 225.167674 
L 536.970155 231.744017 
L 537.437821 227.555641 
L 537.905486 225.430047 
L 538.373152 231.410904 
L 538.840818 223.333524 
L 539.308484 227.027208 
L 539.77615 219.897787 
L 540.243816 219.219022 
L 540.711482 219.474635 
L 541.646813 221.452786 
L 542.114479 219.340959 
L 542.582145 226.519303 
L 543.049811 219.704679 
L 543.517477 230.170949 
L 544.452808 223.738914 
L 544.920474 225.368587 
L 545.38814 218.392078 
L 545.855806 224.292484 
L 546.323472 220.59376 
L 546.791138 225.734581 
L 547.258803 217.641344 
L 548.194135 223.637689 
L 548.661801 222.974474 
L 549.129467 232.736596 
L 549.597133 218.240948 
L 550.064799 227.775422 
L 550.532464 217.43238 
L 551.00013 217.344984 
L 551.467796 227.694172 
L 551.935462 217.962473 
L 552.403128 216.91249 
L 552.870794 220.646185 
L 553.338459 222.001501 
L 553.806125 221.313149 
L 554.741457 218.168855 
L 555.209123 226.150112 
L 555.676789 217.55149 
L 556.144455 217.031354 
L 556.61212 224.979914 
L 557.079786 221.793705 
L 557.547452 223.892564 
L 558.015118 217.289178 
L 558.482784 216.38799 
L 558.95045 217.513016 
L 559.418115 215.850892 
L 559.885781 215.870866 
L 560.353447 219.593806 
L 560.821113 218.390972 
L 561.288779 215.68372 
L 561.756445 215.664483 
L 562.224111 215.960229 
L 562.691776 216.024946 
L 563.627108 223.719124 
L 564.094774 217.791614 
L 564.56244 215.486065 
L 565.030106 215.940009 
L 565.497771 218.477016 
L 565.965437 216.072824 
L 566.433103 219.957956 
L 566.900769 215.371811 
L 567.368435 219.351161 
L 567.836101 215.646783 
L 568.303767 217.584985 
L 568.771432 215.505179 
L 569.239098 215.282079 
L 569.706764 216.654973 
L 570.17443 215.223139 
L 570.642096 215.90639 
L 571.109762 215.123205 
L 571.577428 215.468057 
L 572.045093 214.985473 
L 573.448091 214.9344 
L 573.448091 214.9344 
" style="fill:none;stroke:#1f77b4;stroke-linecap:square;stroke-width:1.5;"/>
   </g>
   <g id="line2d_28">
    <path clip-path="url(#p5f5368c670)" d="M 106.249909 270.2484 
L 147.404504 270.163755 
L 148.339835 270.124231 
L 149.742833 270.186243 
L 155.822489 270.101913 
L 156.290155 270.231888 
L 156.757821 270.110193 
L 158.160818 270.092243 
L 158.628484 270.206829 
L 160.031482 270.081968 
L 160.499147 270.179122 
L 161.902145 270.051144 
L 162.369811 270.116237 
L 162.837477 270.039891 
L 163.305143 270.13911 
L 163.772808 270.010002 
L 164.240474 270.111306 
L 165.175806 270.12188 
L 165.643472 270.106857 
L 166.111138 270.212339 
L 166.578803 270.043406 
L 167.046469 270.106228 
L 167.981801 269.998013 
L 168.917133 270.147877 
L 169.852464 269.976044 
L 171.255462 270.120456 
L 172.190794 269.975942 
L 173.593791 270.172028 
L 174.061457 269.97119 
L 178.738115 269.962101 
L 179.205781 269.930836 
L 180.141113 270.070113 
L 180.608779 269.911106 
L 181.544111 269.951597 
L 182.947108 269.911796 
L 183.414774 270.118803 
L 183.88244 270.189568 
L 184.350106 270.08272 
L 184.817771 269.818195 
L 185.285437 270.039651 
L 186.220769 269.851839 
L 186.688435 270.148852 
L 187.623767 269.88844 
L 188.091432 269.974168 
L 188.559098 269.840632 
L 191.365093 269.917317 
L 191.832759 270.017753 
L 192.300425 269.767973 
L 192.768091 269.846633 
L 193.235757 269.736744 
L 193.703423 270.139841 
L 194.171088 269.830142 
L 195.10642 269.760355 
L 195.574086 269.96005 
L 196.041752 270.027236 
L 196.977084 269.752417 
L 197.444749 269.842087 
L 198.847747 269.679276 
L 199.783079 270.160334 
L 200.250744 269.770641 
L 200.71841 269.870552 
L 201.186076 269.851013 
L 201.653742 270.157669 
L 202.589074 269.588607 
L 203.05674 269.969144 
L 203.524405 269.818267 
L 203.992071 269.806628 
L 205.395069 270.138591 
L 205.862735 269.760678 
L 206.3304 269.604338 
L 206.798066 269.999309 
L 207.265732 269.678659 
L 207.733398 269.808754 
L 208.201064 269.56761 
L 208.66873 269.990624 
L 209.136396 269.630098 
L 209.604061 269.629747 
L 210.071727 269.925413 
L 210.539393 269.447222 
L 211.007059 269.703125 
L 211.474725 269.735699 
L 211.942391 269.93071 
L 212.410057 269.405309 
L 212.877722 269.448996 
L 213.345388 269.848386 
L 214.28072 269.559872 
L 214.748386 269.73735 
L 215.216052 269.50274 
L 215.683717 269.897241 
L 216.151383 269.72604 
L 216.619049 269.91304 
L 217.086715 269.791474 
L 217.554381 269.920587 
L 218.022047 269.530388 
L 218.489713 269.405697 
L 218.957378 269.677344 
L 219.425044 269.519666 
L 219.89271 269.695227 
L 220.360376 269.415562 
L 220.828042 269.728581 
L 221.763373 269.78422 
L 222.231039 269.452301 
L 222.698705 269.295615 
L 223.166371 269.296951 
L 223.634037 269.760461 
L 224.101703 269.204303 
L 224.569369 269.252862 
L 225.037034 269.875583 
L 225.5047 269.368393 
L 225.972366 269.684093 
L 226.440032 269.616195 
L 226.907698 269.795255 
L 227.375364 269.142438 
L 227.843029 269.33467 
L 228.310695 269.261482 
L 228.778361 269.393885 
L 229.246027 269.3003 
L 229.713693 269.743742 
L 230.181359 270.022716 
L 230.649025 269.770512 
L 231.11669 269.39016 
L 231.584356 269.855509 
L 232.052022 269.135112 
L 232.519688 269.712453 
L 232.987354 269.450826 
L 233.45502 269.354962 
L 233.922686 269.654563 
L 234.390351 269.421576 
L 234.858017 269.786933 
L 235.325683 269.224071 
L 236.261015 269.829923 
L 236.728681 269.092731 
L 237.196346 269.361849 
L 237.664012 269.438827 
L 238.131678 269.213938 
L 238.599344 269.666051 
L 239.06701 269.854665 
L 239.534676 269.386661 
L 240.002342 269.380152 
L 240.470007 269.531653 
L 240.937673 268.925713 
L 241.405339 269.207523 
L 242.340671 268.870971 
L 242.808337 269.53006 
L 243.276002 269.49778 
L 243.743668 269.285003 
L 244.211334 269.740197 
L 244.679 268.885881 
L 245.146666 268.830714 
L 245.614332 269.485402 
L 246.081998 269.001897 
L 246.549663 269.304718 
L 247.484995 268.753263 
L 247.952661 269.197656 
L 248.420327 268.794392 
L 248.887993 269.23129 
L 249.355658 269.263879 
L 249.823324 268.945054 
L 250.29099 268.780446 
L 250.758656 269.553755 
L 251.226322 270.017472 
L 251.693988 269.365943 
L 252.161654 269.471971 
L 252.629319 269.298386 
L 253.096985 268.970009 
L 253.564651 269.242273 
L 254.032317 268.520686 
L 254.499983 269.669025 
L 255.435314 269.194523 
L 255.90298 268.513538 
L 256.370646 269.413723 
L 256.838312 269.354219 
L 257.773644 268.640637 
L 258.708975 269.275132 
L 259.176641 269.364563 
L 259.644307 268.694839 
L 260.111973 268.919988 
L 260.579639 268.420801 
L 261.047305 269.266068 
L 261.514971 268.962877 
L 261.982636 269.340803 
L 262.450302 269.151649 
L 262.917968 269.948366 
L 263.385634 268.318046 
L 263.8533 268.424064 
L 264.320966 269.191849 
L 264.788631 268.928135 
L 265.256297 269.180478 
L 265.723963 268.496009 
L 266.191629 268.524103 
L 266.659295 268.853627 
L 267.126961 268.447726 
L 267.594627 269.91209 
L 268.062292 269.965965 
L 268.529958 268.346846 
L 268.997624 268.816652 
L 269.46529 268.175354 
L 270.400622 268.334775 
L 271.335953 268.08137 
L 271.803619 269.250857 
L 272.271285 269.227824 
L 272.738951 268.042361 
L 273.206617 268.223754 
L 273.674283 268.030358 
L 274.141948 269.622109 
L 274.609614 269.568103 
L 275.07728 268.258835 
L 275.544946 269.16335 
L 276.947943 268.263654 
L 277.883275 268.049619 
L 278.350941 269.426136 
L 278.818607 269.221056 
L 279.753939 269.116664 
L 280.68927 268.207264 
L 281.624602 267.765576 
L 282.092268 269.572134 
L 282.559934 268.182699 
L 283.0276 268.802526 
L 283.495265 268.164371 
L 283.962931 268.096335 
L 284.430597 269.60825 
L 284.898263 268.618237 
L 285.365929 268.78883 
L 285.833595 267.831473 
L 286.30126 267.980415 
L 286.768926 268.979034 
L 287.236592 268.115609 
L 287.704258 267.636258 
L 288.171924 267.547737 
L 288.63959 267.912723 
L 289.107256 268.752961 
L 289.574921 268.647757 
L 290.042587 267.952414 
L 290.510253 268.132726 
L 290.977919 269.019073 
L 291.445585 268.162103 
L 291.913251 268.216274 
L 292.380916 269.194865 
L 292.848582 269.802014 
L 293.316248 268.58626 
L 293.783914 268.193632 
L 294.25158 269.779972 
L 294.719246 268.517248 
L 295.186912 268.615127 
L 295.654577 268.071942 
L 296.122243 267.969734 
L 296.589909 267.35683 
L 297.057575 268.002467 
L 297.525241 268.909467 
L 297.992907 268.236906 
L 298.460572 268.414385 
L 298.928238 269.022346 
L 299.86357 267.582652 
L 300.331236 267.828468 
L 301.266568 269.171282 
L 301.734233 268.561194 
L 302.201899 269.382657 
L 302.669565 268.332705 
L 303.137231 268.064013 
L 303.604897 267.216615 
L 304.072563 267.637241 
L 304.540229 267.253639 
L 305.007894 267.481526 
L 305.47556 269.280096 
L 305.943226 267.674885 
L 306.410892 267.310981 
L 306.878558 267.771648 
L 307.346224 269.020173 
L 307.813889 268.369887 
L 308.281555 268.79297 
L 308.749221 268.735039 
L 309.216887 268.357896 
L 309.684553 268.805514 
L 310.152219 269.078237 
L 310.619885 268.953137 
L 311.08755 268.61456 
L 311.555216 269.44744 
L 312.022882 268.086034 
L 312.490548 268.956291 
L 312.958214 268.216995 
L 313.42588 266.77878 
L 313.893545 268.585567 
L 314.361211 268.952805 
L 314.828877 268.967108 
L 315.764209 267.502675 
L 316.231875 267.886322 
L 316.699541 269.329905 
L 317.167206 267.72551 
L 317.634872 267.071434 
L 318.102538 268.506851 
L 318.570204 267.346462 
L 319.03787 269.111898 
L 319.505536 266.824304 
L 319.973201 267.289371 
L 320.440867 268.104466 
L 320.908533 268.214813 
L 321.376199 268.612813 
L 321.843865 266.411391 
L 322.311531 268.317924 
L 322.779197 266.574893 
L 323.246862 266.186994 
L 323.714528 267.347887 
L 324.182194 266.89596 
L 324.64986 266.982465 
L 325.117526 267.705132 
L 325.585192 267.403871 
L 326.052857 269.170407 
L 326.520523 267.400663 
L 326.988189 266.771024 
L 327.455855 268.13645 
L 327.923521 267.692703 
L 328.391187 266.184794 
L 328.858853 266.122123 
L 329.326518 267.443064 
L 329.794184 266.924914 
L 330.26185 265.810042 
L 330.729516 267.089295 
L 331.197182 266.937236 
L 331.664848 268.018287 
L 332.132514 266.992741 
L 332.600179 267.483963 
L 333.067845 266.513457 
L 333.535511 268.047222 
L 334.003177 268.399729 
L 334.470843 267.091968 
L 334.938509 268.200681 
L 335.406174 266.595273 
L 335.87384 268.036872 
L 336.341506 267.933235 
L 336.809172 267.224654 
L 337.276838 269.030698 
L 337.744504 266.215051 
L 338.21217 267.320921 
L 338.679835 267.380148 
L 339.147501 267.803349 
L 339.615167 267.961128 
L 340.550499 265.691534 
L 341.018165 266.186908 
L 341.48583 266.492862 
L 341.953496 267.388177 
L 342.421162 269.026068 
L 342.888828 265.207813 
L 343.356494 267.719051 
L 344.291826 267.068791 
L 344.759491 267.501212 
L 345.227157 265.481569 
L 345.694823 265.965689 
L 346.162489 265.996622 
L 346.630155 265.251979 
L 347.097821 267.968283 
L 347.565486 267.969053 
L 348.500818 266.089937 
L 348.968484 268.813946 
L 349.43615 265.246638 
L 349.903816 265.946606 
L 350.839147 266.043786 
L 351.306813 265.082367 
L 351.774479 267.798215 
L 352.242145 266.023117 
L 352.709811 267.215386 
L 353.177477 266.691157 
L 353.645143 266.996029 
L 354.112808 265.442234 
L 354.580474 266.815005 
L 355.04814 265.598398 
L 355.515806 268.551266 
L 355.983472 265.851423 
L 356.451138 265.343228 
L 356.918803 266.268957 
L 357.854135 265.557054 
L 358.321801 269.692384 
L 358.789467 264.700307 
L 359.257133 267.22136 
L 359.724799 265.737937 
L 360.192464 267.425628 
L 360.66013 270.048969 
L 361.127796 267.772009 
L 361.595462 266.35258 
L 362.063128 266.462581 
L 362.530794 268.119555 
L 363.466125 264.498663 
L 363.933791 267.26861 
L 364.401457 266.541286 
L 364.869123 267.583215 
L 365.336789 265.235569 
L 365.804455 264.829693 
L 366.27212 267.138797 
L 366.739786 265.599547 
L 367.207452 265.245617 
L 367.675118 269.748949 
L 368.142784 263.83653 
L 369.078115 266.852957 
L 369.545781 267.350106 
L 370.013447 264.602174 
L 370.481113 268.984932 
L 370.948779 267.12622 
L 371.416445 266.566817 
L 371.884111 264.072862 
L 372.351776 264.65034 
L 372.819442 264.296601 
L 373.287108 266.122621 
L 373.754774 265.534307 
L 374.22244 263.697637 
L 374.690106 265.418634 
L 375.157771 263.940336 
L 375.625437 266.67252 
L 376.093103 267.141608 
L 376.560769 263.462786 
L 377.028435 264.079475 
L 377.496101 265.927455 
L 377.963767 266.05523 
L 378.431432 263.462558 
L 378.899098 268.59016 
L 379.83443 266.333586 
L 380.769762 264.537863 
L 381.237428 262.984572 
L 381.705093 264.576041 
L 382.172759 264.035144 
L 382.640425 263.233491 
L 383.108091 262.984652 
L 383.575757 266.050356 
L 384.043423 265.537903 
L 384.511088 263.323843 
L 384.978754 266.250175 
L 385.44642 266.193392 
L 385.914086 264.552631 
L 386.381752 266.377391 
L 386.849418 266.141366 
L 387.317084 264.932319 
L 387.784749 267.22506 
L 388.252415 262.526799 
L 388.720081 266.577234 
L 389.187747 265.32782 
L 389.655413 262.864264 
L 390.123079 262.504139 
L 390.590744 264.915043 
L 391.05841 264.67726 
L 391.526076 262.774016 
L 391.993742 262.913235 
L 392.461408 265.730942 
L 392.929074 267.215226 
L 393.39674 263.974674 
L 393.864405 264.0869 
L 394.332071 264.487349 
L 394.799737 265.305467 
L 395.267403 265.054219 
L 395.735069 266.018262 
L 396.202735 262.383265 
L 396.6704 264.093962 
L 397.138066 267.341053 
L 397.605732 262.679054 
L 398.073398 265.887732 
L 398.541064 267.713716 
L 399.00873 51.300838 
L 399.476396 55.134712 
L 399.944061 54.482622 
L 400.411727 57.238488 
L 400.879393 54.92329 
L 401.347059 57.583893 
L 401.814725 53.366508 
L 402.282391 56.201658 
L 402.750057 51.305754 
L 403.217722 55.124879 
L 403.685388 57.840796 
L 404.153054 53.426124 
L 404.62072 55.418658 
L 405.088386 52.745148 
L 405.556052 54.889487 
L 406.023717 50.526442 
L 406.491383 53.858803 
L 406.959049 53.049375 
L 407.426715 51.708932 
L 407.894381 54.373838 
L 408.362047 50.63707 
L 409.297378 58.282694 
L 409.765044 55.994538 
L 410.23271 58.086636 
L 410.700376 56.821175 
L 411.168042 52.371471 
L 411.635708 57.788555 
L 412.103373 53.561336 
L 412.571039 52.651728 
L 413.506371 57.892423 
L 414.441703 53.652297 
L 414.909369 57.724022 
L 415.377034 54.820652 
L 415.8447 52.845327 
L 416.312366 55.263164 
L 416.780032 54.544082 
L 417.247698 55.194329 
L 417.715364 50.522754 
L 418.183029 54.756733 
L 418.650695 51.370287 
L 419.118361 54.257064 
L 419.586027 58.113064 
L 420.053693 58.862261 
L 420.521359 56.365142 
L 420.989025 57.676083 
L 421.45669 54.916529 
L 422.392022 58.967358 
L 422.859688 53.871709 
L 423.327354 59.362546 
L 423.79502 54.218344 
L 424.262686 53.577931 
L 424.730351 58.075573 
L 425.198017 58.063281 
L 425.665683 55.715509 
L 426.133349 50.230819 
L 426.601015 56.594387 
L 427.068681 58.865334 
L 427.536346 59.693201 
L 428.004012 58.558034 
L 428.471678 56.8138 
L 428.939344 50.901962 
L 429.40701 52.184632 
L 430.342342 59.097039 
L 430.810007 60.227903 
L 431.277673 54.254605 
L 431.745339 56.504656 
L 432.213005 56.319047 
L 432.680671 55.524983 
L 433.148337 55.15438 
L 433.616002 55.539734 
L 434.083668 57.544559 
L 434.551334 53.125585 
L 435.019 50.794407 
L 435.486666 59.671075 
L 435.954332 57.599873 
L 436.889663 56.476999 
L 437.357329 59.513737 
L 437.824995 59.601011 
L 438.292661 60.192256 
L 438.760327 53.541669 
L 439.695658 56.823633 
L 440.163324 55.389157 
L 440.63099 54.434683 
L 441.098656 60.161526 
L 441.566322 56.329495 
L 442.033988 61.028112 
L 442.501654 56.923198 
L 442.969319 59.310305 
L 443.436985 58.448021 
L 443.904651 54.73891 
L 444.372317 53.259568 
L 444.839983 59.945801 
L 445.307649 60.168286 
L 445.775314 54.586489 
L 446.24298 50.906264 
L 446.710646 60.401834 
L 447.178312 58.551888 
L 447.645978 55.117504 
L 448.113644 59.850538 
L 448.58131 56.022195 
L 449.048975 57.937903 
L 449.516641 58.157315 
L 449.984307 55.290206 
L 450.451973 56.564272 
L 450.919639 56.206575 
L 451.387305 60.37049 
L 451.854971 62.214904 
L 452.790302 57.756596 
L 453.257968 58.130887 
L 453.725634 58.046073 
L 454.1933 58.358289 
L 454.660966 54.904852 
L 455.128631 62.026837 
L 456.063963 59.543853 
L 456.531629 59.211969 
L 456.999295 53.749404 
L 457.466961 57.460973 
L 457.934627 57.014774 
L 458.402292 54.751202 
L 458.869958 55.930005 
L 459.337624 55.233048 
L 459.80529 57.772576 
L 460.272956 58.71906 
L 460.740622 52.989144 
L 461.208287 56.811341 
L 461.675953 51.959074 
L 462.143619 59.275273 
L 462.611285 56.740048 
L 463.078951 62.493933 
L 463.546617 61.308984 
L 464.014283 54.899935 
L 464.481948 53.644307 
L 464.949614 55.582141 
L 465.41728 61.693724 
L 465.884946 58.86472 
L 466.352612 62.95181 
L 466.820278 59.693201 
L 467.287943 60.980173 
L 468.223275 53.593296 
L 468.690941 55.223829 
L 469.158607 52.431702 
L 469.626273 58.48797 
L 470.093939 52.778951 
L 470.561604 58.782363 
L 471.02927 62.601488 
L 471.496936 57.188706 
L 471.964602 54.329586 
L 472.432268 57.097745 
L 472.899934 57.560539 
L 473.3676 58.881314 
L 473.835265 58.412374 
L 474.302931 62.434931 
L 474.770597 63.159545 
L 475.238263 60.734948 
L 475.705929 59.833329 
L 476.173595 59.945187 
L 476.64126 59.599781 
L 477.108926 60.573922 
L 477.576592 55.228132 
L 478.044258 63.069198 
L 478.97959 57.55808 
L 479.447256 56.910906 
L 479.914921 53.748789 
L 480.382587 55.923859 
L 481.317919 64.976302 
L 481.785585 57.628759 
L 482.253251 59.827798 
L 482.720916 56.700713 
L 483.188582 62.363023 
L 483.656248 57.677927 
L 484.123914 58.185587 
L 484.59158 62.463817 
L 485.059246 65.353052 
L 485.526912 60.752156 
L 485.994577 53.045072 
L 486.462243 65.147776 
L 486.929909 51.771007 
L 487.397575 54.850767 
L 487.865241 63.316882 
L 488.332907 55.82921 
L 488.800572 63.647537 
L 489.268238 61.548678 
L 489.735904 61.138125 
L 490.20357 61.175616 
L 490.671236 63.217932 
L 491.138902 62.280667 
L 491.606568 58.153628 
L 492.074233 56.487447 
L 492.541899 60.672258 
L 493.009565 57.291958 
L 493.477231 56.299994 
L 493.944897 57.258155 
L 494.412563 54.907925 
L 494.880229 56.288931 
L 495.347894 64.432996 
L 495.81556 58.286381 
L 496.283226 56.074436 
L 496.750892 64.006463 
L 497.218558 57.331293 
L 497.686224 58.424052 
L 498.153889 66.392341 
L 498.621555 59.980219 
L 499.089221 60.248799 
L 499.556887 66.076436 
L 500.024553 64.229563 
L 500.492219 54.097268 
L 500.959885 64.582958 
L 501.42755 61.64517 
L 502.362882 65.960891 
L 502.830548 59.706722 
L 503.298214 58.866564 
L 503.76588 62.110422 
L 504.233545 60.21684 
L 504.701211 66.551522 
L 505.168877 61.901458 
L 505.636543 55.147619 
L 506.104209 60.018324 
L 506.571875 63.209942 
L 507.039541 49.171863 
L 507.974872 62.938289 
L 508.442538 64.140446 
L 508.910204 58.062667 
L 509.37787 61.446654 
L 509.845536 58.112449 
L 510.313201 64.745213 
L 510.780867 59.469486 
L 511.248533 66.115156 
L 512.183865 57.75844 
L 512.651531 62.184174 
L 513.119197 63.226536 
L 513.586862 66.07029 
L 514.054528 67.312397 
L 514.522194 52.24179 
L 514.98986 63.516013 
L 515.457526 56.2287 
L 515.925192 58.584462 
L 516.392857 59.80936 
L 516.860523 64.835559 
L 517.328189 67.536726 
L 517.795855 61.037945 
L 518.263521 60.122191 
L 518.731187 52.877901 
L 519.198853 54.848309 
L 519.666518 59.543238 
L 520.134184 60.334228 
L 520.60185 67.900569 
L 521.069516 60.996153 
L 521.537182 61.836925 
L 522.004848 61.369829 
L 522.472514 53.020488 
L 522.940179 64.115862 
L 523.407845 49.964697 
L 523.875511 64.862601 
L 524.343177 54.918373 
L 524.810843 56.800278 
L 525.278509 51.997179 
L 526.21384 62.980696 
L 526.681506 55.426033 
L 527.149172 64.561447 
L 527.616838 52.23503 
L 528.084504 63.675809 
L 528.55217 62.933372 
L 529.019835 65.154536 
L 529.487501 62.687532 
L 529.955167 54.87658 
L 530.422833 58.314653 
L 530.890499 58.962441 
L 531.358165 60.668571 
L 531.82583 54.470944 
L 532.293496 57.545174 
L 532.761162 61.416539 
L 533.228828 57.12786 
L 533.696494 65.800481 
L 534.16416 63.103616 
L 534.631826 58.04177 
L 535.099491 57.883818 
L 535.567157 59.732535 
L 536.034823 62.817827 
L 536.502489 61.150417 
L 536.970155 65.748854 
L 537.437821 64.629668 
L 537.905486 59.519269 
L 538.373152 65.064805 
L 538.840818 62.830734 
L 539.308484 53.989713 
L 539.77615 57.854317 
L 540.243816 55.794793 
L 540.711482 57.149371 
L 541.179147 60.43195 
L 541.646813 60.56962 
L 542.114479 57.022149 
L 542.582145 63.524617 
L 543.049811 56.153105 
L 543.517477 66.115771 
L 543.985143 54.296398 
L 544.452808 65.884681 
L 544.920474 56.427831 
L 545.38814 56.097176 
L 546.323472 62.423868 
L 546.791138 54.51581 
L 547.258803 53.243588 
L 548.194135 66.14773 
L 548.661801 59.107487 
L 549.129467 57.467734 
L 549.597133 57.056567 
L 550.064799 59.357629 
L 550.532464 54.25522 
L 551.00013 54.362775 
L 551.467796 58.820469 
L 551.935462 57.778722 
L 552.403128 53.150784 
L 552.870794 62.894652 
L 553.338459 59.334274 
L 553.806125 63.455167 
L 554.273791 57.875828 
L 554.741457 57.793472 
L 555.209123 59.428308 
L 556.144455 55.239194 
L 556.61212 58.385946 
L 557.079786 55.95336 
L 557.547452 56.518792 
L 558.015118 57.479411 
L 558.482784 53.594525 
L 558.95045 55.394688 
L 559.418115 50.244955 
L 559.885781 50.662268 
L 560.353447 58.094626 
L 560.821113 56.449956 
L 561.288779 50.194558 
L 561.756445 50.427491 
L 562.224111 52.513443 
L 562.691776 53.901825 
L 563.159442 56.378048 
L 563.627108 55.241653 
L 564.094774 57.980925 
L 564.56244 51.048852 
L 565.030106 54.0776 
L 565.497771 54.796068 
L 565.965437 53.408916 
L 566.433103 56.142656 
L 566.900769 51.380736 
L 567.368435 55.877764 
L 567.836101 52.337053 
L 568.303767 53.805333 
L 568.771432 52.198768 
L 569.239098 51.230773 
L 569.706764 52.510985 
L 570.17443 50.449002 
L 570.642096 51.895156 
L 571.109762 50.136785 
L 571.577428 51.051925 
L 572.045093 49.211198 
L 572.512759 49.114091 
L 572.980425 49.200135 
L 573.448091 48.9924 
L 573.448091 48.9924 
" style="fill:none;stroke:#ff7f0e;stroke-linecap:square;stroke-width:1.5;"/>
   </g>
   <g id="patch_3">
    <path d="M 82.89 281.3112 
L 82.89 37.9296 
" style="fill:none;stroke:#000000;stroke-linecap:square;stroke-linejoin:miter;stroke-width:0.8;"/>
   </g>
   <g id="patch_4">
    <path d="M 596.808 281.3112 
L 596.808 37.9296 
" style="fill:none;stroke:#000000;stroke-linecap:square;stroke-linejoin:miter;stroke-width:0.8;"/>
   </g>
   <g id="patch_5">
    <path d="M 82.89 281.3112 
L 596.808 281.3112 
" style="fill:none;stroke:#000000;stroke-linecap:square;stroke-linejoin:miter;stroke-width:0.8;"/>
   </g>
   <g id="patch_6">
    <path d="M 82.89 37.9296 
L 596.808 37.9296 
" style="fill:none;stroke:#000000;stroke-linecap:square;stroke-linejoin:miter;stroke-width:0.8;"/>
   </g>
   <g id="text_16">
    <!-- RefFit: singola interfaccia -->
    <defs>
     <path d="M 44.390625 34.1875 
Q 47.5625 33.109375 50.5625 29.59375 
Q 53.5625 26.078125 56.59375 19.921875 
L 66.609375 0 
L 56 0 
L 46.6875 18.703125 
Q 43.0625 26.03125 39.671875 28.421875 
Q 36.28125 30.8125 30.421875 30.8125 
L 19.671875 30.8125 
L 19.671875 0 
L 9.8125 0 
L 9.8125 72.90625 
L 32.078125 72.90625 
Q 44.578125 72.90625 50.734375 67.671875 
Q 56.890625 62.453125 56.890625 51.90625 
Q 56.890625 45.015625 53.6875 40.46875 
Q 50.484375 35.9375 44.390625 34.1875 
z
M 19.671875 64.796875 
L 19.671875 38.921875 
L 32.078125 38.921875 
Q 39.203125 38.921875 42.84375 42.21875 
Q 46.484375 45.515625 46.484375 51.90625 
Q 46.484375 58.296875 42.84375 61.546875 
Q 39.203125 64.796875 32.078125 64.796875 
z
" id="DejaVuSans-82"/>
     <path d="M 37.109375 75.984375 
L 37.109375 68.5 
L 28.515625 68.5 
Q 23.6875 68.5 21.796875 66.546875 
Q 19.921875 64.59375 19.921875 59.515625 
L 19.921875 54.6875 
L 34.71875 54.6875 
L 34.71875 47.703125 
L 19.921875 47.703125 
L 19.921875 0 
L 10.890625 0 
L 10.890625 47.703125 
L 2.296875 47.703125 
L 2.296875 54.6875 
L 10.890625 54.6875 
L 10.890625 58.5 
Q 10.890625 67.625 15.140625 71.796875 
Q 19.390625 75.984375 28.609375 75.984375 
z
" id="DejaVuSans-102"/>
     <path d="M 9.8125 72.90625 
L 51.703125 72.90625 
L 51.703125 64.59375 
L 19.671875 64.59375 
L 19.671875 43.109375 
L 48.578125 43.109375 
L 48.578125 34.8125 
L 19.671875 34.8125 
L 19.671875 0 
L 9.8125 0 
z
" id="DejaVuSans-70"/>
     <path d="M 11.71875 12.40625 
L 22.015625 12.40625 
L 22.015625 0 
L 11.71875 0 
z
M 11.71875 51.703125 
L 22.015625 51.703125 
L 22.015625 39.3125 
L 11.71875 39.3125 
z
" id="DejaVuSans-58"/>
    </defs>
    <g transform="translate(263.451188 31.9296)scale(0.12 -0.12)">
     <use xlink:href="#DejaVuSans-82"/>
     <use x="69.419922" xlink:href="#DejaVuSans-101"/>
     <use x="130.943359" xlink:href="#DejaVuSans-102"/>
     <use x="166.148438" xlink:href="#DejaVuSans-70"/>
     <use x="223.558594" xlink:href="#DejaVuSans-105"/>
     <use x="251.341797" xlink:href="#DejaVuSans-116"/>
     <use x="290.550781" xlink:href="#DejaVuSans-58"/>
     <use x="324.242188" xlink:href="#DejaVuSans-32"/>
     <use x="356.029297" xlink:href="#DejaVuSans-115"/>
     <use x="408.128906" xlink:href="#DejaVuSans-105"/>
     <use x="435.912109" xlink:href="#DejaVuSans-110"/>
     <use x="499.291016" xlink:href="#DejaVuSans-103"/>
     <use x="562.767578" xlink:href="#DejaVuSans-111"/>
     <use x="623.949219" xlink:href="#DejaVuSans-108"/>
     <use x="651.732422" xlink:href="#DejaVuSans-97"/>
     <use x="713.011719" xlink:href="#DejaVuSans-32"/>
     <use x="744.798828" xlink:href="#DejaVuSans-105"/>
     <use x="772.582031" xlink:href="#DejaVuSans-110"/>
     <use x="835.960938" xlink:href="#DejaVuSans-116"/>
     <use x="875.169922" xlink:href="#DejaVuSans-101"/>
     <use x="936.693359" xlink:href="#DejaVuSans-114"/>
     <use x="977.806641" xlink:href="#DejaVuSans-102"/>
     <use x="1013.011719" xlink:href="#DejaVuSans-97"/>
     <use x="1074.291016" xlink:href="#DejaVuSans-99"/>
     <use x="1129.271484" xlink:href="#DejaVuSans-99"/>
     <use x="1184.251953" xlink:href="#DejaVuSans-105"/>
     <use x="1212.035156" xlink:href="#DejaVuSans-97"/>
    </g>
   </g>
   <g id="legend_1">
    <g id="patch_7">
     <path d="M 89.89 75.28585 
L 129.79 75.28585 
Q 131.79 75.28585 131.79 73.28585 
L 131.79 44.9296 
Q 131.79 42.9296 129.79 42.9296 
L 89.89 42.9296 
Q 87.89 42.9296 87.89 44.9296 
L 87.89 73.28585 
Q 87.89 75.28585 89.89 75.28585 
z
" style="fill:#ffffff;opacity:0.8;stroke:#cccccc;stroke-linejoin:miter;"/>
    </g>
    <g id="line2d_29">
     <path d="M 91.89 51.028037 
L 111.89 51.028037 
" style="fill:none;stroke:#1f77b4;stroke-linecap:square;stroke-width:1.5;"/>
    </g>
    <g id="line2d_30"/>
    <g id="text_17">
     <!-- $\Psi$ -->
     <defs>
      <path d="M 34.46875 0 
Q 34.515625 6.546875 34.46875 15.140625 
Q 24.03125 15.140625 14.84375 25.390625 
Q 5.859375 35.359375 5.609375 52.9375 
L 5.609375 72.90625 
L 16.015625 72.90625 
L 16.015625 52.9375 
Q 16.015625 39.15625 22.359375 31.15625 
Q 27.734375 24.3125 34.46875 23.640625 
L 34.46875 72.90625 
L 44.34375 72.90625 
L 44.34375 23.640625 
Q 51.078125 24.3125 56.453125 31.15625 
Q 62.796875 39.15625 62.796875 52.9375 
L 62.796875 72.90625 
L 73.1875 72.90625 
L 73.1875 52.9375 
Q 72.953125 35.359375 63.96875 25.390625 
Q 54.78125 15.140625 44.34375 15.140625 
Q 44.28125 11.625 44.34375 0 
z
" id="DejaVuSans-936"/>
     </defs>
     <g transform="translate(119.89 54.528037)scale(0.1 -0.1)">
      <use transform="translate(0 0.09375)" xlink:href="#DejaVuSans-936"/>
     </g>
    </g>
    <g id="line2d_31">
     <path d="M 91.89 65.706162 
L 111.89 65.706162 
" style="fill:none;stroke:#ff7f0e;stroke-linecap:square;stroke-width:1.5;"/>
    </g>
    <g id="line2d_32"/>
    <g id="text_18">
     <!-- $\Delta$ -->
     <defs>
      <path d="M 34.1875 63.1875 
L 14.15625 8.203125 
L 54.25 8.203125 
z
M 0.78125 0 
L 28.609375 72.90625 
L 39.796875 72.90625 
L 67.578125 0 
z
" id="DejaVuSans-916"/>
     </defs>
     <g transform="translate(119.89 69.206162)scale(0.1 -0.1)">
      <use transform="translate(0 0.09375)" xlink:href="#DejaVuSans-916"/>
     </g>
    </g>
   </g>
  </g>
 </g>
 <defs>
  <clipPath id="p5f5368c670">
   <rect height="243.3816" width="513.918" x="82.89" y="37.9296"/>
  </clipPath>
 </defs>
</svg>
